<svg width="56" height="41" viewBox="0 0 56 41" fill="none" xmlns="http://www.w3.org/2000/svg">
<path d="M55.0662 15.8942C54.9156 15.7745 53.509 14.7124 50.5427 14.7124C49.7594 14.7159 48.9778 14.783 48.2054 14.9133C47.6313 10.9783 44.3779 9.0597 44.2321 8.97363L43.4355 8.51428L42.9117 9.27025C42.2556 10.2857 41.7767 11.4052 41.4955 12.581C40.9644 14.8273 41.2874 16.9371 42.4284 18.7408C41.0506 19.5087 38.8402 19.6977 38.3929 19.7144H1.79763C0.841771 19.7157 0.0661368 20.4882 0.0609276 21.444C0.0182428 24.6499 0.561404 27.8367 1.66367 30.8475C2.9243 34.1535 4.79979 36.5887 7.23982 38.079C9.97405 39.7535 14.4163 40.7104 19.4518 40.7104C21.7266 40.7176 23.9971 40.5117 26.2336 40.0956C29.3425 39.5248 32.3341 38.4382 35.0846 36.8805C37.3509 35.5681 39.3906 33.8985 41.1248 31.9359C44.0241 28.6539 45.7513 24.9986 47.0358 21.7501H47.5477C50.7221 21.7501 52.6742 20.4799 53.7506 19.4154C54.466 18.7365 55.0245 17.9094 55.3869 16.9921L55.6141 16.3271L55.0662 15.8942Z" fill="#7D7D7D"/>
<path d="M5.18989 18.6427H10.0938C10.3303 18.6427 10.522 18.4509 10.522 18.2145V13.8464C10.5233 13.6098 10.3327 13.4171 10.0962 13.4158C10.0954 13.4158 10.0946 13.4158 10.0938 13.4158H5.18989C4.95337 13.4158 4.76172 13.6075 4.76172 13.8439V13.8464V18.2144C4.76172 18.4509 4.95337 18.6427 5.18989 18.6427Z" fill="#7D7D7D"/>
<path d="M11.9482 18.6427H16.8522C17.0887 18.6427 17.2803 18.4509 17.2803 18.2145V13.8464C17.2817 13.6098 17.091 13.4171 16.8545 13.4158C16.8537 13.4158 16.8529 13.4158 16.8521 13.4158H11.9482C11.7103 13.4158 11.5176 13.6085 11.5176 13.8464V18.2144C11.519 18.4513 11.7113 18.6427 11.9482 18.6427Z" fill="#7D7D7D"/>
<path d="M18.8091 18.6427H23.713C23.9495 18.6427 24.1412 18.4509 24.1412 18.2145V13.8464C24.1425 13.6098 23.9519 13.4171 23.7154 13.4158C23.7146 13.4158 23.7137 13.4158 23.713 13.4158H18.809C18.5725 13.4158 18.3809 13.6075 18.3809 13.8439V13.8464V18.2144C18.3809 18.4509 18.5727 18.6427 18.8091 18.6427Z" fill="#7D7D7D"/>
<path d="M25.5883 18.6427H30.4922C30.7292 18.6427 30.9215 18.4514 30.9228 18.2145V13.8464C30.9228 13.6085 30.7301 13.4158 30.4922 13.4158H25.5883C25.3518 13.4158 25.1602 13.6075 25.1602 13.8439V13.8464V18.2144C25.1602 18.4509 25.3519 18.6427 25.5883 18.6427Z" fill="#7D7D7D"/>
<path d="M11.9482 12.3585H16.8521C17.0889 12.3572 17.2803 12.1648 17.2803 11.928V7.55988C17.2803 7.32337 17.0885 7.13171 16.8521 7.13171H11.9482C11.7113 7.13171 11.5189 7.32298 11.5176 7.55988V11.928C11.5189 12.1652 11.7109 12.3572 11.9482 12.3585Z" fill="#7D7D7D"/>
<path d="M18.809 12.3585H23.713C23.9498 12.3572 24.1411 12.1648 24.1411 11.928V7.55988C24.1411 7.32337 23.9494 7.13171 23.713 7.13171H18.809C18.5725 7.13171 18.3809 7.32345 18.3809 7.55988V11.928C18.3809 12.1648 18.5722 12.3572 18.809 12.3585Z" fill="#7D7D7D"/>
<path d="M25.5883 12.3585H30.4922C30.7295 12.3572 30.9215 12.1652 30.9228 11.928V7.55988C30.9215 7.32298 30.7292 7.13171 30.4922 7.13171H25.5883C25.3518 7.13171 25.1602 7.32345 25.1602 7.55988V11.928C25.1602 12.1648 25.3515 12.3572 25.5883 12.3585Z" fill="#7D7D7D"/>
<path d="M25.5883 6.07199H30.4922C30.7292 6.07199 30.9215 5.88065 30.9228 5.64382V1.27326C30.9215 1.03636 30.7292 0.845093 30.4922 0.845093H25.5883C25.3518 0.845093 25.1602 1.03675 25.1602 1.27326V5.64374C25.1602 5.88026 25.3519 6.07199 25.5883 6.07199Z" fill="#7D7D7D"/>
<path d="M32.4262 18.6427H37.3301C37.567 18.6427 37.7594 18.4514 37.7607 18.2145V13.8464C37.7607 13.6085 37.568 13.4158 37.3301 13.4158H32.4262C32.1898 13.4158 31.998 13.6075 31.998 13.8439V13.8464V18.2144C31.998 18.4509 32.1898 18.6427 32.4262 18.6427Z" fill="#7D7D7D"/>
</svg>
