<svg width="50" height="56" viewBox="0 0 50 56" fill="none" xmlns="http://www.w3.org/2000/svg">
<path fill-rule="evenodd" clip-rule="evenodd" d="M29.5991 6.39508L41.0073 12.982C41.3367 12.6335 41.7146 12.3344 42.1295 12.094C44.4954 10.7338 47.5132 11.5414 48.8875 13.9074C50.2477 16.2735 49.4401 19.2912 47.074 20.6654C46.6622 20.9026 46.2185 21.0793 45.7564 21.1901V34.3687C46.2135 34.4798 46.6524 34.6552 47.0599 34.8899C49.4401 36.2642 50.2477 39.282 48.8734 41.6481C47.5132 44.014 44.4813 44.8216 42.1152 43.4616C41.6568 43.1986 41.2439 42.8634 40.8923 42.4688L29.5536 49.0152C29.7196 49.518 29.804 50.0442 29.8034 50.5737C29.8034 53.2939 27.5933 55.5184 24.8588 55.5184C22.1244 55.5184 19.9143 53.308 19.9143 50.5737C19.9143 50.0877 19.9841 49.6182 20.1143 49.1748L8.70924 42.5898C8.38349 42.9313 8.01084 43.2249 7.60248 43.4616C5.22232 44.8216 2.20449 44.014 0.844287 41.6481C-0.515723 39.282 0.291873 36.2642 2.65776 34.8899C3.06534 34.6552 3.50423 34.4796 3.96126 34.3686V21.1901C3.49919 21.0793 3.05546 20.9026 2.64368 20.6654C0.2776 19.3054 -0.529996 16.2735 0.830206 13.9074C2.19041 11.5414 5.22213 10.7338 7.58821 12.094C8.0008 12.3331 8.3769 12.6303 8.70499 12.9764L20.1165 6.38775C19.9819 5.93118 19.9139 5.45761 19.9143 4.98164C19.9143 2.24754 22.1244 0.0371094 24.8588 0.0371094C27.5933 0.0371094 29.8034 2.24734 29.8034 4.98164C29.8034 5.4731 29.732 5.9474 29.5991 6.39508ZM28.4106 8.42458L39.846 15.0269C39.6639 15.6635 39.6116 16.3301 39.6924 16.9872C39.7731 17.6443 39.9852 18.2785 40.316 18.852C41.0121 20.0629 42.1461 20.8657 43.4046 21.1785V34.3736C43.3404 34.3892 43.2766 34.4064 43.2131 34.4245L28.2777 8.55671C28.3228 8.5135 28.3672 8.46952 28.4106 8.42477V8.42458ZM21.4431 8.5596L6.50788 34.427C6.4433 34.4083 6.37835 34.391 6.31307 34.3749V21.1785C7.57162 20.8657 8.70557 20.0629 9.40168 18.852C9.73313 18.2774 9.94541 17.6419 10.0258 16.9834C10.1063 16.325 10.0532 15.6571 9.86981 15.0196L21.3019 8.41918C21.348 8.46682 21.3951 8.51369 21.4431 8.55941V8.5596ZM26.2405 9.73136L41.1722 35.593C40.8302 35.9193 40.537 36.2933 40.3017 36.7034C40.0671 37.111 39.8916 37.5499 39.7806 38.0069H9.93751C9.82635 37.5499 9.65074 37.111 9.41596 36.7034C9.17987 36.2962 8.88725 35.9244 8.54683 35.5993L23.4815 9.73251C23.9292 9.86144 24.3929 9.92663 24.8588 9.92617C25.3385 9.92617 25.802 9.85827 26.2405 9.73136ZM28.5155 47.2427L39.8766 40.6831C39.8426 40.576 39.8121 40.4678 39.7854 40.3587H9.93114C9.91533 40.4229 9.89816 40.4866 9.87984 40.55L21.2965 47.1418C21.7575 46.6624 22.3108 46.2812 22.923 46.0213C23.5352 45.7613 24.1937 45.628 24.8588 45.6292C25.5472 45.628 26.2282 45.7709 26.858 46.0488C27.4878 46.3267 28.0524 46.7334 28.5155 47.2427Z" fill="#E535AB"/>
</svg>
