<svg width="55" height="56" viewBox="0 0 55 56" fill="none" xmlns="http://www.w3.org/2000/svg">
<path d="M54.1422 33.279C53.8192 32.298 52.9731 31.6148 51.879 31.4509C51.363 31.3737 50.7722 31.4066 50.073 31.5511C48.8542 31.8033 47.9501 31.8993 47.2902 31.9178C49.7809 27.701 51.8062 22.8924 52.9721 18.3658C54.8574 11.0465 53.8499 7.7121 52.6726 6.20389C49.557 2.2118 45.0114 0.0672092 39.5275 0.00158875C36.6021 -0.034281 34.034 0.544909 32.6942 0.96142C31.4469 0.740716 30.1057 0.617493 28.6984 0.594705C26.0604 0.552505 23.7297 1.12916 21.7381 2.31434C20.6355 1.94045 18.8659 1.41338 16.8223 1.07705C12.016 0.285803 8.14222 0.902341 5.30876 2.90957C1.87771 5.33985 0.287168 9.56235 0.58133 15.4597C0.674755 17.3321 1.71926 23.0291 3.36388 28.4319C4.30907 31.5374 5.31696 34.1162 6.35958 36.0975C7.83817 38.9069 9.42029 40.5614 11.1964 41.1555C12.1919 41.4881 14.0006 41.721 15.903 40.1322C16.1442 40.4251 16.4659 40.716 16.8928 40.9863C17.4351 41.3292 18.0981 41.6094 18.7603 41.7755C21.1466 42.3736 23.3818 42.224 25.2888 41.3855C25.3006 41.7257 25.3097 42.0506 25.3173 42.3312C25.3299 42.7864 25.3425 43.2326 25.3591 43.65C25.4721 46.4719 25.6636 48.666 26.2309 50.2013C26.262 50.2857 26.3039 50.4144 26.3481 50.5509C26.6311 51.4198 27.1043 52.8744 28.3083 54.0136C29.555 55.1937 31.0631 55.5556 32.4443 55.5556C33.137 55.5556 33.7979 55.4644 34.3776 55.3399C36.4439 54.8958 38.7906 54.2193 40.4883 51.7953C42.0933 49.5039 42.8736 46.0526 43.0147 40.6146C43.0331 40.4607 43.0499 40.3139 43.0661 40.174L43.0998 39.8866L43.4779 39.9199L43.5753 39.9265C45.6799 40.0227 48.2533 39.5752 49.8337 38.839C51.0825 38.2579 55.0844 36.1393 54.1422 33.279Z" fill="black"/>
<path d="M50.5445 33.8352C44.2867 35.1297 43.8564 33.0051 43.8564 33.0051C50.4634 23.1741 53.2256 10.695 50.8422 7.64078C44.3395 -0.690502 33.0832 3.24969 32.8953 3.35181L32.8349 3.36278C31.5985 3.10536 30.215 2.95218 28.6599 2.92665C25.8285 2.88023 23.6806 3.67105 22.0507 4.91046C22.0507 4.91046 1.97061 -3.38474 2.90465 15.3431C3.10328 19.3271 8.59937 45.4891 15.1547 37.587C17.5507 34.6973 19.8659 32.2542 19.8659 32.2542C21.0156 33.0201 22.3922 33.4109 23.8352 33.2706L23.9474 33.1752C23.9124 33.5339 23.9284 33.8848 23.9922 34.3002C22.3034 36.1923 22.7998 36.5244 19.4238 37.2213C16.0077 37.9273 18.0145 39.184 19.3247 39.5128C20.9132 39.9109 24.5879 40.4751 27.0708 36.9896L26.9719 37.3874C27.6334 37.9189 28.098 40.8442 28.0202 43.4962C27.9423 46.148 27.8904 47.9687 28.4116 49.3909C28.9332 50.813 29.4527 54.0128 33.8908 53.0593C37.599 52.2623 39.5207 50.1973 39.7882 46.7525C39.9777 44.3037 40.4072 44.6658 40.4341 42.4762L40.7786 41.4398C41.1757 38.1202 40.8417 37.0491 43.1262 37.5473L43.6817 37.5963C45.3629 37.6728 47.5639 37.3249 48.8556 36.7229C51.6369 35.4287 53.2866 33.2674 50.544 33.8352H50.5445Z" fill="#336791"/>
<path d="M23.2252 17.1248C22.6612 17.0461 22.1506 17.1189 21.8922 17.3151C21.747 17.4254 21.7019 17.5533 21.6897 17.6413C21.6573 17.8744 21.8202 18.1323 21.9204 18.2652C22.2036 18.6416 22.6173 18.9003 23.0267 18.9573C23.0861 18.9657 23.1452 18.9695 23.2039 18.9695C23.8867 18.9695 24.5076 18.4363 24.5623 18.0428C24.6307 17.5499 23.9172 17.2214 23.2252 17.125V17.1248ZM41.9068 17.1404C41.8529 16.754 41.1674 16.6439 40.5168 16.7346C39.867 16.8254 39.237 17.1195 39.2896 17.5067C39.3317 17.8078 39.8739 18.3217 40.5157 18.3217C40.57 18.3217 40.6247 18.3182 40.6798 18.3104C41.1083 18.2509 41.4226 17.978 41.572 17.8208C41.7993 17.5811 41.931 17.314 41.9068 17.1404Z" fill="white"/>
<path d="M52.6262 33.6882C52.3876 32.9647 51.6196 32.7319 50.3436 32.9961C46.555 33.7802 45.1983 33.2371 44.7528 32.9081C47.6976 28.4096 50.1201 22.9718 51.427 17.8983C52.0461 15.495 52.388 13.2631 52.416 11.4438C52.4469 9.44715 52.1077 7.97986 51.4083 7.08354C48.5883 3.47019 44.4494 1.53195 39.4394 1.47878C35.995 1.43996 33.085 2.32383 32.5209 2.57239C31.3328 2.27614 30.0377 2.09426 28.6277 2.07105C26.0421 2.02906 23.8071 2.64982 21.9567 3.91518C21.1529 3.61514 19.0756 2.90007 16.5353 2.48967C12.1434 1.78072 8.65347 2.31792 6.16298 4.08715C3.19126 6.1984 1.81934 9.97232 2.0851 15.3038C2.17453 17.0975 3.19379 22.6156 4.80221 27.9001C6.91943 34.8554 9.22097 38.7929 11.6424 39.6029C11.9259 39.6976 12.2527 39.7639 12.6131 39.7639C13.4964 39.7639 14.5794 39.3647 15.7062 38.0063C17.0806 36.353 18.5023 34.7399 19.9695 33.1689C20.9214 33.6812 21.9672 33.9673 23.0367 33.996C23.0388 34.0241 23.0416 34.0521 23.0441 34.08C22.86 34.3001 22.6797 34.5235 22.5033 34.7499C21.7622 35.6933 21.608 35.8897 19.2225 36.3822C18.5439 36.5227 16.7417 36.8951 16.7152 38.162C16.6866 39.5461 18.8456 40.1274 19.0916 40.189C19.9489 40.4043 20.7747 40.5104 21.5623 40.5104C23.4778 40.5104 25.1634 39.8791 26.5105 38.6576C26.4691 43.592 26.6742 48.4543 27.2651 49.9357C27.749 51.1485 28.9311 54.1124 32.6652 54.1122C33.2131 54.1122 33.8162 54.0483 34.4796 53.9057C38.3768 53.068 40.0691 51.3408 40.7237 47.5329C41.0741 45.4978 41.6753 40.6383 41.9581 38.0316C42.5548 38.2183 43.323 38.3038 44.1535 38.3036C45.8857 38.3036 47.8844 37.9345 49.1379 37.3511C50.546 36.6953 53.087 35.0862 52.6262 33.6882ZM43.3455 16.074C43.3327 16.8435 43.2271 17.5421 43.1151 18.2713C42.9946 19.0556 42.87 19.8665 42.8386 20.8508C42.8077 21.8087 42.927 22.8046 43.0423 23.7679C43.2755 25.7133 43.5147 27.7161 42.5887 29.6923C42.4348 29.419 42.2978 29.1365 42.1784 28.8464C42.0633 28.5666 41.8133 28.1172 41.4671 27.4951C40.1207 25.0737 36.9676 19.4033 38.5817 17.0895C39.0625 16.4008 40.2827 15.6927 43.3455 16.074ZM39.6329 3.03701C44.122 3.13639 47.673 4.82037 50.187 8.0419C52.1153 10.5129 49.992 21.7564 43.8451 31.4562C43.7833 31.3774 43.7211 31.2988 43.6586 31.2205L43.5808 31.1231C45.1692 28.4925 44.8587 25.8899 44.5822 23.5824C44.4685 22.6354 44.3612 21.741 44.3886 20.9008C44.4168 20.0104 44.5342 19.2466 44.6478 18.5081C44.7873 17.598 44.9294 16.6563 44.8902 15.5463C44.9195 15.4298 44.9312 15.2922 44.9159 15.1289C44.8159 14.0644 43.6039 10.8786 41.1336 7.99506C39.7823 6.41784 37.8118 4.65283 35.1212 3.46238C36.2785 3.22184 37.861 2.99755 39.6329 3.03701ZM14.5138 37.012C13.2723 38.5089 12.4151 38.2219 12.1331 38.1278C10.2962 37.5134 8.16468 33.62 6.28544 27.4462C4.65934 22.1041 3.7091 16.7323 3.63377 15.226C3.39642 10.4621 4.54803 7.14199 7.05683 5.35778C11.1398 2.45444 17.8525 4.19222 20.5498 5.07357C20.5111 5.11197 20.4707 5.14784 20.4324 5.18687C16.0061 9.66933 16.1111 17.3277 16.122 17.7959C16.1216 17.9766 16.1367 18.2323 16.1574 18.584C16.2335 19.8722 16.3754 22.2695 15.9966 24.9845C15.6448 27.5074 16.4204 29.9767 18.1241 31.7594C18.299 31.942 18.4828 32.1158 18.6748 32.2802C17.9164 33.0946 16.2683 34.8957 14.5138 37.012ZM19.2438 30.6835C17.8706 29.2466 17.2469 27.2481 17.5324 25.1997C17.9322 22.3318 17.7847 19.834 17.7054 18.492C17.6942 18.3042 17.6844 18.1397 17.6787 18.0099C18.3253 17.4349 21.3218 15.825 23.4588 16.316C24.4339 16.5399 25.0281 17.2058 25.2751 18.3511C26.5536 24.2808 25.4443 26.7522 24.553 28.7383C24.3693 29.1475 24.1957 29.5342 24.0476 29.9343L23.9327 30.2436C23.6419 31.0256 23.3713 31.7527 23.2036 32.4431C21.7437 32.4388 20.3236 31.8134 19.2438 30.6833V30.6835ZM19.4679 38.6804C19.0415 38.5736 18.6582 38.3882 18.4332 38.2344C18.6211 38.1457 18.9555 38.025 19.5354 37.9052C22.3417 37.326 22.7752 36.9171 23.7216 35.7121C23.9386 35.4357 24.1846 35.1225 24.5252 34.7411L24.5256 34.7406C25.033 34.1709 25.265 34.2676 25.6859 34.4427C26.027 34.5841 26.3592 35.0128 26.4939 35.4846C26.5576 35.7074 26.6292 36.1303 26.395 36.4594C24.4179 39.2353 21.5369 39.1997 19.4679 38.6804ZM34.1547 52.3852C30.7216 53.1228 29.506 51.3663 28.7049 49.3582C28.188 48.0618 27.9338 42.2159 28.1141 35.76C28.1164 35.6741 28.1042 35.5912 28.0806 35.5131C28.0596 35.3589 28.0275 35.2065 27.9847 35.0569C27.7166 34.1175 27.0633 33.3318 26.2795 33.006C25.9681 32.8767 25.3966 32.6393 24.7098 32.8155C24.8562 32.2103 25.1102 31.5269 25.3856 30.7869L25.5011 30.4757C25.6312 30.1248 25.7945 29.7613 25.967 29.3764C26.8998 27.2985 28.1772 24.4523 26.7908 18.0226C26.2715 15.6142 24.5372 14.4381 21.9083 14.7114C20.3322 14.8749 18.8903 15.5125 18.1711 15.8782C18.0164 15.9567 17.875 16.0326 17.7429 16.1065C17.9436 13.68 18.7019 9.14521 21.5388 6.27605C23.325 4.4699 25.7038 3.5778 28.6021 3.6259C34.3128 3.71959 37.9749 6.65838 40.0416 9.10744C41.8225 11.2176 42.7869 13.3435 43.1717 14.49C40.2775 14.1948 38.309 14.7677 37.3112 16.1983C35.1403 19.3101 38.4988 25.3497 40.1129 28.2524C40.409 28.7843 40.6644 29.2441 40.7448 29.4395C41.2704 30.7169 41.9509 31.5697 42.4477 32.1922C42.6 32.3829 42.7477 32.568 42.8601 32.7296C41.9835 32.983 40.409 33.5685 40.5525 36.4953C40.4367 37.9638 39.6138 44.8395 39.1957 47.2687C38.6438 50.478 37.4661 51.6733 34.1547 52.3854V52.3852ZM48.485 35.9408C47.5886 36.3579 46.0885 36.6708 44.6636 36.7382C43.0897 36.812 42.2884 36.5613 42.0999 36.4071C42.0115 34.5832 42.6884 34.3927 43.4049 34.191C43.5175 34.1593 43.6273 34.1283 43.7333 34.0912C43.7992 34.145 43.8714 34.1984 43.9505 34.2507C45.2155 35.0879 47.4718 35.1782 50.6573 34.5189L50.6922 34.5119C50.2626 34.9147 49.5274 35.4553 48.485 35.9408Z" fill="white"/>
</svg>
