<svg width="57" height="56" viewBox="0 0 57 56" fill="none" xmlns="http://www.w3.org/2000/svg">
<path d="M51.7857 42.9141C48.763 42.8376 46.4203 43.1445 44.4555 43.9881C43.8887 44.2181 42.9817 44.2183 42.9062 44.9471C43.2085 45.254 43.2463 45.7527 43.5108 46.1744C43.9647 46.9413 44.7576 47.977 45.4756 48.5143C46.269 49.1278 47.0627 49.7413 47.8937 50.2783C49.3674 51.1989 51.0302 51.7357 52.4659 52.6564C53.2975 53.1929 54.1282 53.8838 54.9596 54.459C55.3753 54.7654 55.6396 55.2645 56.1688 55.4561V55.3413C55.9041 54.9958 55.8285 54.4974 55.5642 54.1138C55.1868 53.7302 54.8084 53.385 54.4305 53.0014C53.3349 51.5058 51.9747 50.2016 50.5011 49.1278C49.2921 48.2839 46.6469 47.1334 46.1558 45.7141C46.1558 45.7141 46.1178 45.6759 46.0802 45.6376C46.9114 45.5609 47.8937 45.254 48.6875 45.0238C49.9721 44.6784 51.1433 44.7553 52.4659 44.4101C53.0703 44.2567 53.675 44.0649 54.2794 43.8731V43.5281C53.5996 42.8376 53.1084 41.9172 52.3904 41.2651C50.4633 39.5771 48.3471 37.9281 46.1558 36.5474C44.9843 35.7802 43.4728 35.2816 42.226 34.6297C41.7729 34.3993 41.0169 34.2845 40.7526 33.9009C40.0722 33.0572 39.6943 31.945 39.2033 30.9477C38.1078 28.838 37.0495 26.4985 36.1048 24.2741C35.425 22.7781 35.0093 21.2821 34.178 19.9017C30.2861 13.3813 26.0542 9.43081 19.5553 5.55678C18.1571 4.75147 16.4946 4.40624 14.7187 3.98451C13.7745 3.94593 12.8295 3.86944 11.885 3.83086C11.2804 3.56235 10.6757 2.83375 10.1467 2.48852C7.99337 1.1076 2.43859 -1.88373 0.851664 2.06679C-0.168642 4.55968 2.36323 7.0142 3.23194 8.28026C3.87479 9.1623 4.70572 10.1594 5.15919 11.1567C5.42371 11.8084 5.49907 12.4993 5.7636 13.1895C6.36844 14.8767 6.93484 16.7565 7.72863 18.3292C8.14431 19.1345 8.59756 19.9782 9.12661 20.707C9.42892 21.1287 9.95775 21.3207 10.0713 22.011C9.54251 22.7781 9.5045 23.9289 9.20197 24.8877C7.84178 29.2218 8.37105 34.5913 10.2979 37.7747C10.9023 38.7332 12.3382 40.8434 14.2653 40.0376C15.9658 39.3474 15.5879 37.1612 16.0787 35.2434C16.1925 34.7827 16.1169 34.4763 16.3435 34.1694V34.2463C16.8725 35.3199 17.4013 36.3558 17.8926 37.4297C19.0641 39.3088 21.1042 41.2651 22.8045 42.5693C23.7117 43.2593 24.4295 44.4485 25.5631 44.8704V44.7551H25.4873C25.2606 44.4099 24.9205 44.2567 24.6184 43.9879C23.9384 43.2979 23.1824 42.454 22.6536 41.6868C21.0669 39.5387 19.6685 37.1609 18.4216 34.7062C17.8172 33.5175 17.288 32.2133 16.7969 31.0244C16.57 30.5637 16.57 29.8736 16.1923 29.6437C15.6255 30.4874 14.7943 31.2162 14.3786 32.2517C13.6611 33.9009 13.5853 35.9337 13.3208 38.043C13.1696 38.0818 13.245 38.043 13.1694 38.1201C11.9606 37.8128 11.5449 36.5474 11.0912 35.4734C9.95754 32.7503 9.76859 28.3779 10.7513 25.2329C11.0158 24.4273 12.1495 21.8961 11.6961 21.1289C11.4693 20.4001 10.7133 19.9782 10.2979 19.403C9.80681 18.6742 9.27755 17.754 8.93766 16.9483C8.03073 14.8004 7.57726 12.4224 6.59496 10.2745C6.14149 9.27715 5.34835 8.2419 4.70572 7.32129C3.98794 6.28582 3.19437 5.55679 2.62753 4.32952C2.43881 3.9078 2.17407 3.21734 2.47638 2.75703C2.55196 2.45016 2.7029 2.3353 3.00543 2.25859C3.49668 1.83642 4.89488 2.37344 5.38571 2.6036C6.7839 3.17854 7.95515 3.716 9.12661 4.52132C9.65544 4.90491 10.2223 5.63372 10.9023 5.82552H11.6958C12.9051 6.09381 14.2651 5.90223 15.3987 6.24724C17.4016 6.89912 19.215 7.85809 20.8399 8.89378C25.7899 12.0771 29.8702 16.603 32.6288 22.011C33.0823 22.8928 33.271 23.6987 33.6867 24.6189C34.4805 26.4985 35.4628 28.4162 36.2559 30.2572C37.0495 32.0597 37.8051 33.9009 38.9387 35.3969C39.5056 36.202 41.7725 36.6241 42.7928 37.0461C43.5486 37.3911 44.72 37.6982 45.4 38.1199C46.6846 38.925 47.9693 39.8461 49.1785 40.7279C49.7831 41.1882 51.6721 42.1471 51.7857 42.9141Z" fill="#00546B"/>
<path d="M13.2442 9.58386C12.602 9.58386 12.1488 9.66102 11.6953 9.77588V9.85259H11.7709C12.0734 10.4663 12.602 10.8883 12.9797 11.4251C13.2822 12.0386 13.5465 12.6526 13.8491 13.2663C13.8866 13.2277 13.9244 13.1896 13.9244 13.1896C14.4537 12.8058 14.718 12.1923 14.718 11.2717C14.4913 11.0034 14.4535 10.7348 14.2645 10.4663C14.038 10.0825 13.5465 9.89095 13.2442 9.58386Z" fill="#00546B"/>
</svg>
