<svg width="29" height="23" viewBox="0 0 29 23" fill="none" xmlns="http://www.w3.org/2000/svg">
<path d="M4.84096 3.43399H12.6981C13.1149 3.43399 13.5146 3.59955 13.8093 3.89425C14.104 4.18895 14.2695 4.58865 14.2695 5.00542C14.2695 5.42219 14.104 5.82189 13.8093 6.11659C13.5146 6.41129 13.1149 6.57685 12.6981 6.57685H4.84096C4.42419 6.57685 4.02449 6.41129 3.72979 6.11659C3.43509 5.82189 3.26953 5.42219 3.26953 5.00542C3.26953 4.58865 3.43509 4.18895 3.72979 3.89425C4.02449 3.59955 4.42419 3.43399 4.84096 3.43399ZM15.841 16.0054H23.6981C24.1149 16.0054 24.5146 16.171 24.8093 16.4657C25.104 16.7604 25.2695 17.1601 25.2695 17.5768C25.2695 17.9936 25.104 18.3933 24.8093 18.688C24.5146 18.9827 24.1149 19.1483 23.6981 19.1483H15.841C15.4242 19.1483 15.0245 18.9827 14.7298 18.688C14.4351 18.3933 14.2695 17.9936 14.2695 17.5768C14.2695 17.1601 14.4351 16.7604 14.7298 16.4657C15.0245 16.171 15.4242 16.0054 15.841 16.0054ZM4.84096 9.71971H23.6981C24.1149 9.71971 24.5146 9.88527 24.8093 10.18C25.104 10.4747 25.2695 10.8744 25.2695 11.2911C25.2695 11.7079 25.104 12.1076 24.8093 12.4023C24.5146 12.697 24.1149 12.8626 23.6981 12.8626H4.84096C4.42419 12.8626 4.02449 12.697 3.72979 12.4023C3.43509 12.1076 3.26953 11.7079 3.26953 11.2911C3.26953 10.8744 3.43509 10.4747 3.72979 10.18C4.02449 9.88527 4.42419 9.71971 4.84096 9.71971Z" fill="#FF5E0E"/>
</svg>
