<svg width="520" height="452" viewBox="0 0 520 452" fill="none" xmlns="http://www.w3.org/2000/svg">
<g opacity="0.5">
<path opacity="0.5" d="M386.155 32.6675H148.102V355.185H386.155V32.6675Z" fill="#C3D9CF"/>
</g>
<path d="M383.125 35.0435H151.129V350.434H383.125V35.0435Z" fill="#F4FBF8"/>
<path d="M324.976 26.7161H209.887V54.0501H324.976V26.7161Z" fill="url(#paint0_linear_2491_2095)"/>
<path d="M267.432 0C258.546 0 251.344 7.23439 251.344 16.1556C251.344 25.0769 258.546 32.3113 267.432 32.3113C276.318 32.3113 283.52 25.0769 283.52 16.1556C283.52 7.23439 276.318 0 267.432 0ZM267.432 25.4748C265.543 25.5232 263.681 25.0181 262.086 24.024C260.491 23.0299 259.234 21.5919 258.476 19.8939C257.719 18.1959 257.495 16.3149 257.833 14.4914C258.171 12.6679 259.056 10.9847 260.375 9.65696C261.694 8.32918 263.386 7.41712 265.236 7.03735C267.086 6.65759 269.01 6.82737 270.761 7.52499C272.512 8.22262 274.011 9.41639 275.067 10.9538C276.123 12.4911 276.687 14.3022 276.688 16.1556C276.717 18.5938 275.759 20.9439 274.024 22.6908C272.289 24.4377 269.918 25.4388 267.432 25.4748Z" fill="url(#paint1_linear_2491_2095)"/>
<path d="M323.764 26.728H211.098V52.862H323.764V26.728Z" fill="#0F241B"/>
<path d="M267.431 1.18799C264.316 1.18799 261.271 2.0937 258.681 3.79058C256.091 5.48746 254.072 7.89931 252.88 10.7211C251.688 13.5429 251.377 16.648 251.984 19.6436C252.592 22.6392 254.092 25.3909 256.294 27.5506C258.497 29.7103 261.303 31.1811 264.358 31.777C267.413 32.3729 270.58 32.067 273.458 30.8982C276.335 29.7294 278.795 27.75 280.526 25.2105C282.256 22.6709 283.18 19.6852 283.18 16.6309C283.18 12.5352 281.521 8.6072 278.567 5.7111C275.613 2.815 271.608 1.18799 267.431 1.18799ZM267.431 25.5402C265.634 25.5402 263.877 25.0177 262.383 24.0387C260.889 23.0597 259.724 21.6683 259.036 20.0403C258.349 18.4123 258.169 16.621 258.519 14.8927C258.87 13.1645 259.735 11.577 261.006 10.331C262.277 9.085 263.896 8.23647 265.658 7.8927C267.421 7.54893 269.248 7.72537 270.908 8.39969C272.568 9.07402 273.987 10.216 274.985 11.6811C275.984 13.1462 276.517 14.8688 276.517 16.6309C276.517 18.9938 275.559 21.2599 273.855 22.9307C272.152 24.6015 269.84 25.5402 267.431 25.5402Z" fill="#0F241B"/>
<path d="M187.351 86.1235H186.385C172.936 86.1235 162.033 97.0264 162.033 110.476C162.033 123.925 172.936 134.828 186.385 134.828H187.351C200.8 134.828 211.703 123.925 211.703 110.476C211.703 97.0264 200.8 86.1235 187.351 86.1235Z" fill="url(#paint2_linear_2491_2095)"/>
<path d="M187.521 182.641H186.555C173.106 182.641 162.203 193.544 162.203 206.993C162.203 220.443 173.106 231.346 186.555 231.346H187.521C200.97 231.346 211.873 220.443 211.873 206.993C211.873 193.544 200.97 182.641 187.521 182.641Z" fill="url(#paint3_linear_2491_2095)"/>
<path d="M187.691 277.971H186.725C173.276 277.971 162.373 288.874 162.373 302.323C162.373 315.773 173.276 326.676 186.725 326.676H187.691C201.14 326.676 212.043 315.773 212.043 302.323C212.043 288.874 201.14 277.971 187.691 277.971Z" fill="url(#paint4_linear_2491_2095)"/>
<path d="M187.317 87.9055H186.422C173.957 87.9055 163.852 98.0105 163.852 110.476C163.852 122.941 173.957 133.046 186.422 133.046H187.317C199.782 133.046 209.887 122.941 209.887 110.476C209.887 98.0105 199.782 87.9055 187.317 87.9055Z" fill="#307457"/>
<path d="M187.317 183.532H186.422C173.957 183.532 163.852 193.637 163.852 206.103C163.852 218.568 173.957 228.673 186.422 228.673H187.317C199.782 228.673 209.887 218.568 209.887 206.103C209.887 193.637 199.782 183.532 187.317 183.532Z" fill="#307457"/>
<path d="M187.317 279.159H186.422C173.957 279.159 163.852 289.264 163.852 301.729C163.852 314.195 173.957 324.3 186.422 324.3H187.317C199.782 324.3 209.887 314.195 209.887 301.729C209.887 289.264 199.782 279.159 187.317 279.159Z" fill="#307457"/>
<path d="M303.273 101.84H240.174V106.158H303.273V101.84Z" fill="#FF5E0E"/>
<path d="M344.36 108.32H240.174V112.638H344.36V108.32Z" fill="#307457"/>
<path d="M337.025 114.794H240.174V119.112H337.025V114.794Z" fill="#FF5E0E"/>
<path d="M303.273 197.466H240.174V201.785H303.273V197.466Z" fill="#FF5E0E"/>
<path d="M344.36 203.946H240.174V208.265H344.36V203.946Z" fill="#307457"/>
<path d="M337.025 210.421H240.174V214.739H337.025V210.421Z" fill="#FF5E0E"/>
<path d="M303.273 293.093H240.174V297.412H303.273V293.093Z" fill="#FF5E0E"/>
<path d="M344.36 299.573H240.174V303.891H344.36V299.573Z" fill="#307457"/>
<path d="M337.025 306.047H240.174V310.366H337.025V306.047Z" fill="#FF5E0E"/>
<path d="M176.42 107.785L184.78 115.305L196.622 98.2283L200.801 101.644L184.78 122.135L172.938 109.157L176.42 107.785Z" fill="url(#paint5_linear_2491_2095)"/>
<path d="M177.783 108.1L185.051 114.633L195.349 99.7847L198.983 102.754L185.051 120.573L174.754 109.288L177.783 108.1Z" fill="#FFF5F0"/>
<path d="M177.783 204.321L185.051 210.854L195.349 196.005L198.983 198.975L185.051 216.794L174.754 205.509L177.783 204.321Z" fill="#FFF5F0"/>
<path d="M177.783 300.541L185.051 307.075L195.349 292.226L198.983 295.196L185.051 313.015L174.754 301.729L177.783 300.541Z" fill="#FFF5F0"/>
<g opacity="0.5">
<path opacity="0.5" d="M394.332 208.479H397.966" stroke="#307457" stroke-width="5.90563" stroke-miterlimit="10"/>
<path opacity="0.5" d="M404.957 208.479H485.332" stroke="#307457" stroke-width="5.90563" stroke-miterlimit="10" stroke-dasharray="13.63 13.63"/>
<path opacity="0.5" d="M488.826 208.478H492.461V204.915" stroke="#307457" stroke-width="5.90563" stroke-miterlimit="10"/>
<path opacity="0.5" d="M492.461 198.114V133.479" stroke="#307457" stroke-width="5.90563" stroke-miterlimit="10" stroke-dasharray="13.52 13.52"/>
<path opacity="0.5" d="M492.461 130.076V126.512" stroke="#307457" stroke-width="5.90563" stroke-miterlimit="10"/>
</g>
<path opacity="0.5" d="M140.227 108.397H59.0586V183.235" stroke="#C3D9CF" stroke-width="5.90563" stroke-miterlimit="10" stroke-dasharray="14.17 14.17"/>
<path opacity="0.5" d="M186.867 363.204V405.968H308.014" stroke="#C3D9CF" stroke-width="5.90563" stroke-miterlimit="10" stroke-dasharray="14.17 14.17"/>
<g opacity="0.5">
<path opacity="0.5" d="M519.274 120.303H465.363V56.75H519.274V89.0729V120.303Z" fill="url(#paint6_linear_2491_2095)"/>
</g>
<path d="M518.514 119.29H466.545V57.908H518.514V89.1253V119.29Z" fill="#F4FBF8"/>
<path d="M510.794 67.4409H473.238V69.8169H510.794V67.4409Z" fill="#307457"/>
<path d="M510.794 72.1926H473.238V74.5686H510.794V72.1926Z" fill="#C3D9CF"/>
<path d="M510.794 76.9443H473.238V79.32H510.794V76.9443Z" fill="#FF5E0E"/>
<path d="M510.794 81.696H473.238V84.0718H510.794V81.696Z" fill="#C3D9CF"/>
<path d="M510.794 86.4478H473.238V88.8233H510.794V86.4478Z" fill="#FF5E0E"/>
<path d="M425.224 373.598H336.787V449.624H425.224V373.598Z" fill="#F4FBF8" stroke="#C3D9CF" stroke-opacity="0.11" stroke-width="2.36225"/>
<path d="M425.224 425.272C400.783 425.272 381.006 419.16 381.006 411.611C356.564 411.611 336.787 416.927 336.787 423.49V452H425.224V425.272Z" fill="#307457"/>
<path d="M410.688 399.138C415.706 399.138 419.774 395.149 419.774 390.229C419.774 385.308 415.706 381.319 410.688 381.319C405.67 381.319 401.602 385.308 401.602 390.229C401.602 395.149 405.67 399.138 410.688 399.138Z" fill="#FF5E0E"/>
<g opacity="0.5">
<path opacity="0.5" d="M123.57 189.917H0V275.744H123.57V189.917Z" fill="#C3D9CF"/>
</g>
<path d="M119.936 192.442H3.63477V273.22H119.936V192.442Z" fill="#F4FBF8"/>
<path d="M64.1778 212.838C63.2054 212.84 62.2342 212.903 61.2702 213.028L64.1778 234.814L41.8201 233.353C41.7899 233.834 41.7656 234.321 41.7656 234.814C41.7656 239.161 43.0801 243.41 45.5428 247.024C48.0054 250.638 51.5057 253.454 55.601 255.118C59.6963 256.781 64.2026 257.216 68.5501 256.368C72.8977 255.52 76.8911 253.427 80.0255 250.354C83.1599 247.281 85.2945 243.365 86.1592 239.102C87.024 234.839 86.5802 230.42 84.8839 226.404C83.1875 222.389 80.3149 218.956 76.6293 216.542C72.9436 214.127 68.6105 212.838 64.1778 212.838Z" fill="#FF5E0E"/>
<path d="M56.4227 208.87C51.2841 209.531 46.5376 211.917 42.9913 215.623C39.445 219.329 37.3181 224.125 36.9727 229.196L59.3303 230.657L56.4227 208.87Z" fill="#FF5E0E"/>
<defs>
<linearGradient id="paint0_linear_2491_2095" x1="51021.8" y1="2514.11" x2="51021.8" y2="1256.2" gradientUnits="userSpaceOnUse">
<stop stop-color="#808080" stop-opacity="0.25"/>
<stop offset="0.54" stop-color="#808080" stop-opacity="0.12"/>
<stop offset="1" stop-color="#808080" stop-opacity="0.1"/>
</linearGradient>
<linearGradient id="paint1_linear_2491_2095" x1="19709.2" y1="3453.75" x2="19709.2" y2="1696.34" gradientUnits="userSpaceOnUse">
<stop stop-color="#808080" stop-opacity="0.25"/>
<stop offset="0.54" stop-color="#808080" stop-opacity="0.12"/>
<stop offset="1" stop-color="#808080" stop-opacity="0.1"/>
</linearGradient>
<linearGradient id="paint2_linear_2491_2095" x1="15485.3" y1="11142" x2="15485.3" y2="7148.26" gradientUnits="userSpaceOnUse">
<stop stop-color="#808080" stop-opacity="0.25"/>
<stop offset="0.54" stop-color="#808080" stop-opacity="0.12"/>
<stop offset="1" stop-color="#808080" stop-opacity="0.1"/>
</linearGradient>
<linearGradient id="paint3_linear_2491_2095" x1="15499.3" y1="19153" x2="15499.3" y2="15159.3" gradientUnits="userSpaceOnUse">
<stop stop-color="#808080" stop-opacity="0.25"/>
<stop offset="0.54" stop-color="#808080" stop-opacity="0.12"/>
<stop offset="1" stop-color="#808080" stop-opacity="0.1"/>
</linearGradient>
<linearGradient id="paint4_linear_2491_2095" x1="15513.4" y1="27065.4" x2="15513.4" y2="23071.6" gradientUnits="userSpaceOnUse">
<stop stop-color="#808080" stop-opacity="0.25"/>
<stop offset="0.54" stop-color="#808080" stop-opacity="0.12"/>
<stop offset="1" stop-color="#808080" stop-opacity="0.1"/>
</linearGradient>
<linearGradient id="paint5_linear_2491_2095" x1="8768.9" y1="5014.19" x2="8768.9" y2="4051.7" gradientUnits="userSpaceOnUse">
<stop stop-color="#808080" stop-opacity="0.25"/>
<stop offset="0.54" stop-color="#808080" stop-opacity="0.12"/>
<stop offset="1" stop-color="#808080" stop-opacity="0.1"/>
</linearGradient>
<linearGradient id="paint6_linear_2491_2095" x1="43404.9" y1="11242.1" x2="43404.9" y2="4441.91" gradientUnits="userSpaceOnUse">
<stop stop-color="#808080" stop-opacity="0.25"/>
<stop offset="0.54" stop-color="#808080" stop-opacity="0.12"/>
<stop offset="1" stop-color="#808080" stop-opacity="0.1"/>
</linearGradient>
</defs>
</svg>
