<svg width="52" height="41" viewBox="0 0 52 41" fill="none" xmlns="http://www.w3.org/2000/svg">
<path d="M5.41921 35.8902C2.54379 32.8362 1 29.4108 1 23.8582C1 14.0873 7.85912 5.32987 17.8337 1L20.3267 4.84692C11.0165 9.88308 9.19633 16.4184 8.4705 20.5389C9.96962 19.7628 11.9322 19.492 13.8556 19.6707C18.8918 20.1369 22.8615 24.2713 22.8615 29.4108C22.8615 32.0022 21.8321 34.4874 19.9997 36.3198C18.1673 38.1522 15.6821 39.1816 13.0907 39.1816C11.6576 39.1691 10.2414 38.8717 8.92432 38.3066C7.60728 37.7415 6.4158 36.9201 5.41921 35.8902ZM33.3359 35.8902C30.4605 32.8362 28.9167 29.4108 28.9167 23.8582C28.9167 14.0873 35.7758 5.32987 45.7504 1L48.2434 4.84692C38.9332 9.88308 37.113 16.4184 36.3872 20.5389C37.8863 19.7628 39.8488 19.492 41.7723 19.6707C46.8085 20.1369 50.7782 24.2713 50.7782 29.4108C50.7782 32.0022 49.7488 34.4874 47.9164 36.3198C46.084 38.1522 43.5988 39.1816 41.0074 39.1816C39.5743 39.1691 38.158 38.8717 36.841 38.3066C35.5239 37.7415 34.3325 36.9201 33.3359 35.8902Z" fill="#F16119"/>
</svg>
