<svg width="524" height="508" viewBox="0 0 524 508" fill="none" xmlns="http://www.w3.org/2000/svg">
<g clip-path="url(#clip0_2676_10163)">
<path d="M478.064 506.835V456.022C478.064 456.022 497.867 492.046 478.064 506.835Z" fill="#F1F1F1"/>
<path d="M479.287 506.826L441.855 472.463C441.855 472.463 481.784 482.238 479.287 506.826Z" fill="#F1F1F1"/>
<path d="M347.263 224.862L148.631 340.956C147.936 341.361 147.108 341.474 146.33 341.27C145.551 341.066 144.886 340.561 144.479 339.867L16.7455 121.319C16.3403 120.624 16.2273 119.797 16.4314 119.018C16.6356 118.24 17.1401 117.574 17.8344 117.167L216.466 1.07399C217.162 0.668729 217.989 0.555778 218.768 0.759915C219.546 0.964052 220.212 1.46861 220.618 2.16289L348.352 220.71C348.757 221.406 348.87 222.233 348.666 223.012C348.462 223.79 347.957 224.456 347.263 224.862Z" fill="white"/>
<path d="M347.263 224.862L148.631 340.956C147.936 341.361 147.108 341.474 146.33 341.27C145.551 341.066 144.886 340.561 144.479 339.867L16.7455 121.319C16.3403 120.624 16.2273 119.797 16.4314 119.018C16.6356 118.24 17.1401 117.574 17.8344 117.167L216.466 1.07399C217.162 0.668729 217.989 0.555778 218.768 0.759915C219.546 0.964052 220.212 1.46861 220.618 2.16289L348.352 220.71C348.757 221.406 348.87 222.233 348.666 223.012C348.462 223.79 347.957 224.456 347.263 224.862ZM18.4471 118.215C18.0305 118.46 17.7277 118.859 17.6052 119.326C17.4828 119.793 17.5505 120.29 17.7937 120.707L145.527 339.254C145.771 339.671 146.17 339.974 146.638 340.096C147.105 340.219 147.601 340.151 148.018 339.908L346.65 223.814C347.067 223.57 347.37 223.171 347.492 222.704C347.615 222.237 347.547 221.74 347.304 221.323L219.57 2.77549C219.326 2.3589 218.927 2.05615 218.46 1.93366C217.993 1.81118 217.496 1.87896 217.079 2.12214L18.4471 118.215Z" fill="#3F3D56"/>
<path d="M146.13 139.98L96.865 168.773C96.1698 169.179 95.3422 169.291 94.5638 169.087C93.7854 168.883 93.1198 168.379 92.7129 167.684L63.9193 118.419C63.5141 117.724 63.4011 116.897 63.6053 116.118C63.8094 115.34 64.314 114.674 65.0082 114.267L114.273 85.4738C114.968 85.0685 115.796 84.9556 116.574 85.1597C117.353 85.3638 118.018 85.8684 118.425 86.5627L147.219 135.828C147.624 136.523 147.737 137.35 147.533 138.129C147.329 138.907 146.824 139.573 146.13 139.98ZM65.6209 115.316C65.2043 115.56 64.9015 115.959 64.7791 116.426C64.6566 116.893 64.7244 117.39 64.9675 117.807L93.7611 167.072C94.0052 167.488 94.4046 167.791 94.8717 167.914C95.3387 168.036 95.8352 167.968 96.2524 167.725L145.517 138.931C145.934 138.687 146.237 138.288 146.359 137.821C146.482 137.354 146.414 136.857 146.171 136.44L117.377 87.1753C117.133 86.7587 116.734 86.456 116.267 86.3335C115.799 86.211 115.303 86.2788 114.886 86.522L65.6209 115.316Z" fill="#F2F2F2"/>
<path d="M135.501 154.277L86.2366 183.071C85.6109 183.435 84.8661 183.537 84.1655 183.353C83.465 183.17 82.8659 182.715 82.4997 182.091L53.7061 132.826C53.3414 132.2 53.2397 131.455 53.4235 130.755C53.6072 130.054 54.0613 129.455 54.6861 129.089L103.951 100.295C104.577 99.9304 105.322 99.8288 106.022 100.013C106.723 100.196 107.322 100.65 107.688 101.275L136.481 150.54C136.846 151.166 136.948 151.911 136.764 152.611C136.58 153.312 136.126 153.911 135.501 154.277Z" fill="#FF5E0E"/>
<path d="M254.411 117.123L100.327 207.179C99.7014 207.545 98.9563 207.647 98.2555 207.463C97.5547 207.279 96.9557 206.825 96.5901 206.199C96.2245 205.574 96.1224 204.828 96.3062 204.128C96.49 203.427 96.9446 202.828 97.5701 202.462L251.654 112.406C251.964 112.225 252.306 112.106 252.661 112.058C253.017 112.009 253.378 112.031 253.725 112.122C254.072 112.213 254.398 112.371 254.684 112.588C254.97 112.805 255.21 113.076 255.391 113.386C255.572 113.695 255.69 114.038 255.739 114.393C255.788 114.749 255.766 115.11 255.675 115.457C255.584 115.804 255.425 116.13 255.208 116.415C254.992 116.701 254.721 116.941 254.411 117.123Z" fill="#CCCCCC"/>
<path d="M226.696 155.118L109.823 223.426C109.513 223.607 109.171 223.725 108.816 223.774C108.46 223.823 108.099 223.801 107.752 223.71C107.051 223.526 106.452 223.072 106.086 222.446C105.721 221.821 105.618 221.075 105.802 220.375C105.986 219.674 106.441 219.075 107.066 218.709L223.939 150.401C224.249 150.22 224.591 150.102 224.947 150.053C225.302 150.004 225.664 150.026 226.011 150.117C226.358 150.208 226.683 150.367 226.969 150.583C227.255 150.8 227.495 151.071 227.676 151.381C227.857 151.691 227.975 152.033 228.024 152.388C228.073 152.744 228.051 153.105 227.96 153.452C227.869 153.799 227.711 154.125 227.494 154.411C227.277 154.697 227.006 154.937 226.696 155.118Z" fill="#CCCCCC"/>
<path d="M218.967 57.6818L150.835 97.5028C150.209 97.8683 149.464 97.9705 148.763 97.7867C148.063 97.6029 147.463 97.1483 147.098 96.5228C146.732 95.8973 146.63 95.1522 146.814 94.4514C146.998 93.7506 147.452 93.1515 148.078 92.7859L216.21 52.965C216.836 52.5994 217.581 52.4973 218.282 52.6811C218.629 52.7721 218.954 52.9305 219.24 53.1474C219.526 53.3643 219.766 53.6353 219.947 53.945C220.128 54.2547 220.246 54.597 220.295 54.9525C220.344 55.3079 220.322 55.6694 220.231 56.0164C220.14 56.3634 219.982 56.6891 219.765 56.9748C219.548 57.2606 219.277 57.5008 218.967 57.6818Z" fill="#CCCCCC"/>
<path d="M211.46 83.8668L160.331 113.75C160.021 113.931 159.679 114.049 159.323 114.098C158.968 114.146 158.606 114.125 158.259 114.034C157.912 113.943 157.587 113.784 157.301 113.567C157.015 113.35 156.775 113.079 156.594 112.77C156.413 112.46 156.295 112.118 156.246 111.762C156.197 111.407 156.219 111.045 156.31 110.698C156.401 110.351 156.56 110.026 156.776 109.74C156.993 109.454 157.264 109.214 157.574 109.033L208.703 79.1499C209.328 78.7843 210.073 78.6822 210.774 78.866C211.475 79.0498 212.074 79.5044 212.44 80.1299C212.805 80.7554 212.907 81.5005 212.724 82.2013C212.54 82.9021 212.085 83.5012 211.46 83.8668Z" fill="#CCCCCC"/>
<path d="M273.403 149.617L119.319 239.673C118.694 240.039 117.949 240.141 117.248 239.957C116.547 239.773 115.948 239.319 115.582 238.693C115.217 238.068 115.115 237.323 115.298 236.622C115.482 235.921 115.937 235.322 116.562 234.956L270.646 144.9C271.272 144.534 272.017 144.432 272.718 144.616C273.418 144.8 274.017 145.254 274.383 145.88C274.749 146.505 274.851 147.25 274.667 147.951C274.483 148.652 274.029 149.251 273.403 149.617Z" fill="#CCCCCC"/>
<path d="M245.686 187.611L128.813 255.92C128.504 256.101 128.161 256.219 127.806 256.268C127.45 256.316 127.089 256.295 126.742 256.204C126.395 256.113 126.069 255.954 125.783 255.737C125.498 255.52 125.257 255.249 125.076 254.94C124.895 254.63 124.777 254.288 124.728 253.932C124.68 253.577 124.701 253.215 124.792 252.868C124.883 252.521 125.042 252.196 125.259 251.91C125.476 251.624 125.747 251.384 126.056 251.203L242.93 182.895C243.239 182.714 243.582 182.595 243.937 182.547C244.292 182.498 244.654 182.52 245.001 182.611C245.348 182.702 245.674 182.86 245.959 183.077C246.245 183.294 246.485 183.565 246.666 183.875C246.847 184.184 246.966 184.527 247.014 184.882C247.063 185.238 247.041 185.599 246.95 185.946C246.859 186.293 246.701 186.619 246.484 186.904C246.267 187.19 245.996 187.43 245.686 187.611Z" fill="#CCCCCC"/>
<path d="M292.395 182.11L138.311 272.167C138.002 272.348 137.659 272.466 137.304 272.515C136.948 272.564 136.587 272.542 136.24 272.451C135.893 272.36 135.567 272.201 135.281 271.984C134.996 271.768 134.755 271.497 134.574 271.187C134.393 270.877 134.275 270.535 134.226 270.179C134.178 269.824 134.2 269.462 134.291 269.115C134.382 268.768 134.54 268.443 134.757 268.157C134.974 267.871 135.245 267.631 135.554 267.45L289.638 177.393C289.948 177.212 290.29 177.094 290.646 177.045C291.001 176.997 291.363 177.018 291.71 177.109C292.057 177.201 292.382 177.359 292.668 177.576C292.954 177.793 293.194 178.064 293.375 178.373C293.556 178.683 293.674 179.025 293.723 179.381C293.772 179.736 293.75 180.098 293.659 180.445C293.568 180.792 293.41 181.117 293.193 181.403C292.976 181.689 292.705 181.929 292.395 182.11Z" fill="#CCCCCC"/>
<path d="M301.889 198.358L147.805 288.414C147.496 288.595 147.153 288.713 146.798 288.762C146.443 288.811 146.081 288.789 145.734 288.698C145.387 288.607 145.061 288.449 144.776 288.232C144.49 288.015 144.25 287.744 144.069 287.434C143.888 287.124 143.769 286.782 143.721 286.427C143.672 286.071 143.694 285.71 143.785 285.363C143.876 285.016 144.034 284.69 144.251 284.404C144.468 284.118 144.739 283.878 145.049 283.697L299.132 193.641C299.442 193.46 299.785 193.341 300.14 193.293C300.495 193.244 300.857 193.266 301.204 193.357C301.551 193.448 301.877 193.606 302.162 193.823C302.448 194.04 302.688 194.311 302.869 194.621C303.05 194.93 303.169 195.273 303.217 195.628C303.266 195.984 303.244 196.345 303.153 196.692C303.062 197.039 302.904 197.365 302.687 197.651C302.47 197.936 302.199 198.177 301.889 198.358Z" fill="#CCCCCC"/>
<path d="M252.062 261.604C254.203 259.083 256.13 256.388 257.823 253.547C259.342 250.984 260.831 248.244 261.166 245.238C261.337 243.958 261.204 242.656 260.777 241.437C260.35 240.218 259.641 239.117 258.708 238.224C257.807 237.393 256.665 236.871 255.447 236.732C254.228 236.594 252.998 236.847 251.933 237.454C250.855 238.072 249.965 238.971 249.356 240.054C248.747 241.137 248.443 242.365 248.475 243.607C248.562 244.975 248.958 246.305 249.631 247.498C250.304 248.692 251.238 249.718 252.363 250.5C256.918 253.8 264.03 253.628 268.885 251.117C274.352 248.288 277.177 240.888 272.882 235.823C271.988 234.77 270.501 235.947 270.725 237.083C271.009 238.619 271.868 239.987 273.128 240.91C274.387 241.833 275.951 242.241 277.5 242.049C279.049 241.858 280.467 241.082 281.464 239.88C282.461 238.678 282.961 237.142 282.862 235.584L280.931 236.712C283.299 237.761 285.901 238.167 288.475 237.891C291.05 237.615 293.506 236.666 295.597 235.139C296.631 234.387 297.555 233.494 298.341 232.486C299.287 231.253 300.875 230.457 302.16 229.568L311.425 223.166C312.788 222.225 311.492 219.981 310.118 220.93L301.727 226.728C300.329 227.694 298.921 228.648 297.532 229.627C296.538 230.326 295.927 231.456 295.023 232.286C293.311 233.826 291.197 234.847 288.928 235.231C286.658 235.615 284.325 235.346 282.203 234.455C282.005 234.349 281.783 234.295 281.559 234.299C281.334 234.303 281.114 234.364 280.921 234.478C280.727 234.591 280.565 234.752 280.452 234.946C280.338 235.139 280.276 235.359 280.272 235.583C280.374 236.513 280.105 237.446 279.523 238.178C278.941 238.91 278.093 239.382 277.164 239.492C276.235 239.602 275.301 239.341 274.564 238.765C273.827 238.189 273.347 237.345 273.229 236.418L271.073 237.678C273.844 240.946 271.999 245.958 268.806 248.15C265.236 250.602 259.961 251.028 255.936 249.504C254.949 249.164 254.042 248.624 253.273 247.918C252.504 247.213 251.888 246.356 251.465 245.401C251.073 244.539 250.961 243.576 251.145 242.647C251.329 241.718 251.801 240.87 252.492 240.223C253.091 239.631 253.897 239.295 254.74 239.286C255.582 239.277 256.395 239.595 257.007 240.174C257.673 240.855 258.162 241.688 258.43 242.602C258.699 243.516 258.738 244.481 258.545 245.414C258.13 248.009 256.696 250.402 255.361 252.619C253.837 255.144 252.114 257.544 250.208 259.795C249.139 261.06 250.983 262.882 252.062 261.604Z" fill="#307457"/>
<path d="M275.06 323.193C275.283 323.423 275.488 323.67 275.673 323.931L304.365 323.229L307.712 317.113L317.604 320.958L312.73 332.362C312.337 333.283 311.655 334.052 310.787 334.553C309.919 335.053 308.912 335.259 307.918 335.139L275.5 331.223C274.736 332.191 273.694 332.903 272.515 333.265C271.336 333.627 270.074 333.621 268.898 333.248C267.722 332.876 266.687 332.154 265.932 331.179C265.176 330.204 264.735 329.022 264.667 327.79C264.6 326.558 264.909 325.335 265.553 324.283C266.198 323.231 267.148 322.401 268.276 321.902C269.404 321.403 270.657 321.259 271.869 321.49C273.081 321.72 274.194 322.314 275.06 323.193Z" fill="#FFB7B7"/>
<path d="M368.592 497.446H359.158L354.67 461.056L368.594 461.056L368.592 497.446Z" fill="#FFB7B7"/>
<path d="M371 506.591L340.58 506.59V506.205C340.58 503.065 341.828 500.053 344.048 497.833C346.269 495.612 349.28 494.365 352.42 494.365H352.421L371.001 494.365L371 506.591Z" fill="#2F2E41"/>
<path d="M282.927 497.236L274.252 493.529L284.419 458.302L297.224 463.772L282.927 497.236Z" fill="#FFB7B7"/>
<path d="M281.547 506.591L253.572 494.64L253.723 494.286C254.957 491.399 257.287 489.119 260.202 487.95C263.116 486.78 266.375 486.816 269.263 488.049L269.264 488.049L286.349 495.349L281.547 506.591Z" fill="#2F2E41"/>
<path d="M322.735 331.076L322.053 342.131L341.995 344.265L362.861 346.498L356.719 329.711L322.735 331.076Z" fill="#FFB7B7"/>
<path d="M321.427 342.273L313.68 288.267L327.107 283.866L331.051 278.457L350.243 279.593L353.061 285.905L363.294 290.74L361.722 319.948L362.869 344.381L321.427 342.273Z" fill="#2F2E41"/>
<path d="M316.551 327.801L302.893 322.336L302.951 322.093C303.009 321.848 308.822 297.556 309.594 293.652C310.398 289.585 313.336 288.461 313.461 288.415L313.552 288.382L318.957 290.027L321.331 308.679L316.551 327.801Z" fill="#2F2E41"/>
<path d="M289.953 490.84L271.771 487.111L300.83 406.928L310.775 379.579C310.775 379.579 317.083 357.65 319.933 349.164L321.653 337.778L362.366 342.284C362.366 342.284 373.737 358.984 370.283 386.203L371.845 488.51L353.664 489.442L338.435 386.261L311.708 442.824C311.708 442.824 303.283 466.961 297.256 472.193L289.953 490.84Z" fill="#2F2E41"/>
<path d="M346.038 346.081C346.359 346.074 346.679 346.091 346.996 346.134L365.99 324.617L363.78 318.003L373.325 313.365L378.374 324.692C378.782 325.607 378.882 326.63 378.659 327.607C378.436 328.583 377.903 329.461 377.138 330.109L352.226 351.218C352.416 352.437 352.23 353.685 351.694 354.796C351.157 355.907 350.295 356.828 349.222 357.437C348.149 358.046 346.917 358.314 345.688 358.205C344.459 358.096 343.292 357.616 342.343 356.828C341.394 356.04 340.707 354.982 340.374 353.794C340.041 352.606 340.077 351.345 340.479 350.178C340.88 349.012 341.627 347.995 342.62 347.263C343.613 346.531 344.805 346.119 346.038 346.081Z" fill="#FFB7B7"/>
<path d="M364.474 326.711L356.551 308.074L359.641 295.092L362.971 290.886C363.214 290.781 363.477 290.729 363.742 290.731C364.008 290.734 364.27 290.791 364.511 290.9C365.739 291.394 366.785 292.909 367.62 295.402L375.045 316.552L364.474 326.711Z" fill="#2F2E41"/>
<path d="M323.367 271.551V257.501C323.367 252.507 325.351 247.719 328.882 244.188C332.413 240.657 337.201 238.673 342.195 238.673C347.188 238.673 351.977 240.657 355.508 244.188C359.039 247.719 361.023 252.507 361.023 257.501V271.551C361.022 272.222 360.755 272.865 360.281 273.339C359.807 273.813 359.164 274.08 358.493 274.08H325.896C325.226 274.08 324.583 273.813 324.109 273.339C323.635 272.865 323.368 272.222 323.367 271.551Z" fill="#2F2E41"/>
<path d="M338.327 273.753C345.951 273.753 352.131 267.573 352.131 259.95C352.131 252.326 345.951 246.146 338.327 246.146C330.704 246.146 324.523 252.326 324.523 259.95C324.523 267.573 330.704 273.753 338.327 273.753Z" fill="#FFB7B7"/>
<path d="M318.914 258.625C318.919 254.676 320.489 250.891 323.281 248.099C326.073 245.307 329.859 243.736 333.808 243.732H336.618C340.567 243.736 344.352 245.307 347.144 248.099C349.936 250.891 351.507 254.676 351.511 258.625V258.906H345.573L343.547 253.234L343.142 258.906H340.073L339.051 256.044L338.846 258.906H318.914L318.914 258.625Z" fill="#2F2E41"/>
<path d="M336.97 275.661C336.691 275.283 336.524 274.834 336.489 274.366C336.454 273.898 336.552 273.43 336.772 273.015C339.75 267.351 343.919 256.885 338.385 250.431L337.987 249.967H354.054V274.089L339.458 276.664C339.311 276.69 339.161 276.703 339.011 276.703C338.612 276.703 338.22 276.609 337.865 276.427C337.51 276.246 337.203 275.983 336.97 275.661Z" fill="#2F2E41"/>
<path d="M149.547 489.497L158.073 492.544L173.883 461.108L161.3 456.611L149.547 489.497Z" fill="#9F616A"/>
<path d="M144.418 496.984L148.367 485.936L165.158 491.937C167.994 492.954 170.31 495.054 171.599 497.777C172.889 500.5 173.045 503.624 172.034 506.462L171.91 506.809L144.418 496.984Z" fill="#2F2E41"/>
<path d="M204.99 497.93L214.044 497.929L218.352 463.006L204.988 463.007L204.99 497.93Z" fill="#9F616A"/>
<path d="M202.68 494.974L220.511 494.973H220.511C222.004 494.973 223.481 495.267 224.86 495.838C226.239 496.409 227.491 497.246 228.547 498.301C229.602 499.357 230.439 500.609 231.01 501.988C231.581 503.367 231.875 504.844 231.875 506.337V506.706L202.68 506.707L202.68 494.974Z" fill="#2F2E41"/>
<path d="M184.355 274.812L188.293 267.031C188.293 267.031 202.962 270.706 204.296 279.208L184.355 274.812Z" fill="#F1F1F1"/>
<path d="M168.108 363.779L178.816 423.536L150.383 473.82L167.369 480.467L196.172 431.724L199.865 418.43L202.08 487.853L217.4 487.388L224.423 422.564L213.158 362.302L168.108 363.779Z" fill="#2F2E41"/>
<path d="M188.435 377.905C172.703 377.905 162.715 374.896 162.491 374.849L162.129 374.772L170.323 336.781L170.692 301.738C170.692 286.888 180.466 275.94 181.822 274.929C182.05 274.028 182.473 273.187 183.059 272.466C183.646 271.745 184.384 271.16 185.22 270.754C188.48 269.274 192.464 271.049 192.631 271.126L204.589 275.609L204.645 275.775C204.789 276.2 220.539 327.903 220.539 327.903C220.539 327.903 219.585 373.079 219.253 374.559C219.253 374.559 197.176 377.905 188.435 377.905Z" fill="#3F3D56"/>
<path d="M200.523 264.581C209.448 264.581 216.684 257.345 216.684 248.42C216.684 239.494 209.448 232.258 200.523 232.258C191.597 232.258 184.361 239.494 184.361 248.42C184.361 257.345 191.597 264.581 200.523 264.581Z" fill="#9F616A"/>
<path opacity="0.2" d="M182.504 304.604L210.778 344.053L214.953 325.631L182.504 304.604Z" fill="black"/>
<path d="M271.148 331.446C270.353 332.075 269.429 332.522 268.443 332.755C267.456 332.989 266.43 333.003 265.437 332.797C264.445 332.592 263.509 332.171 262.696 331.564C261.884 330.958 261.214 330.18 260.735 329.287L236.398 333.182L241.671 321.51L263.973 319.601C265.527 318.895 267.286 318.783 268.917 319.287C270.548 319.791 271.937 320.876 272.821 322.336C273.706 323.796 274.024 325.53 273.716 327.209C273.407 328.888 272.494 330.395 271.148 331.446Z" fill="#9F616A"/>
<path d="M242.924 320.846L251.668 319.989L254.091 332.187L243.088 332.381L242.924 320.846Z" fill="#F1F1F1"/>
<path d="M250.092 336.437L207.266 332.624L185.642 298.233L185.576 297.929C184.962 295.12 185.392 292.183 186.784 289.667C188.177 287.152 190.438 285.229 193.145 284.258C195.852 283.287 198.819 283.335 201.494 284.392C204.168 285.448 206.366 287.443 207.678 290.002L220.372 314.762L245.991 318.635L250.092 336.437Z" fill="#3F3D56"/>
<path d="M186.757 262.451L200.171 262.933C200.989 262.962 203.208 254.138 203.498 252.307C203.728 251.116 204.383 250.048 205.342 249.304C206.301 248.561 207.498 248.191 208.71 248.266C209.714 248.36 212.246 246.485 214.859 244.263C219.819 240.046 219.561 232.126 214.112 228.562C213.963 228.465 213.817 228.376 213.674 228.295C210.236 226.371 206.215 225.725 202.276 225.676C198.705 225.631 195.033 226.081 191.887 227.771C186.247 230.801 183.246 237.422 182.982 243.819C182.718 250.216 184.769 256.471 187.096 262.435" fill="#2F2E41"/>
<path d="M523.018 507.34H0.702413C0.516121 507.34 0.337459 507.266 0.205731 507.135C0.0740035 507.003 0 506.824 0 506.638C0 506.452 0.0740035 506.273 0.205731 506.141C0.337459 506.01 0.516121 505.936 0.702413 505.936H523.298C523.484 505.936 523.663 506.01 523.794 506.141C523.926 506.273 524 506.452 524 506.638C524 507.026 523.406 507.34 523.018 507.34Z" fill="#CBCBCB"/>
</g>
<defs>
<clipPath id="clip0_2676_10163">
<rect width="524" height="506.681" fill="white" transform="translate(0 0.659637)"/>
</clipPath>
</defs>
</svg>
