<svg width="37" height="37" viewBox="0 0 37 37" fill="none" xmlns="http://www.w3.org/2000/svg">
<path d="M16.4931 0.782549C16.4776 0.790173 15.84 0.805421 15.0703 0.805421C13.9195 0.813045 13.6163 0.835917 13.2975 0.950278C12.2867 1.31623 11.7347 1.52971 11.6258 1.59832C11.4315 1.72031 10.7628 2.01765 10.6695 2.01765C10.6228 2.01765 10.5295 2.06339 10.4673 2.12438C10.3974 2.17775 10.1019 2.26162 9.79867 2.30736C9.3788 2.37598 9.21552 2.43697 9.08335 2.58183C8.99004 2.68856 8.72568 2.86392 8.5002 2.97065C8.27472 3.06977 8.01814 3.19937 7.93261 3.25274C7.84708 3.30611 7.58272 3.47384 7.33392 3.62632C7.09288 3.7788 6.65747 4.15238 6.36201 4.45734C6.07433 4.76231 5.74777 5.08252 5.63891 5.174C5.53784 5.25787 5.35901 5.43322 5.25015 5.55521C5.1413 5.67719 4.97024 5.84492 4.86917 5.93641C4.20827 6.50821 3.18194 7.68232 3.11196 7.94916C3.06531 8.14739 2.73875 8.70394 2.24891 9.4511C2.10896 9.65695 1.97678 9.91617 1.94568 10.0229C1.92235 10.1296 1.82127 10.3812 1.73574 10.5947C1.35476 11.4791 1.26923 11.6697 1.19925 11.7917C1.16038 11.8679 1.12928 11.9823 1.12928 12.0509C1.12928 12.1271 1.02042 12.4016 0.896019 12.6685C0.662761 13.1411 0.429504 14.0332 0.429504 14.4144C0.429504 14.5211 0.375078 14.7117 0.3051 14.8337C0.149596 15.131 -0.0758863 17.6241 0.0251919 17.9748C0.0640681 18.112 0.0796185 18.4246 0.0562928 18.6762C0.0407423 18.943 0.0796185 19.3471 0.149596 19.6521C0.219573 19.9418 0.274 20.2849 0.274 20.4145C0.274 20.5517 0.343977 21.0015 0.43728 21.4209C0.522807 21.8402 0.608335 22.2824 0.623885 22.412C0.631661 22.534 0.654986 22.6941 0.678312 22.7551C0.701638 22.8161 0.771615 23.0448 0.841592 23.2583C0.919344 23.4794 0.973771 23.7081 0.973771 23.7691C0.973771 23.8301 1.0593 24.0588 1.16815 24.2723C1.27701 24.4781 1.37031 24.7831 1.37808 24.9432C1.38586 25.1033 1.43251 25.2634 1.47916 25.3091C1.53359 25.3473 1.66577 25.6217 1.7824 25.9114C2.00788 26.468 2.11673 26.6357 2.5988 27.1389C2.97201 27.5354 3.22859 27.8937 3.22859 28.0309C3.22859 28.0919 3.33744 28.2368 3.46962 28.3664C3.6018 28.4884 3.86616 28.8086 4.04499 29.083C4.2316 29.3575 4.62813 29.8302 4.93137 30.1428C5.2346 30.4554 5.48341 30.7527 5.48341 30.8061C5.48341 30.8594 5.55339 30.9281 5.64669 30.9509C5.73222 30.9814 5.8333 31.0805 5.87217 31.1797C5.91105 31.2788 6.051 31.416 6.17541 31.477C6.46309 31.6295 6.75855 31.8963 6.82853 32.0717C6.85185 32.1479 6.95293 32.2089 7.04623 32.2089C7.13954 32.2089 7.22506 32.2699 7.24839 32.3614C7.27949 32.4681 7.35724 32.5139 7.51275 32.5139C7.62938 32.5139 7.746 32.5444 7.77711 32.5825C7.80043 32.6206 8.05701 32.7655 8.36025 32.8951C8.65571 33.0323 8.91229 33.1848 8.93562 33.2382C8.95117 33.2915 9.08335 33.3525 9.21552 33.383C9.37103 33.4135 9.47988 33.4821 9.50321 33.5812C9.53431 33.688 9.61206 33.7337 9.75979 33.7337C9.88419 33.7337 10.0319 33.7795 10.0941 33.8405C10.1563 33.9014 10.3274 33.9777 10.4829 34.0006C10.6384 34.0311 10.8483 34.1225 10.9416 34.2064C11.0427 34.2903 11.2138 34.3741 11.3382 34.397C11.4548 34.4199 11.6181 34.519 11.6958 34.6181C11.7736 34.7172 11.9135 34.8011 11.9991 34.8011C12.0924 34.8011 12.1779 34.8316 12.209 34.8697C12.2323 34.9078 12.3645 34.9688 12.5045 34.9917C12.9399 35.0908 14.1528 35.5101 14.1761 35.5711C14.1917 35.6092 14.3005 35.6397 14.4249 35.6397C14.5416 35.6397 14.7748 35.6855 14.9459 35.7465C15.1169 35.8075 15.3424 35.838 15.4513 35.8151C15.5679 35.7922 15.8945 35.8303 16.1899 35.8913C16.8042 36.0286 17.3873 36.0743 17.5117 35.9981C17.5661 35.9676 17.6905 35.9599 17.7994 35.9904C17.9082 36.0133 18.0404 36.0057 18.0948 35.9752C18.1493 35.9371 18.5303 35.8989 18.9346 35.8913C20.3885 35.8608 20.8084 35.7846 21.6093 35.3958C21.687 35.35 21.9825 35.289 22.2546 35.2509C22.5267 35.2128 22.83 35.1365 22.9233 35.0756C23.0166 35.0222 23.2887 34.9154 23.522 34.8392C23.9652 34.702 24.1673 34.6257 24.5716 34.458C25.007 34.2826 25.3491 34.1988 25.598 34.2064C25.8934 34.214 26.2122 34.0311 26.2822 33.81C26.3055 33.7261 26.391 33.6575 26.461 33.6575C26.531 33.6575 26.6943 33.5736 26.8187 33.4669C26.9508 33.3601 27.2619 33.1695 27.5184 33.0399C27.775 32.9103 28.1405 32.6968 28.3271 32.5672C28.5137 32.43 28.8325 32.2318 29.0268 32.125C29.3767 31.9268 29.5167 31.8277 30.6052 30.9967C31.3672 30.4173 32.6579 29.1898 32.8756 28.8391C32.9689 28.6942 33.2332 28.3359 33.4587 28.0462C33.6842 27.7565 33.8864 27.4362 33.9175 27.3295C33.9408 27.2228 34.0652 26.9712 34.1896 26.7653C34.3218 26.5595 34.4773 26.2469 34.5395 26.0792C34.6095 25.9038 34.7105 25.698 34.7727 25.6141C34.8272 25.5302 34.8738 25.3396 34.8738 25.1872C34.8738 25.0347 34.936 24.8288 35.0138 24.7297C35.0915 24.6306 35.2004 24.3714 35.2548 24.1655C35.3092 23.9521 35.4025 23.6776 35.4647 23.5556C35.5269 23.426 35.6902 22.9152 35.8224 22.412C36.1101 21.3675 36.1645 20.2315 35.9701 19.6521C35.8846 19.4005 35.8846 19.2633 35.9546 18.9888C36.0557 18.5923 36.0634 17.3496 35.9701 16.9532C35.9312 16.8007 35.9312 16.6253 35.9701 16.572C36.0012 16.511 35.9779 16.2441 35.9157 15.9773C35.8535 15.7104 35.8146 15.4436 35.8379 15.3902C35.8613 15.3369 35.8457 15.2683 35.8068 15.2454C35.768 15.2225 35.7135 15.0395 35.6902 14.8413C35.6669 14.6431 35.6125 14.422 35.5658 14.3457C35.5269 14.2771 35.4725 14.056 35.4414 13.8731C35.4025 13.5605 35.3792 13.53 35.177 13.53C35.0449 13.53 34.9516 13.4842 34.9205 13.3927C34.8971 13.3241 34.8971 13.4614 34.9205 13.7129C34.936 13.9569 34.9904 14.2161 35.0293 14.2848C35.0682 14.3534 35.1226 14.7193 35.1459 15.1005C35.177 15.4741 35.247 15.8934 35.3092 16.023C35.387 16.1831 35.4103 16.3737 35.3714 16.5415C35.3248 16.7931 35.2781 17.586 35.2393 18.8668C35.2315 19.1413 35.247 19.3929 35.2704 19.4386C35.3948 19.6368 35.3948 19.8656 35.2704 20.0257C35.0604 20.2925 34.8194 20.7881 34.7572 21.0778C34.7261 21.2226 34.6328 21.4819 34.5628 21.6496C34.3451 22.1375 34.244 22.4501 34.1041 23.06C33.8864 23.9749 33.692 24.6153 33.5909 24.7373C33.5365 24.7983 33.381 25.0652 33.241 25.332C33.1011 25.5989 32.8678 25.9038 32.7201 26.0182C32.5723 26.1325 32.3469 26.4299 32.2147 26.6815C32.0903 26.9331 31.8337 27.3295 31.6549 27.5582C31.476 27.787 31.2817 28.0919 31.2272 28.2215C31.1261 28.4579 30.8696 28.7171 30.2864 29.1593C29.8977 29.4642 29.8743 29.4871 29.6333 29.8226C29.3378 30.2495 28.2338 31.3474 28.0394 31.4084C27.9461 31.4313 27.8761 31.4846 27.8761 31.5151C27.8761 31.5532 27.7128 31.6371 27.5107 31.7133C27.3007 31.7896 26.842 31.9954 26.4766 32.1784C26.1111 32.3614 25.6213 32.5825 25.388 32.6663C25.1548 32.7578 24.766 32.9179 24.5405 33.0247C24.3073 33.1314 23.6386 33.3373 23.0632 33.4821C22.2002 33.688 21.757 33.7566 20.6451 33.8176C19.8987 33.8633 19.059 33.9472 18.7946 34.0082C18.3592 34.0997 18.2037 34.0997 17.5895 34.0006C17.1929 33.9396 16.6331 33.8481 16.3299 33.8023C16.0344 33.7566 15.6301 33.688 15.4357 33.6422C15.2413 33.6041 14.9614 33.5507 14.8137 33.5355C13.2586 33.3525 13.2198 33.3449 12.5433 33.0018C12.1701 32.8188 11.8047 32.6663 11.7192 32.6663C11.4937 32.6663 10.2341 31.9649 10.1797 31.8048C10.1563 31.721 10.0553 31.6752 9.89197 31.6752C9.61984 31.6676 9.29328 31.4465 9.29328 31.2711C9.29328 31.0501 9.19997 30.9128 9.04447 30.9128C8.95894 30.9128 8.74123 30.8061 8.55463 30.6841C8.36802 30.5545 8.18142 30.463 8.15032 30.4706C8.08034 30.4859 7.76155 30.3105 7.22506 29.9751C6.85963 29.7387 6.18318 29.144 6.18318 29.0525C6.18318 28.9382 5.77109 28.4731 5.66224 28.4731C5.60781 28.4731 5.46786 28.4198 5.36678 28.3511C5.21905 28.2596 5.18795 28.1834 5.21905 28.0233C5.25793 27.8632 5.21128 27.7565 5.06355 27.5964C4.95469 27.482 4.86139 27.3371 4.86139 27.2838C4.86139 27.2228 4.79141 27.177 4.70589 27.177C4.49595 27.177 4.28602 26.8492 4.34822 26.6052C4.3871 26.4451 4.36378 26.4146 4.14607 26.3536C3.91281 26.2926 3.88949 26.2621 3.88949 26.0029C3.88949 25.8123 3.84283 25.6827 3.74176 25.6065C3.60958 25.515 3.6018 25.4769 3.68733 25.3015C3.75731 25.149 3.75731 25.0728 3.68733 24.9965C3.57848 24.8669 3.71843 24.6611 3.90504 24.6611C3.99056 24.6611 4.00611 24.6077 3.97501 24.4781C3.94391 24.3638 3.99834 24.135 4.12274 23.8682C4.2316 23.6318 4.31712 23.3421 4.31712 23.2278C4.31712 23.1058 4.356 22.9762 4.39488 22.9381C4.48818 22.8466 4.20827 22.2366 4.01389 22.0994C3.91281 22.0155 3.90504 21.985 4.00611 21.8097C4.09942 21.6267 4.09942 21.5886 3.95169 21.398C3.86616 21.2836 3.71843 21.1845 3.6329 21.1693C3.5396 21.154 3.42297 21.0854 3.36854 21.0092C3.31412 20.9329 3.18971 20.8338 3.09641 20.7804C2.99533 20.7347 2.91758 20.6432 2.91758 20.5822C2.91758 20.5212 2.8476 20.4069 2.76208 20.3306C2.57547 20.1629 2.29556 19.4844 2.29556 19.2175C2.29556 19.1032 2.24114 19.0117 2.15561 18.9888C2.0623 18.9583 2.01565 18.8668 2.02343 18.7296C2.02343 18.5923 1.969 18.5009 1.85237 18.4475C1.73574 18.4017 1.68909 18.3179 1.68909 18.1654C1.69687 18.0434 1.67354 17.929 1.65022 17.8986C1.61912 17.8757 1.63467 17.8071 1.67354 17.7613C1.72797 17.6927 1.72797 17.5936 1.67354 17.4564C1.62689 17.3344 1.57246 16.9151 1.54914 16.5186C1.51804 15.9011 1.53359 15.7714 1.66577 15.5503C1.75907 15.3902 1.79017 15.2759 1.74352 15.2301C1.69687 15.1844 1.69687 15.0777 1.75129 14.948C1.79017 14.8337 1.82905 14.6202 1.82905 14.4754C1.82905 14.2238 2.04675 13.9112 2.21781 13.9112C2.26446 13.9112 2.25669 13.8349 2.20226 13.7206C2.10896 13.5147 2.21781 13.3012 2.41997 13.3012C2.54437 13.3012 2.55992 13.2174 2.45884 13.103C2.33444 12.9658 2.28779 12.6151 2.39664 12.6151C2.45107 12.6151 2.60657 12.5007 2.74653 12.3635C2.97201 12.1348 2.98756 12.0966 2.8787 11.9594C2.71542 11.7459 2.73875 11.6316 2.95646 11.5782C3.13529 11.5325 3.15084 11.502 3.10419 11.2809C3.06531 11.0826 3.09641 10.9912 3.23637 10.8539C3.33744 10.7548 3.4152 10.5871 3.4152 10.4499C3.42297 10.2745 3.48517 10.183 3.67178 10.061C3.81173 9.97716 3.90504 9.8628 3.88949 9.80943C3.84283 9.67982 4.08387 9.2605 4.2005 9.2605C4.36378 9.2605 4.78364 8.66582 4.78364 8.44472C4.78364 8.20075 5.53006 7.28587 5.80997 7.17913C5.90327 7.14864 6.02768 7.04952 6.0821 6.97328C6.15986 6.86655 6.28426 6.8208 6.49419 6.8208C6.88295 6.8208 6.96848 6.69119 6.69635 6.47772C6.50974 6.33286 6.50197 6.30236 6.60304 6.2185C6.66525 6.16513 6.78965 6.14226 6.87518 6.17276C6.96848 6.19563 7.06178 6.17276 7.13176 6.09652C7.18619 6.0279 7.34947 5.85255 7.48942 5.70769C7.6216 5.56283 7.73823 5.3951 7.73823 5.33411C7.73823 5.27312 7.81598 5.18163 7.91706 5.13588C8.01036 5.08252 8.10367 5.02152 8.12699 4.99103C8.22029 4.86904 9.06779 4.38873 9.30883 4.32011C9.44878 4.28199 9.70536 4.16001 9.86864 4.04564C10.0319 3.93891 10.3118 3.8093 10.4907 3.75593C10.6695 3.71019 10.9883 3.57295 11.1982 3.45859C11.4159 3.34423 11.8747 3.14601 12.2245 3.0164C12.5822 2.88679 13.0176 2.71143 13.1964 2.62757C13.3753 2.54371 13.7096 2.45222 13.9429 2.42172C14.1684 2.39885 14.3705 2.34548 14.3938 2.31498C14.4172 2.27686 14.5416 2.24637 14.666 2.24637C14.7904 2.24637 14.977 2.20062 15.0703 2.13963C15.1636 2.07864 15.5057 1.99477 15.8245 1.94141C16.1433 1.89566 16.602 1.78892 16.8353 1.70506C17.6983 1.41535 18.5303 1.3696 20.2175 1.52971C20.4741 1.55258 20.9095 1.58307 21.1894 1.59832C21.4693 1.61357 21.8192 1.65932 21.9669 1.69744C22.6278 1.88041 23.0943 2.04052 23.2421 2.13201C23.3354 2.18537 23.5919 2.24637 23.8252 2.27686C24.0585 2.29974 24.2995 2.36835 24.3695 2.42934C24.4394 2.48271 24.6183 2.55895 24.766 2.58945C24.9837 2.63519 26.1889 3.207 27.1763 3.73306C27.2852 3.78643 27.4562 3.87029 27.5651 3.91604C27.8683 4.05327 28.7391 4.66319 28.8636 4.83855C28.9258 4.92241 29.0268 4.99103 29.089 4.99103C29.1512 4.99103 29.1979 5.06727 29.1979 5.174C29.1979 5.30361 29.3067 5.43322 29.5633 5.62382C29.9599 5.91354 30.0687 5.91354 30.1931 5.63907C30.3097 5.37985 30.2553 5.28074 29.8432 4.99103C29.6489 4.85379 29.3923 4.64032 29.2679 4.52596C29.1357 4.40398 28.9491 4.30486 28.848 4.30486C28.7391 4.30486 28.4592 4.15238 28.2027 3.96178C27.7595 3.62632 27.3785 3.3976 26.7409 3.10026C26.5621 3.0164 26.391 2.90966 26.3677 2.86392C26.3366 2.81817 26.2511 2.78005 26.1733 2.78005C26.0956 2.78005 25.9712 2.71143 25.8934 2.62757C25.8157 2.54371 25.7224 2.47509 25.6757 2.47509C25.6368 2.47509 25.5124 2.4141 25.4036 2.33023C25.2869 2.25399 24.9293 2.11676 24.6105 2.02527C24.2917 1.93378 23.9574 1.82704 23.8719 1.79655C23.312 1.5602 23.0166 1.46871 22.4257 1.33148C22.0524 1.24762 21.6948 1.179 21.6248 1.179C21.5471 1.179 21.3915 1.12563 21.2671 1.06464C21.1427 1.00365 20.754 0.93503 20.3963 0.912158C20.0387 0.889285 19.3467 0.835917 18.849 0.790173C18.0404 0.721556 16.5554 0.713932 16.4931 0.782549Z" fill="#FF5E0E"/>
</svg>
