<svg width="440" height="383" viewBox="0 0 440 383" fill="none" xmlns="http://www.w3.org/2000/svg">
<g opacity="0.5">
<path opacity="0.5" d="M326.938 27.6562H125.391V300.716H326.938V27.6562Z" fill="#C3D9CF"/>
</g>
<path d="M324.374 29.668H127.955V296.693H324.374V29.668Z" fill="#F4FBF8"/>
<path d="M275.142 22.6172H177.701V45.7595H275.142V22.6172Z" fill="url(#paint0_linear_3622_12257)"/>
<path d="M226.42 0C218.897 0 212.799 6.125 212.799 13.6782C212.799 21.2313 218.897 27.3563 226.42 27.3563C233.943 27.3563 240.041 21.2313 240.041 13.6782C240.041 6.125 233.943 0 226.42 0ZM226.42 21.5682C224.82 21.6093 223.244 21.1816 221.894 20.3399C220.543 19.4982 219.479 18.2808 218.838 16.8432C218.196 15.4055 218.007 13.813 218.293 12.2692C218.579 10.7253 219.329 9.30023 220.445 8.17607C221.562 7.0519 222.995 6.2797 224.561 5.95818C226.127 5.63665 227.756 5.78039 229.238 6.37104C230.721 6.96168 231.99 7.97239 232.884 9.274C233.778 10.5756 234.256 12.109 234.256 13.6782C234.281 15.7425 233.47 17.7322 232.001 19.2112C230.532 20.6902 228.525 21.5378 226.42 21.5682Z" fill="url(#paint1_linear_3622_12257)"/>
<path d="M274.116 22.6289H178.727V44.7553H274.116V22.6289Z" fill="#0F241B"/>
<path d="M226.42 1.00391C223.783 1.00391 221.205 1.77072 219.012 3.20739C216.819 4.64406 215.11 6.68605 214.101 9.07514C213.092 11.4642 212.828 14.0931 213.342 16.6294C213.857 19.1656 215.127 21.4953 216.991 23.3238C218.856 25.1524 221.232 26.3976 223.819 26.9021C226.405 27.4066 229.086 27.1477 231.523 26.1581C233.959 25.1685 236.041 23.4927 237.507 21.3425C238.972 19.1924 239.754 16.6645 239.754 14.0786C239.754 10.611 238.349 7.28538 235.848 4.8334C233.348 2.38142 229.956 1.00391 226.42 1.00391ZM226.42 21.6217C224.898 21.6217 223.411 21.1793 222.146 20.3505C220.881 19.5216 219.895 18.3435 219.313 16.9652C218.731 15.5869 218.578 14.0702 218.875 12.607C219.172 11.1438 219.905 9.79975 220.98 8.74483C222.056 7.68991 223.427 6.9715 224.919 6.68045C226.411 6.3894 227.958 6.53878 229.364 7.1097C230.769 7.68062 231.971 8.64743 232.816 9.88789C233.661 11.1283 234.113 12.5867 234.113 14.0786C234.113 16.0792 233.302 17.9978 231.859 19.4124C230.417 20.827 228.46 21.6217 226.42 21.6217Z" fill="#0F241B"/>
<path d="M158.621 72.918H157.803C146.416 72.918 137.186 82.1489 137.186 93.5358C137.186 104.923 146.416 114.154 157.803 114.154H158.621C170.008 114.154 179.239 104.923 179.239 93.5358C179.239 82.1489 170.008 72.918 158.621 72.918Z" fill="url(#paint2_linear_3622_12257)"/>
<path d="M158.766 154.633H157.948C146.561 154.633 137.33 163.864 137.33 175.251C137.33 186.638 146.561 195.868 157.948 195.868H158.766C170.152 195.868 179.383 186.638 179.383 175.251C179.383 163.864 170.152 154.633 158.766 154.633Z" fill="url(#paint3_linear_3622_12257)"/>
<path d="M158.908 235.344H158.09C146.704 235.344 137.473 244.575 137.473 255.962C137.473 267.348 146.704 276.579 158.09 276.579H158.908C170.295 276.579 179.526 267.348 179.526 255.962C179.526 244.575 170.295 235.344 158.908 235.344Z" fill="url(#paint4_linear_3622_12257)"/>
<path d="M158.592 74.4258H157.834C147.28 74.4258 138.725 82.9812 138.725 93.5349C138.725 104.088 147.28 112.644 157.834 112.644H158.592C169.145 112.644 177.701 104.088 177.701 93.5349C177.701 82.9812 169.145 74.4258 158.592 74.4258Z" fill="#307457"/>
<path d="M158.592 155.387H157.834C147.28 155.387 138.725 163.942 138.725 174.496C138.725 185.049 147.28 193.605 157.834 193.605H158.592C169.145 193.605 177.701 185.049 177.701 174.496C177.701 163.942 169.145 155.387 158.592 155.387Z" fill="#307457"/>
<path d="M158.592 236.352H157.834C147.28 236.352 138.725 244.907 138.725 255.461C138.725 266.014 147.28 274.57 157.834 274.57H158.592C169.145 274.57 177.701 266.014 177.701 255.461C177.701 244.907 169.145 236.352 158.592 236.352Z" fill="#307457"/>
<path d="M256.765 86.2227H203.342V89.8785H256.765V86.2227Z" fill="#E2E4E3"/>
<path d="M291.551 91.707H203.342V95.363H291.551V91.707Z" fill="#E2E4E3"/>
<path d="M285.34 97.1914H203.342V100.847H285.34V97.1914Z" fill="#E2E4E3"/>
<path d="M256.765 167.184H203.342V170.84H256.765V167.184Z" fill="#E0E0E0"/>
<path d="M291.551 172.672H203.342V176.328H291.551V172.672Z" fill="#E0E0E0"/>
<path d="M285.34 178.152H203.342V181.808H285.34V178.152Z" fill="#E0E0E0"/>
<path d="M256.765 248.148H203.342V251.805H256.765V248.148Z" fill="#E0E0E0"/>
<path d="M291.551 253.633H203.342V257.289H291.551V253.633Z" fill="#E0E0E0"/>
<path d="M285.34 259.113H203.342V262.769H285.34V259.113Z" fill="#E0E0E0"/>
<path d="M149.367 91.2553L156.444 97.6217L166.47 83.1641L170.009 86.0556L156.444 103.405L146.418 92.417L149.367 91.2553Z" fill="url(#paint5_linear_3622_12257)"/>
<path d="M150.519 91.5245L156.673 97.056L165.392 84.4844L168.469 86.9987L156.673 102.085L147.955 92.5302L150.519 91.5245Z" fill="#FFF5F0"/>
<path d="M150.519 172.989L156.673 178.521L165.392 165.949L168.469 168.464L156.673 183.55L147.955 173.995L150.519 172.989Z" fill="#FFF5F0"/>
<path d="M150.519 254.454L156.673 259.986L165.392 247.414L168.469 249.928L156.673 265.015L147.955 255.46L150.519 254.454Z" fill="#FFF5F0"/>
<g opacity="0.5">
<path opacity="0.5" d="M333.861 176.508H336.938" stroke="#307457" stroke-width="5" stroke-miterlimit="10"/>
<path opacity="0.5" d="M342.857 176.508H410.907" stroke="#307457" stroke-width="5" stroke-miterlimit="10" stroke-dasharray="11.54 11.54"/>
<path opacity="0.5" d="M413.865 176.51H416.942V173.492" stroke="#307457" stroke-width="5" stroke-miterlimit="10"/>
<path opacity="0.5" d="M416.941 167.734V113.012" stroke="#307457" stroke-width="5" stroke-miterlimit="10" stroke-dasharray="11.45 11.45"/>
<path opacity="0.5" d="M416.941 110.13V107.113" stroke="#307457" stroke-width="5" stroke-miterlimit="10"/>
</g>
<path opacity="0.5" d="M118.723 91.7734H50.002V155.135" stroke="#C3D9CF" stroke-width="5" stroke-miterlimit="10" stroke-dasharray="12 12"/>
<path opacity="0.5" d="M158.213 307.508V343.714H260.782" stroke="#C3D9CF" stroke-width="5" stroke-miterlimit="10" stroke-dasharray="12 12"/>
<g opacity="0.5">
<path opacity="0.5" d="M439.643 101.854H394V48.0469H439.643V75.4131V101.854Z" fill="url(#paint6_linear_3622_12257)"/>
</g>
<path d="M439 100.997H395V49.0273H439V75.4575V100.997Z" fill="#F4FBF8"/>
<path d="M432.464 57.0977H400.668V59.1093H432.464V57.0977Z" fill="#307457"/>
<path d="M432.464 61.1211H400.668V63.1327H432.464V61.1211Z" fill="#C3D9CF"/>
<path d="M432.464 65.1445H400.668V67.1559H432.464V65.1445Z" fill="#FF5E0E"/>
<path d="M432.464 69.168H400.668V71.1794H432.464V69.168Z" fill="#C3D9CF"/>
<path d="M432.464 73.1914H400.668V75.2026H432.464V73.1914Z" fill="#FF5E0E"/>
<path d="M360.016 316.305H285.141V380.672H360.016V316.305Z" fill="#F4FBF8" stroke="#C3D9CF" stroke-opacity="0.11" stroke-width="2"/>
<path d="M360.016 360.058C339.323 360.058 322.578 354.884 322.578 348.492C301.885 348.492 285.141 352.993 285.141 358.55V382.688H360.016V360.058Z" fill="#307457"/>
<path d="M347.708 337.93C351.957 337.93 355.401 334.553 355.401 330.387C355.401 326.221 351.957 322.844 347.708 322.844C343.46 322.844 340.016 326.221 340.016 330.387C340.016 334.553 343.46 337.93 347.708 337.93Z" fill="#FF5E0E"/>
<g opacity="0.5">
<path opacity="0.5" d="M104.62 160.793H0V233.458H104.62V160.793Z" fill="#C3D9CF"/>
</g>
<path d="M101.542 162.93H3.07617V231.32H101.542V162.93Z" fill="#F4FBF8"/>
<path d="M54.3366 180.199C53.5133 180.201 52.6911 180.255 51.8749 180.36L54.3366 198.806L35.4075 197.568C35.3818 197.976 35.3613 198.388 35.3613 198.806C35.3613 202.486 36.4742 206.083 38.5592 209.143C40.6443 212.202 43.6078 214.587 47.0751 215.996C50.5423 217.404 54.3576 217.772 58.0384 217.054C61.7193 216.336 65.1003 214.564 67.7541 211.962C70.4078 209.36 72.215 206.045 72.9472 202.435C73.6793 198.826 73.3036 195.085 71.8674 191.685C70.4312 188.285 67.9991 185.379 64.8786 183.335C61.7582 181.29 58.0895 180.199 54.3366 180.199Z" fill="#307457"/>
<path d="M47.7721 176.84C43.4214 177.399 39.4029 179.419 36.4004 182.557C33.3979 185.694 31.5972 189.755 31.3047 194.048L50.2338 195.285L47.7721 176.84Z" fill="#FF5E0E"/>
<defs>
<linearGradient id="paint0_linear_3622_12257" x1="43197.6" y1="2128.57" x2="43197.6" y2="1063.56" gradientUnits="userSpaceOnUse">
<stop stop-color="#808080" stop-opacity="0.25"/>
<stop offset="0.54" stop-color="#808080" stop-opacity="0.12"/>
<stop offset="1" stop-color="#808080" stop-opacity="0.1"/>
</linearGradient>
<linearGradient id="paint1_linear_3622_12257" x1="16686.8" y1="2924.12" x2="16686.8" y2="1436.21" gradientUnits="userSpaceOnUse">
<stop stop-color="#808080" stop-opacity="0.25"/>
<stop offset="0.54" stop-color="#808080" stop-opacity="0.12"/>
<stop offset="1" stop-color="#808080" stop-opacity="0.1"/>
</linearGradient>
<linearGradient id="paint2_linear_3622_12257" x1="13110.6" y1="9433.4" x2="13110.6" y2="6052.08" gradientUnits="userSpaceOnUse">
<stop stop-color="#808080" stop-opacity="0.25"/>
<stop offset="0.54" stop-color="#808080" stop-opacity="0.12"/>
<stop offset="1" stop-color="#808080" stop-opacity="0.1"/>
</linearGradient>
<linearGradient id="paint3_linear_3622_12257" x1="13122.5" y1="16215.9" x2="13122.5" y2="12834.6" gradientUnits="userSpaceOnUse">
<stop stop-color="#808080" stop-opacity="0.25"/>
<stop offset="0.54" stop-color="#808080" stop-opacity="0.12"/>
<stop offset="1" stop-color="#808080" stop-opacity="0.1"/>
</linearGradient>
<linearGradient id="paint4_linear_3622_12257" x1="13134.4" y1="22914.9" x2="13134.4" y2="19533.6" gradientUnits="userSpaceOnUse">
<stop stop-color="#808080" stop-opacity="0.25"/>
<stop offset="0.54" stop-color="#808080" stop-opacity="0.12"/>
<stop offset="1" stop-color="#808080" stop-opacity="0.1"/>
</linearGradient>
<linearGradient id="paint5_linear_3622_12257" x1="7424.19" y1="4245.26" x2="7424.19" y2="3430.37" gradientUnits="userSpaceOnUse">
<stop stop-color="#808080" stop-opacity="0.25"/>
<stop offset="0.54" stop-color="#808080" stop-opacity="0.12"/>
<stop offset="1" stop-color="#808080" stop-opacity="0.1"/>
</linearGradient>
<linearGradient id="paint6_linear_3622_12257" x1="36748.7" y1="9518.1" x2="36748.7" y2="3760.74" gradientUnits="userSpaceOnUse">
<stop stop-color="#808080" stop-opacity="0.25"/>
<stop offset="0.54" stop-color="#808080" stop-opacity="0.12"/>
<stop offset="1" stop-color="#808080" stop-opacity="0.1"/>
</linearGradient>
</defs>
</svg>
