<svg width="524" height="408" viewBox="0 0 524 408" fill="none" xmlns="http://www.w3.org/2000/svg">
<path d="M95.0793 147.905C16.0397 155.456 -42.3596 246.076 39.7007 315.047C129.312 391.066 419.293 342.232 495.312 202.277C543.139 117.699 526.012 52.4113 481.719 22.0462C441.419 -5.58193 383.045 -5.13954 340.756 28.591C298.467 62.3215 304.509 124.243 244.097 145.892C183.684 167.54 174.119 140.354 95.0793 147.905Z" fill="#F4FBF8"/>
<path d="M217.363 197.319C217.363 197.319 221.805 156.129 223.54 142.829C224.894 132.999 214.222 131.969 212.076 139.121C207.695 151.75 194.315 189.335 194.315 189.335C199.69 194.846 208.101 198.299 217.363 197.319Z" fill="#FF9662"/>
<path d="M248.714 149.75C244.827 158.264 238.338 167.54 226.291 166.495C218.537 165.97 208.819 159.309 204.12 144.755C199.42 130.202 190.947 104.479 190.947 104.479C177.516 56.5568 195.319 49.5105 218.921 41.748C248.894 31.8904 287.469 32.3775 275.065 72.4447C268.124 94.4579 258.722 128.465 248.714 149.75Z" fill="#FF9662"/>
<path d="M290.428 29.5052C290.095 13.597 272.647 11.3033 271.663 11.985C270.679 12.6667 270.553 19.3194 270.797 23.8337C270.84 24.4188 240.944 14.3224 226.521 21.7481C221.303 25.063 215.004 41.1511 215.004 41.1511C207.825 39.7438 192.672 40.7027 183.153 45.7993C178.217 48.4419 174.173 52.266 172.616 60.2634C171.059 68.2608 180.016 91.3966 180.016 91.3966L203.557 83.3574C203.472 76.958 203.482 70.782 202.308 65.6962C226.985 48.945 259.415 55.4969 277.46 61.947C277.46 61.947 290.906 46.5522 290.428 29.5052Z" fill="#0F241B"/>
<path d="M235.841 94.9176C234.685 104.489 227.311 111.443 219.369 110.451C211.428 109.46 205.926 100.897 207.082 91.3258C208.237 81.7548 215.612 74.8002 223.553 75.792C231.495 76.7838 236.996 85.3466 235.841 94.9176Z" fill="white"/>
<path d="M274.605 99.6376C273.449 109.209 266.15 116.173 258.3 115.192C250.45 114.212 245.024 105.658 246.18 96.0875C247.335 86.5165 254.634 79.5525 262.484 80.5329C270.334 81.5133 275.76 90.0666 274.605 99.6376Z" fill="white"/>
<path d="M209.964 83.3055C209.721 82.9877 181.818 87.3819 181.818 87.3819C177.208 87.9846 175.507 90.6467 175.999 96.1406" stroke="#0F241B" stroke-width="2.07166" stroke-miterlimit="10" stroke-linecap="round"/>
<path d="M235.939 90.8399C237.604 88.2377 240.513 86.6807 243.604 87.0668C245.39 87.2898 246.963 88.127 248.165 89.36" stroke="#0F241B" stroke-width="2.07166" stroke-miterlimit="10" stroke-linecap="round"/>
<path d="M189.216 114.538L198.356 115.966L201.606 86.9441L193.406 85.634C185.605 84.4629 178.346 89.9647 177.192 97.9226L177.18 98.0089C176.026 105.967 181.415 113.367 189.216 114.538Z" fill="#FF9662"/>
<path d="M191.953 116.494C190.397 117.302 188.715 117.24 186.904 116.293L187.329 106.907C187.329 106.907 181.664 104.832 182.397 99.2327C182.887 94.2354 187.587 91.7179 193.176 93.9682L191.953 116.494Z" fill="white"/>
<path d="M225.856 93.604C225.472 96.788 223.495 99.1608 221.441 98.9043C219.387 98.6477 218.033 95.8588 218.417 92.6749C218.802 89.491 220.779 87.1182 222.833 87.3747C224.887 87.6313 226.241 90.4201 225.856 93.604Z" fill="#0F241B"/>
<path d="M255.075 97.2594C254.691 100.443 252.821 102.829 250.898 102.589C248.976 102.349 247.728 99.5737 248.113 96.3898C248.497 93.2059 250.367 90.8197 252.29 91.0598C254.213 91.2999 255.46 94.0755 255.075 97.2594Z" fill="#0F241B"/>
<path d="M240.405 95.3748C237.884 120.929 248.543 130.003 249.447 130.652C255.46 134.961 263.332 127.672 257.02 121.135C250.709 114.598 246.712 99.1517 245.761 94.8941C245.033 91.5842 241.119 91.3252 240.405 95.3748Z" fill="#FF9662"/>
<path d="M221.611 115.676C219.984 129.154 227.949 136.933 238.287 136.269" stroke="#0F241B" stroke-width="1.38111" stroke-miterlimit="10" stroke-linecap="round"/>
<path d="M274.567 71.8706C271.119 69.9974 268.536 69.1113 264.629 68.8987" stroke="#0F241B" stroke-width="3.27184" stroke-miterlimit="10" stroke-linecap="round"/>
<path d="M230.303 64.6017C226.413 64.2213 223.694 64.4129 220.004 65.7453" stroke="#0F241B" stroke-width="3.27184" stroke-miterlimit="10" stroke-linecap="round"/>
<path d="M272.988 50.4653C276.613 44.0556 278.485 37.3216 278.253 30.1983" stroke="#0F241B" stroke-width="1.38111" stroke-miterlimit="10" stroke-linecap="round"/>
<path d="M199.139 72.1793C194.747 70.3147 190.087 69.5281 185.103 68.9317" stroke="#0F241B" stroke-width="1.38111" stroke-miterlimit="10" stroke-linecap="round"/>
<path d="M204.497 58.5858C194.192 53.3897 183.181 53.8309 183.452 53.8922" stroke="#0F241B" stroke-width="1.38111" stroke-miterlimit="10" stroke-linecap="round"/>
<path d="M483.474 384.514H280.177C279.183 384.514 278.377 383.708 278.377 382.714V374.554C278.377 373.56 279.183 372.754 280.177 372.754H483.474C484.468 372.754 485.274 373.56 485.274 374.554V382.714C485.274 383.708 484.468 384.514 483.474 384.514Z" fill="#0F241B"/>
<path d="M478.638 381.241H465.8C464.549 381.241 463.535 380.227 463.535 378.976C463.535 377.725 464.549 376.711 465.8 376.711H478.638C479.89 376.711 480.904 377.725 480.904 378.976C480.904 380.227 479.89 381.241 478.638 381.241Z" fill="#0F241B"/>
<path d="M482.931 372.775H342.553C341.172 372.775 340.165 371.439 340.516 370.072L369.716 256.249C369.959 255.302 370.796 254.641 371.753 254.641H512.131C513.513 254.641 514.52 255.977 514.169 257.344L484.969 371.167C484.726 372.114 483.889 372.775 482.931 372.775Z" fill="#0F241B"/>
<path d="M479.739 372.775H340.774C338.945 372.775 337.611 371.005 338.075 369.195L366.916 256.771C367.238 255.516 368.347 254.641 369.615 254.641H508.58C510.409 254.641 511.743 256.411 511.279 258.221L482.438 370.645C482.116 371.9 481.007 372.775 479.739 372.775Z" fill="#0F241B"/>
<path d="M435.053 258.072C434.847 259.022 433.909 259.792 432.959 259.792C432.009 259.792 431.406 259.022 431.613 258.072C431.819 257.122 432.757 256.352 433.707 256.352C434.657 256.352 435.26 257.122 435.053 258.072Z" fill="#0F241B"/>
<path d="M476.739 363.882H347.373C346.412 363.882 345.708 362.978 345.942 362.046L370.875 262.8C371.04 262.144 371.629 261.684 372.306 261.684H502.162C503.125 261.684 503.831 262.592 503.591 263.526L478.168 362.772C478.001 363.425 477.413 363.882 476.739 363.882Z" fill="white"/>
<path d="M398.556 355.542H362.644C361.161 355.542 359.959 354.255 359.959 352.666L378.762 273.919C378.762 272.33 379.964 271.043 381.447 271.043H417.359C418.842 271.043 420.044 272.33 420.044 273.919L401.241 352.666C401.241 354.255 400.039 355.542 398.556 355.542Z" fill="#CDCCCC"/>
<path d="M468.262 355.738H409.654C408.171 355.738 406.969 354.459 406.969 352.88L419.96 298.241C419.96 296.662 421.162 295.383 422.645 295.383H481.253C482.736 295.383 483.938 296.662 483.938 298.241L470.947 352.88C470.947 354.459 469.745 355.738 468.262 355.738Z" fill="#CDCCCC"/>
<path d="M484.463 288.552H425.855C424.372 288.552 423.17 287.27 423.17 285.689L426.418 273.285C426.418 271.704 427.62 270.422 429.103 270.422H487.711C489.194 270.422 490.396 271.704 490.396 273.285L487.148 285.689C487.148 287.27 485.946 288.552 484.463 288.552Z" fill="#CDCCCC"/>
<path d="M176.887 177.153L179.919 162.055C199.01 157.539 215.019 163.988 228.455 179.594L226.734 191.633L176.887 177.153Z" fill="#FF5E0E"/>
<path d="M195.782 174.837C160.838 168.663 119.287 183.688 116.817 209.838C114.346 235.987 126.379 323.162 132.749 391.619C132.851 397.062 137.538 400.86 143.346 401.526C143.346 401.526 180.476 409.021 195.78 397.647C210.59 385.75 204.277 377.766 206.214 367.185C207.057 357.215 216.311 335.819 224.323 310.493C224.211 310.864 232.935 283.424 234.628 258.545C265.356 257.797 272.208 225.818 264.918 210.796C262.585 200.227 223.681 179.004 195.782 174.837Z" fill="#FF5E0E"/>
<path d="M176.887 177.153L179.919 162.055C199.01 157.539 215.019 163.988 228.455 179.594L226.734 191.633" stroke="#0F241B" stroke-width="2.07165" stroke-miterlimit="10" stroke-linecap="round"/>
<path d="M361.022 196.602C362.052 200.527 362.178 205.443 361.936 210.763C359.557 210.924 357.138 211.088 354.685 211.255C355.902 217.647 356.408 224.504 356.318 231.751C356.293 233.698 354.819 235.298 352.942 235.425L325.924 237.259C323.814 237.402 322.039 235.645 322.075 233.454C322.257 222.428 321.617 211.474 319.591 200.644C316.546 191.545 312.721 187.552 307.095 182.969C309.243 179.487 312.128 176.921 317.427 177.615C322.085 178.879 328.207 189.7 330.11 199.491C339.947 197.819 349.498 196.518 361.022 196.602Z" fill="#FF9662"/>
<path d="M330.934 257.794C324.95 294.043 316.306 325.984 306.74 349.423C302.73 358.666 292.272 362.911 283.379 358.904C276.718 355.901 272.825 349.123 272.973 342.026C273.023 339.644 273.527 337.229 274.535 334.907L315.472 246.714C321.573 247.794 326.799 251.295 330.934 257.794Z" fill="#FF5E0E"/>
<path d="M333.91 237.66C333.009 244.5 332.01 251.222 330.926 257.799C326.791 251.3 321.566 247.8 315.464 246.719L322.131 232.352C323.598 228.972 327.422 227.42 330.674 228.886C333.926 230.349 335.374 234.28 333.91 237.66Z" fill="#FF9662"/>
<path d="M301.4 265.65L329.857 277.376L331.911 259.443C325.782 248.61 316.992 245.1 306.327 246.749L301.4 265.65Z" fill="#FF5E0E"/>
<path d="M329.857 277.376L331.911 259.443C325.782 248.61 316.992 245.1 306.327 246.749L301.4 265.65" stroke="#0F241B" stroke-width="2.07164" stroke-miterlimit="10" stroke-linecap="round"/>
<path d="M299.617 357.759C286.168 364.655 276.741 355.819 270.403 343.896C253.228 311.031 241.421 285.455 221.163 251.362C210.919 231.439 210.069 209.054 228.648 197.566C246.193 187.6 265.834 201.81 275.148 230.733L302.986 323.407C306.559 335.026 312.07 351.043 299.617 357.759Z" fill="#FF5E0E"/>
<path d="M220.684 249.832L257.38 318.56" stroke="#0F241B" stroke-width="2.07165" stroke-miterlimit="10" stroke-linecap="round"/>
<path d="M477.177 95.7313C477.177 58.3673 446.888 28.0781 409.524 28.0781C372.16 28.0781 341.871 58.3673 341.871 95.7313C341.871 133.095 372.16 163.384 409.524 163.384C446.888 163.384 477.177 133.095 477.177 95.7313Z" fill="#307457"/>
<path d="M376.502 99.1646L395.831 121.313L438.92 75.8086" stroke="white" stroke-width="19.4361" stroke-miterlimit="10" stroke-linecap="square"/>
<path d="M41.5818 403.821C67.4246 407.848 103.455 408.018 115.252 407.932C127.049 407.846 147.551 408.83 159.806 405.415C171.68 402.105 171.979 387.884 169.791 377.306C159.051 308.503 155.023 237.015 146.297 218.891C143.969 213.15 141.011 204.292 130.104 202.278C119.196 200.264 93.0992 201.507 75.7321 201.019C63.839 200.685 55.4201 211.581 52.9935 221.912C44.2675 270.577 36.5474 325.62 29.4993 389.053C28.6522 398.87 30.9195 401.229 41.5818 403.821Z" fill="#0F241B"/>
<path d="M68.4647 135.461C68.4647 135.461 103.957 130.511 117.298 129.252C130.639 127.993 136.177 132.776 136.177 143.096C136.177 153.417 128.121 184.882 120.57 186.644C99.342 190.336 76.855 188.155 65.4439 186.141C55.7108 184.463 52.8583 177.415 52.1868 171.373C51.5154 165.332 51.0115 154.76 52.0186 145.53C53.0258 136.3 68.4647 135.461 68.4647 135.461Z" fill="#0F241B"/>
</svg>
