<svg width="56" height="56" viewBox="0 0 56 56" fill="none" xmlns="http://www.w3.org/2000/svg">
<rect width="56" height="56" rx="28" fill="#FCF1F7"/>
<path d="M28.5013 16.6312L37.5013 21.1312C37.8762 21.3175 38.1916 21.6047 38.4122 21.9604C38.6328 22.3162 38.7498 22.7264 38.7501 23.145V33.8662C38.7498 34.2848 38.6328 34.6951 38.4122 35.0508C38.1916 35.4066 37.8762 35.6937 37.5013 35.88L28.5013 40.38C28.1887 40.5364 27.844 40.6178 27.4944 40.6178C27.1449 40.6178 26.8001 40.5364 26.4876 40.38L17.4876 35.88C17.1131 35.6913 16.7988 35.4017 16.5801 35.0439C16.3615 34.6861 16.2471 34.2743 16.2501 33.855V23.145C16.2503 22.7264 16.3673 22.3162 16.5879 21.9604C16.8085 21.6047 17.1239 21.3175 17.4988 21.1312L26.4988 16.6312C26.8099 16.4766 27.1526 16.3962 27.5001 16.3962C27.8475 16.3962 28.1902 16.4766 28.5013 16.6312V16.6312Z" stroke="#B70569" stroke-width="2" stroke-linecap="round" stroke-linejoin="round"/>
<path d="M16.6104 21.93L27.5004 27.375L38.3903 21.93" stroke="#B70569" stroke-width="2" stroke-linecap="round" stroke-linejoin="round"/>
<path d="M27.5 40.605V27.375" stroke="#B70569" stroke-width="2" stroke-linecap="round" stroke-linejoin="round"/>
<path d="M21.875 18.9375L33.125 24.5625" stroke="#B70569" stroke-width="2" stroke-linecap="round" stroke-linejoin="round"/>
</svg>
