<svg width="56" height="56" viewBox="0 0 56 56" fill="none" xmlns="http://www.w3.org/2000/svg">
<rect width="56" height="56" rx="28" fill="#FDF6F0"/>
<path d="M37.81 15.2572C35.3132 13.8956 32.0065 13.1451 28.4994 13.1451C24.9923 13.1451 21.6855 13.8956 19.1887 15.2572C16.5802 16.6798 15.1445 18.6105 15.1445 20.6935V34.629C15.1445 36.7121 16.5802 38.6427 19.1887 40.0653C21.6855 41.4269 24.9952 42.1774 28.4994 42.1774C32.0036 42.1774 35.3132 41.4269 37.81 40.0653C40.4229 38.6427 41.8542 36.7121 41.8542 34.629V20.6935C41.8542 18.6105 40.4186 16.6798 37.81 15.2572ZM40.6929 34.629C40.6929 36.2679 39.4721 37.8371 37.254 39.0463C34.9257 40.3164 31.8163 41.0161 28.4994 41.0161C25.1824 41.0161 22.0731 40.3164 19.7447 39.0463C17.5266 37.8371 16.3058 36.2679 16.3058 34.629V30.7793C16.9866 31.6401 17.9563 32.4255 19.1887 33.1019C21.6855 34.4635 24.9952 35.214 28.4994 35.214C32.0036 35.214 35.3132 34.4635 37.81 33.1019C39.0424 32.4298 40.0121 31.6503 40.6929 30.7793V34.629ZM40.6929 27.6613C40.6929 29.3001 39.4721 30.8693 37.254 32.0785C34.9257 33.3487 31.8163 34.0484 28.4994 34.0484C25.1824 34.0484 22.0731 33.3487 19.7447 32.0785C17.5266 30.8693 16.3058 29.3001 16.3058 27.6613V23.8116C16.9866 24.6724 17.9563 25.4577 19.1887 26.1342C21.6855 27.4958 24.9952 28.2463 28.4994 28.2463C32.0036 28.2463 35.3132 27.4958 37.81 26.1342C39.0424 25.4621 40.0121 24.6826 40.6929 23.8116V27.6613ZM37.254 25.1108C34.9257 26.3809 31.8163 27.0806 28.4994 27.0806C25.1824 27.0806 22.0731 26.3809 19.7447 25.1108C17.5266 23.9016 16.3058 22.3324 16.3058 20.6935C16.3058 19.0547 17.5266 17.4855 19.7447 16.2763C22.0731 15.0061 25.1824 14.3064 28.4994 14.3064C31.8163 14.3064 34.9257 15.0061 37.254 16.2763C39.4721 17.4855 40.6929 19.0547 40.6929 20.6935C40.6929 22.3324 39.4721 23.9016 37.254 25.1108Z" fill="#D27C2C"/>
</svg>
