<svg width="60" height="60" viewBox="0 0 60 60" fill="none" xmlns="http://www.w3.org/2000/svg">
<circle cx="30" cy="30" r="30" fill="#F5E8FC"/>
<path fill-rule="evenodd" clip-rule="evenodd" d="M31.3979 19.0912C31.0319 17.6363 28.9666 17.6363 28.6021 19.0912L28.4956 19.5202C28.3687 20.0278 27.9764 20.4267 27.4708 20.562C26.9653 20.6972 26.4262 20.5476 26.0627 20.1711L25.7553 19.8546C24.7128 18.7762 22.9234 19.8111 23.3359 21.251L23.4574 21.677C23.6006 22.1797 23.4601 22.7205 23.0903 23.09C22.7205 23.4594 22.1796 23.5995 21.677 23.4559L21.251 23.3359C19.8096 22.9234 18.7762 24.7128 19.8546 25.7553L20.1711 26.0627C20.5476 26.4262 20.6972 26.9653 20.562 27.4708C20.4267 27.9764 20.0278 28.3687 19.5202 28.4956L19.0912 28.6021C17.6363 28.9681 17.6363 31.0334 19.0912 31.3979L19.5202 31.5044C20.0278 31.6313 20.4267 32.0236 20.562 32.5292C20.6972 33.0347 20.5476 33.5738 20.1711 33.9373L19.8546 34.2447C18.7762 35.2872 19.8111 37.0766 21.251 36.6641L21.677 36.5426C22.1797 36.3994 22.7205 36.5399 23.09 36.9097C23.4594 37.2795 23.5995 37.8204 23.4559 38.323L23.3359 38.749C22.9234 40.1904 24.7128 41.2238 25.7553 40.1454L26.0627 39.8289C26.4262 39.4524 26.9653 39.3028 27.4708 39.438C27.9764 39.5733 28.3687 39.9722 28.4956 40.4798L28.6021 40.9088C28.9681 42.3637 31.0334 42.3637 31.3979 40.9088L31.5044 40.4798C31.6313 39.9722 32.0236 39.5733 32.5292 39.438C33.0347 39.3028 33.5738 39.4524 33.9373 39.8289L34.2447 40.1454C35.2872 41.2238 37.0766 40.1889 36.6641 38.749L36.5426 38.3245C36.3987 37.8216 36.5389 37.2802 36.9088 36.9103C37.2787 36.5404 37.8201 36.4002 38.323 36.5441L38.749 36.6641C40.1904 37.0766 41.2238 35.2872 40.1454 34.2447L39.8289 33.9373C39.4524 33.5738 39.3028 33.0347 39.438 32.5292C39.5733 32.0236 39.9722 31.6313 40.4798 31.5044L40.9088 31.3979C42.3637 31.0319 42.3637 28.9666 40.9088 28.6021L40.4798 28.4956C39.9722 28.3687 39.5733 27.9764 39.438 27.4708C39.3028 26.9653 39.4524 26.4262 39.8289 26.0627L40.1454 25.7553C41.2238 24.7128 40.1889 22.9234 38.749 23.3359L38.3245 23.4574C37.8216 23.6013 37.2802 23.4611 36.9103 23.0912C36.5404 22.7213 36.4002 22.1799 36.5441 21.677L36.6641 21.251C37.0766 19.8096 35.2872 18.7762 34.2447 19.8546L33.9373 20.1711C33.5738 20.5476 33.0347 20.6972 32.5292 20.562C32.0236 20.4267 31.6313 20.0278 31.5044 19.5202L31.3979 19.0912ZM30.3742 30.75H37.4582C37.2014 33.3082 35.6516 35.5563 33.3521 36.7062C31.0526 37.8561 28.3242 37.7474 26.1234 36.4181L30.3742 30.75ZM37.4582 29.25C37.2014 26.6918 35.6516 24.4437 33.3521 23.2938C31.0526 22.1439 28.3242 22.2526 26.1234 23.5818L30.3742 29.2515H37.4582V29.25ZM22.5023 30.0001C22.5002 27.9028 23.3791 25.9011 24.9247 24.4834L29.0614 30.0001L24.9247 35.5167C23.4353 34.1473 22.5023 32.1824 22.5023 30.0001Z" fill="#A907F5"/>
</svg>
