<svg width="56" height="56" viewBox="0 0 56 56" fill="none" xmlns="http://www.w3.org/2000/svg">
<rect width="56" height="56" rx="28" fill="#FFEFD6"/>
<path d="M27.4988 16.4469L38.8135 38.9969H16.1858L27.4988 16.4469ZM27.4988 14C26.9166 14 26.3344 14.3932 25.894 15.1779L14.3701 38.1464C13.4875 39.7158 14.2384 41 16.039 41H38.9603C40.7609 41 41.5118 39.7158 40.6293 38.1464L29.1053 15.1779C28.6632 14.3932 28.081 14 27.4988 14Z" fill="#FF9A00"/>
<path d="M29.1875 35.9375C29.1875 36.3851 29.0097 36.8143 28.6932 37.1307C28.3768 37.4472 27.9476 37.625 27.5 37.625C27.0524 37.625 26.6232 37.4472 26.3068 37.1307C25.9903 36.8143 25.8125 36.3851 25.8125 35.9375C25.8125 35.4899 25.9903 35.0607 26.3068 34.7443C26.6232 34.4278 27.0524 34.25 27.5 34.25C27.9476 34.25 28.3768 34.4278 28.6932 34.7443C29.0097 35.0607 29.1875 35.4899 29.1875 35.9375ZM27.5 32.5625C27.0524 32.5625 26.6232 32.3847 26.3068 32.0682C25.9903 31.7518 25.8125 31.3226 25.8125 30.875V25.8125C25.8125 25.3649 25.9903 24.9357 26.3068 24.6193C26.6232 24.3028 27.0524 24.125 27.5 24.125C27.9476 24.125 28.3768 24.3028 28.6932 24.6193C29.0097 24.9357 29.1875 25.3649 29.1875 25.8125V30.875C29.1875 31.3226 29.0097 31.7518 28.6932 32.0682C28.3768 32.3847 27.9476 32.5625 27.5 32.5625Z" fill="#FF9A00"/>
</svg>
