<svg width="29" height="31" viewBox="0 0 29 31" fill="none" xmlns="http://www.w3.org/2000/svg">
<rect y="1.77734" width="29" height="29" rx="14.5" fill="#F4FBF8"/>
<path d="M10.9807 10.0547L10.3647 10.6698L11.2813 11.5859L11.8964 10.9708L10.9807 10.0547ZM19.0198 10.0547L18.1032 10.9708L18.7188 11.5859L19.6349 10.6703L19.0198 10.0547ZM15 10.3277C14.8556 10.3294 14.7095 10.3378 14.5625 10.3557C14.5581 10.3557 14.5538 10.3548 14.5494 10.3557C12.7749 10.5591 11.3626 11.9928 11.1172 13.7594C10.9212 15.1813 11.5074 16.4706 12.4844 17.301C12.884 17.6421 13.1543 18.1101 13.25 18.6266V21.2516H14.2475C14.3998 21.5128 14.6776 21.6891 15 21.6891C15.3224 21.6891 15.6003 21.5128 15.7525 21.2516H16.75V19.5016H16.7911V18.9819C16.7911 18.3405 17.1245 17.6939 17.6661 17.1912C18.3906 16.4658 18.9375 15.4355 18.9375 14.2521C18.9375 12.0908 17.1586 10.3076 15 10.3277ZM15 11.2027C16.6909 11.1791 18.0625 12.5633 18.0625 14.2521C18.0625 15.1682 17.6381 15.9749 17.0506 16.5621L17.0646 16.5761C16.4807 17.1145 16.1031 17.8399 15.9971 18.6271H14.0834C13.9872 17.8772 13.6656 17.1514 13.0579 16.6308C12.2849 15.9745 11.8242 14.9858 11.9782 13.8693C12.1694 12.4911 13.2876 11.3829 14.6579 11.2311C14.771 11.2154 14.8849 11.206 14.9991 11.2031L15 11.2027ZM8.875 14.2521V15.1271H10.1875V14.2521H8.875ZM19.8125 14.2521V15.1271H21.125V14.2521H19.8125ZM11.2813 17.7932L10.3651 18.7089L10.9807 19.3244L11.8959 18.4083L11.2813 17.7932ZM18.7188 17.7932L18.1036 18.4083L19.0193 19.3244L19.6349 18.7089L18.7188 17.7932ZM14.125 19.5021H15.875V20.3771H14.125V19.5021Z" fill="#307457"/>
</svg>
