<svg width="40" height="40" viewBox="0 0 40 40" fill="none" xmlns="http://www.w3.org/2000/svg">
<circle cx="20" cy="20" r="20" fill="#307457"/>
<path d="M16 13H24C24.2652 13 24.5196 13.1054 24.7071 13.2929C24.8946 13.4804 25 13.7348 25 14V19.022C25.3383 19.0527 25.6731 19.1146 26 19.207V14C26 13.4696 25.7893 12.9609 25.4142 12.5858C25.0391 12.2107 24.5304 12 24 12H16C15.4696 12 14.9609 12.2107 14.5858 12.5858C14.2107 12.9609 14 13.4696 14 14V26C14 26.5304 14.2107 27.0391 14.5858 27.4142C14.9609 27.7893 15.4696 28 16 28H20.257C20.0023 27.6915 19.782 27.3562 19.6 27H16C15.7348 27 15.4804 26.8946 15.2929 26.7071C15.1054 26.5196 15 26.2652 15 26H19.207C19.1145 25.6731 19.0525 25.3383 19.022 25H15V14C15 13.7348 15.1054 13.4804 15.2929 13.2929C15.4804 13.1054 15.7348 13 16 13ZM17 14C16.7348 14 16.4804 14.1054 16.2929 14.2929C16.1054 14.4804 16 14.7348 16 15V16C16 16.2652 16.1054 16.5196 16.2929 16.7071C16.4804 16.8946 16.7348 17 17 17H23C23.2652 17 23.5196 16.8946 23.7071 16.7071C23.8946 16.5196 24 16.2652 24 16V15C24 14.7348 23.8946 14.4804 23.7071 14.2929C23.5196 14.1054 23.2652 14 23 14H17ZM23 15V16H17V15H23ZM29 24.5C29 25.6935 28.5259 26.8381 27.682 27.682C26.8381 28.5259 25.6935 29 24.5 29C23.3065 29 22.1619 28.5259 21.318 27.682C20.4741 26.8381 20 25.6935 20 24.5C20 23.3065 20.4741 22.1619 21.318 21.318C22.1619 20.4741 23.3065 20 24.5 20C25.6935 20 26.8381 20.4741 27.682 21.318C28.5259 22.1619 29 23.3065 29 24.5ZM24.02 22.534C23.9552 22.4895 23.8798 22.4626 23.8014 22.4561C23.723 22.4497 23.6443 22.4637 23.573 22.497C23.5148 22.5226 23.4622 22.5593 23.418 22.605C23.3248 22.7005 23.2728 22.8286 23.273 22.962V26.037C23.2724 26.1033 23.2849 26.169 23.3098 26.2305C23.3347 26.2919 23.3714 26.3478 23.418 26.395C23.4636 26.4404 23.5168 26.4776 23.575 26.505C23.6765 26.5515 23.7916 26.5586 23.898 26.525C23.9441 26.5098 23.9879 26.4883 24.028 26.461L26.324 24.894C26.3939 24.848 26.4501 24.7841 26.487 24.709C26.525 24.6334 26.5445 24.5498 26.544 24.4651C26.5435 24.3805 26.5229 24.2972 26.484 24.222C26.4449 24.148 26.3874 24.0853 26.317 24.04L24.02 22.534Z" fill="white"/>
</svg>
