<svg width="40" height="40" viewBox="0 0 40 40" fill="none" xmlns="http://www.w3.org/2000/svg">
<circle cx="20" cy="20" r="20" fill="#307457"/>
<path d="M26.2222 20.7778V14.3324C26.2223 14.2623 26.2085 14.1928 26.1816 14.128C26.1548 14.0631 26.1154 14.0042 26.0658 13.9547L23.2676 11.1564C23.1676 11.0564 23.0321 11.0001 22.8907 11H12.5333C12.3919 11 12.2562 11.0562 12.1562 11.1562C12.0562 11.2562 12 11.3919 12 11.5333V28.2444C12 28.3859 12.0562 28.5216 12.1562 28.6216C12.2562 28.7216 12.3919 28.7778 12.5333 28.7778H20.8889" stroke="white" stroke-width="1.5" stroke-linecap="round" stroke-linejoin="round"/>
<path d="M22.667 11V14.0222C22.667 14.1637 22.7232 14.2993 22.8232 14.3993C22.9232 14.4994 23.0589 14.5556 23.2003 14.5556H26.2225M22.667 26.1111H28.0003M28.0003 26.1111L25.3337 23.4444M28.0003 26.1111L25.3337 28.7778" stroke="white" stroke-width="1.5" stroke-linecap="round" stroke-linejoin="round"/>
</svg>
