<svg width="40" height="40" viewBox="0 0 40 40" fill="none" xmlns="http://www.w3.org/2000/svg">
<path d="M27.4201 12.71C27.3276 12.6173 27.2177 12.5438 27.0967 12.4936C26.9758 12.4434 26.8461 12.4176 26.7151 12.4176C26.5841 12.4176 26.4545 12.4434 26.3335 12.4936C26.2125 12.5438 26.1026 12.6173 26.0101 12.71L17.5301 21.2L13.9901 17.66C13.8031 17.4731 13.5495 17.368 13.2851 17.368C13.0207 17.368 12.7671 17.4731 12.5801 17.66C12.3931 17.847 12.2881 18.1006 12.2881 18.365C12.2881 18.496 12.3139 18.6256 12.364 18.7466C12.4141 18.8676 12.4875 18.9775 12.5801 19.07L16.8201 23.31C17.2101 23.7 17.8401 23.7 18.2301 23.31L27.4201 14.12C27.8201 13.73 27.8201 13.1 27.4201 12.71ZM14.0001 28H26.0001C26.5501 28 27.0001 27.55 27.0001 27C27.0001 26.45 26.5501 26 26.0001 26H14.0001C13.4501 26 13.0001 26.45 13.0001 27C13.0001 27.55 13.4501 28 14.0001 28Z" fill="white"/>
<circle cx="20" cy="20" r="20" fill="#307457"/>
<g clip-path="url(#clip0_2034_1613)">
<path d="M20 10C14.5577 10 10 13.9077 10 18.8462C10 21.1769 11.0454 23.2677 12.6923 24.8315C12.4917 25.3547 12.2074 25.8418 11.8508 26.2738C11.3776 26.8479 10.8548 27.3792 10.2885 27.8615C10.1642 27.9612 10.074 28.097 10.0302 28.2501C9.98646 28.4032 9.99128 28.5661 10.044 28.7164C10.0968 28.8666 10.1949 28.9968 10.3248 29.089C10.4547 29.1811 10.61 29.2306 10.7692 29.2308C12.4731 29.2308 13.6985 29.2115 14.8077 28.9185C15.8 28.6554 16.6531 28.1046 17.5238 27.3315C18.3162 27.5215 19.1338 27.6923 20 27.6923C25.4423 27.6923 30 23.7846 30 18.8462C30 13.9077 25.4423 10 20 10ZM20 11.5385C24.7115 11.5385 28.4615 14.8615 28.4615 18.8462C28.4615 22.8308 24.7115 26.1538 20 26.1538C19.1623 26.1538 18.2923 26.0092 17.5 25.7931C17.3733 25.7612 17.2406 25.7622 17.1143 25.7958C16.9881 25.8295 16.8725 25.8947 16.7785 25.9854C15.9131 26.8154 15.2754 27.2023 14.4231 27.4277C14.0308 27.5315 13.2738 27.5069 12.74 27.5485C12.8477 27.4269 12.9485 27.3623 13.0531 27.2354C13.6577 26.4969 14.2092 25.7162 14.3754 24.8315C14.3983 24.6987 14.3859 24.5623 14.3394 24.4358C14.293 24.3093 14.2141 24.1972 14.1108 24.1108C12.4992 22.78 11.5385 20.9146 11.5385 18.8462C11.5385 14.8615 15.2885 11.5385 20 11.5385ZM18.5338 14.5431C18.3984 14.5735 18.2738 14.6399 18.1731 14.7354L17.0192 15.8177L18.0531 16.9469L18.9662 16.0815H20.8169L21.5385 16.9V18.03L19.5669 19.3515C19.4615 19.4233 19.3756 19.5201 19.317 19.6333C19.2583 19.7465 19.2287 19.8725 19.2308 20V21.5385H20.7692V20.4323L22.7408 19.1108C22.8463 19.0389 22.9322 18.942 22.9909 18.8286C23.0496 18.7153 23.0791 18.5891 23.0769 18.4615V16.6108C23.0759 16.4249 23.0076 16.2456 22.8846 16.1062L21.7308 14.8077C21.659 14.7251 21.5704 14.6587 21.4709 14.6131C21.3714 14.5675 21.2633 14.5436 21.1538 14.5431H18.7015C18.6458 14.537 18.5896 14.537 18.5338 14.5431ZM19.2308 22.3077V23.8462H20.7692V22.3077H19.2308Z" fill="white"/>
</g>
<defs>
<clipPath id="clip0_2034_1613">
<rect width="20" height="20" fill="white" transform="translate(10 10)"/>
</clipPath>
</defs>
</svg>
