<svg width="40" height="40" viewBox="0 0 40 40" fill="none" xmlns="http://www.w3.org/2000/svg">
<circle cx="20" cy="20" r="20" fill="#307457"/>
<path d="M25.2996 14.3C25.2071 14.2073 25.0972 14.1337 24.9763 14.0836C24.8553 14.0334 24.7256 14.0076 24.5946 14.0076C24.4637 14.0076 24.334 14.0334 24.213 14.0836C24.092 14.1337 23.9822 14.2073 23.8896 14.3L18.2496 19.94L19.6596 21.35L25.2996 15.7C25.6796 15.32 25.6796 14.68 25.2996 14.3ZM29.5396 14.29L19.6596 24.17L16.1796 20.7C15.9927 20.513 15.7391 20.408 15.4746 20.408C15.2102 20.408 14.9566 20.513 14.7696 20.7C14.5827 20.887 14.4776 21.1406 14.4776 21.405C14.4776 21.6694 14.5827 21.923 14.7696 22.11L18.9496 26.29C19.3396 26.68 19.9696 26.68 20.3596 26.29L30.9496 15.71C31.0424 15.6175 31.1159 15.5076 31.1661 15.3866C31.2163 15.2657 31.2421 15.136 31.2421 15.005C31.2421 14.874 31.2163 14.7443 31.1661 14.6234C31.1159 14.5024 31.0424 14.3925 30.9496 14.3H30.9396C30.8494 14.2056 30.7412 14.1303 30.6213 14.0785C30.5014 14.0268 30.3723 13.9996 30.2418 13.9987C30.1112 13.9977 29.9818 14.0231 29.8611 14.0731C29.7405 14.1231 29.6312 14.1969 29.5396 14.29ZM9.11965 22.12L13.2996 26.3C13.6896 26.69 14.3196 26.69 14.7096 26.3L15.4096 25.6L10.5296 20.7C10.4371 20.6073 10.3272 20.5337 10.2063 20.4836C10.0853 20.4334 9.95562 20.4076 9.82465 20.4076C9.69368 20.4076 9.564 20.4334 9.44302 20.4836C9.32205 20.5337 9.21216 20.6073 9.11965 20.7C8.72965 21.09 8.72965 21.73 9.11965 22.12Z" fill="white"/>
</svg>
