<svg width="458" height="494" viewBox="0 0 458 494" fill="none" xmlns="http://www.w3.org/2000/svg">
<g clip-path="url(#clip0_2034_1256)">
<path d="M430.838 375.842H86.5739C80.187 375.835 75.0113 370.659 75.0039 364.272V83.9516C75.0113 77.5647 80.187 72.389 86.5739 72.3816H430.838C437.225 72.389 442.401 77.5647 442.408 83.9516V364.272C442.401 370.659 437.225 375.835 430.838 375.842Z" fill="#E6E6E6"/>
<path d="M397.389 368.038H94.3805C87.9937 368.03 82.8179 362.855 82.8105 356.468V91.7617C82.8179 85.3749 87.9937 80.1991 94.3805 80.1917H423.035C429.421 80.1991 434.597 85.3749 434.605 91.7617V330.822C434.581 351.366 417.933 368.015 397.389 368.038Z" fill="white"/>
<path d="M314.123 140.047H175.755C174.107 140.047 172.771 138.711 172.771 137.063C172.771 135.415 174.107 134.079 175.755 134.079H314.123C315.771 134.079 317.107 135.415 317.107 137.063C317.107 138.711 315.771 140.047 314.123 140.047Z" fill="#FF5E0E"/>
<path d="M384.168 171.883H175.755C174.107 171.883 172.771 170.547 172.771 168.899C172.771 167.251 174.107 165.915 175.755 165.915H384.168C385.816 165.915 387.151 167.251 387.151 168.899C387.151 170.547 385.816 171.883 384.168 171.883Z" fill="#E6E6E6"/>
<path d="M384.168 203.719H175.755C174.107 203.719 172.771 202.383 172.771 200.735C172.771 199.087 174.107 197.751 175.755 197.751H384.168C385.816 197.751 387.151 199.087 387.151 200.735C387.151 202.383 385.816 203.719 384.168 203.719Z" fill="#E6E6E6"/>
<path d="M384.168 235.555H175.755C174.107 235.555 172.771 234.219 172.771 232.571C172.771 230.923 174.107 229.588 175.755 229.588H384.168C385.816 229.588 387.151 230.923 387.151 232.571C387.151 234.219 385.816 235.555 384.168 235.555Z" fill="#E6E6E6"/>
<path d="M384.168 267.392H175.755C174.107 267.392 172.771 266.056 172.771 264.408C172.771 262.76 174.107 261.424 175.755 261.424H384.168C385.816 261.424 387.151 262.76 387.151 264.408C387.151 266.056 385.816 267.392 384.168 267.392Z" fill="#E6E6E6"/>
<path d="M374.795 318.125C366.45 318.125 359.686 311.361 359.686 303.016C359.686 294.671 366.45 287.907 374.795 287.907C383.139 287.907 389.904 294.671 389.904 303.016C389.904 311.361 383.139 318.125 374.795 318.125Z" fill="#FF5E0E"/>
<path d="M383.295 302.298L379.011 296.046C378.616 295.466 377.826 295.316 377.246 295.711C376.666 296.106 376.517 296.897 376.911 297.476L376.915 297.482L379.685 301.525H368.833C368.01 301.523 367.34 302.188 367.338 303.011C367.335 303.834 368.001 304.504 368.824 304.506H379.822L376.915 308.748C376.521 309.329 376.672 310.119 377.253 310.513C377.83 310.905 378.615 310.758 379.011 310.184L383.295 303.932C383.578 303.424 383.578 302.806 383.295 302.298Z" fill="white"/>
<path d="M456.497 31.0424H60.9185C60.0702 31.0243 59.3973 30.322 59.4154 29.4737C59.433 28.651 60.0958 27.9882 60.9185 27.9706H456.497C457.345 27.9888 458.018 28.6911 458 29.5394C457.982 30.3621 457.319 31.0248 456.497 31.0424Z" fill="#CACACA"/>
<path d="M110.422 333.825C112.71 331.911 113.013 328.505 111.099 326.218C110.895 325.974 110.67 325.749 110.426 325.544L107.15 297.238L96.749 299.647L102.529 326.479C100.76 328.899 101.287 332.296 103.708 334.066C105.733 335.546 108.509 335.447 110.422 333.825Z" fill="#FFB6B6"/>
<path d="M109.347 301.854L97.3057 309.366C97.3057 309.366 96.5727 313.769 95.7447 302.704C95.6583 301.549 96.4641 299.537 96.3755 298.352C96.2756 297.014 92.4449 296.406 92.344 295.053C92.2722 294.089 93.3796 293.233 93.3081 292.272C93.1998 290.817 93.0922 289.37 92.9865 287.946C92.8981 286.755 91.5789 286 91.4938 284.851C91.4081 283.691 92.5566 282.138 92.4756 281.04C91.8686 272.803 93.9676 252.08 93.9676 251.659C93.8054 250.601 93.3637 249.605 92.688 248.775L93.3307 246.853L92.9057 243.246C92.3472 238.506 93.3436 233.714 95.7447 229.59L98.8029 227.587L112.914 251.321C106.976 271.86 103.1 279.927 109.347 301.854Z" fill="#FF5E0E"/>
<path d="M99.9521 478.821H107.236L110.703 450.724H99.9521V478.821Z" fill="#FFB6B6"/>
<path d="M97.5748 473.832L109.212 473.137V478.123L120.277 485.765C121.692 486.742 122.047 488.682 121.07 490.097C120.489 490.939 119.53 491.442 118.507 491.442H104.652L102.264 486.51L101.331 491.442H96.1074L97.5748 473.832Z" fill="#2F2E41"/>
<path d="M140.87 478.821H148.154L151.621 450.724H140.87V478.821Z" fill="#FFB6B6"/>
<path d="M138.493 473.832L150.13 473.137V478.123L161.195 485.765C162.61 486.742 162.965 488.682 161.988 490.097C161.406 490.939 160.448 491.442 159.425 491.442H145.57L143.182 486.51L142.249 491.442H137.025L138.493 473.832Z" fill="#2F2E41"/>
<path d="M96.8599 454.591H96.8883L98.2892 387.679C96.4479 384.127 96.5067 379.889 98.4459 376.39L98.6465 376.027L98.1265 373.617C97.4585 370.519 97.7651 367.291 99.0039 364.375L100.311 321.76C95.6417 291.501 117.893 271.766 117.893 271.766H151.226L158.383 296.354C163.114 342.445 162.255 408.588 154.748 452.103L154.953 452.207C155.759 452.656 156.07 453.66 155.659 454.487C155.312 455.492 154.433 456.101 153.696 455.846L136.093 455.234C135.286 454.784 134.975 453.78 135.386 452.954C135.733 451.949 136.612 451.34 137.349 451.594L138.546 452.2L137.311 449.686C135.796 446.602 136.089 442.937 138.074 440.133L137.858 434.598C135.986 432.407 135.364 429.411 136.209 426.655L137.396 422.78L135.993 386.888L136.277 378.836L135.693 369.701L132.995 328.612L122.781 379.14L112.348 455.1C112.859 455.561 113.083 456.26 112.935 456.932C112.714 457.833 111.897 458.46 110.969 458.442H96.8091C95.7437 458.441 94.8809 457.576 94.8818 456.511C94.882 456.338 94.9054 456.166 94.9513 455.999C95.197 455.153 95.9789 454.576 96.8599 454.591Z" fill="#2F2E41"/>
<path d="M177.864 322.826C179.746 320.512 179.396 317.111 177.083 315.229C176.836 315.029 176.572 314.85 176.294 314.696L167.699 287.528L157.945 291.869L168.719 317.113C167.441 319.826 168.604 323.061 171.317 324.338C173.587 325.407 176.293 324.782 177.864 322.826Z" fill="#FFB6B6"/>
<path d="M142.498 236.455C142.498 236.455 152.301 271.144 151.857 274.648C150.941 281.874 105.897 304.087 102.547 294.202L102.967 290.953C101.274 287.568 111.6 274.136 112.101 272.378C112.738 270.132 109.854 262.755 109.854 262.755C109.854 262.755 111.847 256.021 111.529 251.852C111.205 247.683 110.243 248.326 106.717 245.755C103.191 243.19 97.418 231.325 97.418 231.325C97.418 231.325 99.9831 219.78 99.9831 217.533C99.9831 215.286 110.52 211.459 111.8 210.18C112.357 209.436 112.826 208.631 113.198 207.78C113.457 207.261 113.292 206.058 113.569 205.462C113.746 205.073 114.365 205.315 114.548 204.914C114.725 204.525 114.572 204.077 114.748 203.693C114.978 203.186 115.533 202.744 115.751 202.266C116.753 200.073 117.608 198.286 117.874 198.286C118.511 198.286 139.043 201.175 139.043 201.175C140.16 202.904 141.449 204.516 142.888 205.987C145.134 208.228 155.648 213.682 155.648 213.682L142.498 236.455Z" fill="#FF5E0E"/>
<path d="M170.224 294.814C168.62 296.418 160.683 303.782 160.359 301.854C160.04 299.932 159.867 299.702 158.581 299.065C157.296 298.422 157.296 298.104 156.977 295.857C156.659 293.611 153.77 291.364 154.094 290.403C154.412 289.442 154.115 290.664 154.115 289.697C154.115 288.736 153.154 285.21 151.868 284.567C150.589 283.924 148.661 283.288 149.628 281.684C150.589 280.08 140.576 231.962 140.576 231.962L149.557 214.325L155.648 213.683C155.648 213.683 157.499 214.742 158.079 224.29C158.108 224.773 158.636 225.661 158.658 226.189C158.677 226.628 158.192 226.7 158.205 227.171C158.208 227.272 158.211 227.373 158.213 227.475C158.225 227.943 159.489 228.287 159.508 228.739C159.542 229.547 160.039 234.695 160.092 235.451C160.153 236.304 160.224 237.126 160.306 237.916C161.192 246.52 161.51 247.247 162.059 249.994C162.909 254.244 166.433 279.071 166.433 279.071C166.433 279.071 168.998 279.708 168.998 281.955C168.998 284.202 171.827 288.717 170.548 291.282C169.262 293.853 171.827 293.21 170.224 294.814Z" fill="#FF5E0E"/>
<path d="M126.568 197.628C134.97 197.628 141.781 190.817 141.781 182.415C141.781 174.013 134.97 167.203 126.568 167.203C118.166 167.203 111.355 174.013 111.355 182.415C111.355 190.817 118.166 197.628 126.568 197.628Z" fill="#FFB8B8"/>
<path d="M93.7866 214.386C90.5674 213.245 87.3482 212.102 84.129 210.957C84.6838 210.026 85.3905 209.194 86.2196 208.496C89.2847 205.937 93.5153 205.474 97.4067 204.611C101.304 203.748 105.535 201.978 106.96 198.253C108.44 194.38 106.293 190.198 105.048 186.252C103.208 180.715 103.431 174.701 105.677 169.317C108.002 163.927 112.706 159.928 118.399 158.5C124.036 157.248 130.407 159.289 133.873 163.902C138.494 162.516 143.423 164.797 145.356 169.218C146.247 171.249 146.11 173.584 144.986 175.496C143.783 177.315 141.212 178.247 139.275 177.235L140.397 174.386C136.925 175.564 134.668 181.842 135.137 185.481C135.599 189.113 137.721 192.295 139.873 195.262C142.026 198.228 144.32 201.225 145.245 204.771C146.577 209.871 144.776 215.446 141.446 219.535C138.116 223.624 133.422 226.399 128.563 228.441C124.925 229.97 121.145 231.135 117.277 231.919C117.968 230.574 118.652 229.23 119.343 227.886L111.147 232.844C109.562 232.998 107.965 233.091 106.367 233.121C101.718 233.202 96.9751 232.714 92.7197 230.858C88.4583 228.996 84.7149 225.622 83.1731 221.237C82.6788 219.819 82.4448 218.323 82.4824 216.822C86.2504 216.008 90.0185 215.196 93.7866 214.386Z" fill="#2F2E41"/>
<path d="M240.796 492.601H212.582L212.461 492.381C212.1 491.726 211.752 491.033 211.426 490.321C208.52 484.099 207.292 476.983 206.208 470.705L205.392 465.972C205.117 464.382 206.184 462.87 207.774 462.596C208.553 462.462 209.353 462.649 209.991 463.114C214.279 466.234 218.568 469.351 222.86 472.465C224.484 473.647 226.34 475.015 228.117 476.494C228.289 475.661 228.468 474.826 228.647 474.002C228.99 472.424 230.548 471.423 232.126 471.766C232.898 471.934 233.569 472.408 233.987 473.079L237.288 478.383C239.696 482.256 241.821 486.072 241.388 490.189C241.39 490.239 241.386 490.289 241.376 490.338C241.29 491.014 241.129 491.679 240.897 492.32L240.796 492.601Z" fill="#F0F0F0"/>
<path d="M269.115 493.211L1.00702 493.472C0.44796 493.469 -0.0028936 493.014 1.39846e-05 492.455C0.00292157 491.9 0.452083 491.45 1.00702 491.448L269.115 491.186C269.674 491.189 270.124 491.645 270.122 492.204C270.119 492.759 269.669 493.208 269.115 493.211Z" fill="#CACACA"/>
<path d="M76.4181 15.2273C80.3888 15.2273 83.6076 11.9367 83.6076 7.87752C83.6076 3.81835 80.3888 0.52774 76.4181 0.52774C72.4474 0.52774 69.2285 3.81835 69.2285 7.87752C69.2285 11.9367 72.4474 15.2273 76.4181 15.2273Z" fill="#3F3D56"/>
<path d="M101.255 15.2273C105.226 15.2273 108.445 11.9367 108.445 7.87752C108.445 3.81835 105.226 0.52774 101.255 0.52774C97.2843 0.52774 94.0654 3.81835 94.0654 7.87752C94.0654 11.9367 97.2843 15.2273 101.255 15.2273Z" fill="#3F3D56"/>
<path d="M126.091 15.2273C130.062 15.2273 133.28 11.9367 133.28 7.87752C133.28 3.81835 130.062 0.52774 126.091 0.52774C122.12 0.52774 118.901 3.81835 118.901 7.87752C118.901 11.9367 122.12 15.2273 126.091 15.2273Z" fill="#3F3D56"/>
<path d="M154.411 13.6867C154.191 13.6867 153.97 13.6012 153.804 13.431L148.952 8.47193C148.629 8.1415 148.629 7.61346 148.952 7.28302L153.804 2.32439C154.133 1.98897 154.672 1.98357 155.006 2.31111C155.342 2.63947 155.347 3.17788 155.019 3.5133L150.75 7.87748L155.019 12.2421C155.347 12.5775 155.342 13.1159 155.006 13.4443C154.841 13.6062 154.626 13.6867 154.411 13.6867Z" fill="#3F3D56"/>
<path d="M162.563 13.6865C162.348 13.6865 162.134 13.6059 161.969 13.444C161.633 13.1157 161.627 12.5777 161.955 12.2419L166.224 7.87726L161.955 3.51308C161.627 3.17767 161.633 2.63925 161.969 2.31089C162.304 1.98211 162.842 1.98835 163.171 2.32417L168.022 7.28281C168.345 7.61324 168.345 8.14128 168.022 8.47172L163.171 13.4308C163.004 13.601 162.784 13.6865 162.563 13.6865Z" fill="#3F3D56"/>
<path d="M416.348 1.37874H407.328C406.299 1.37874 405.466 2.21189 405.466 3.24061V12.2694C405.466 13.2981 406.299 14.1313 407.328 14.1313H416.348C417.377 14.1313 418.218 13.2981 418.218 12.2694V3.24061C418.218 2.21189 417.377 1.37874 416.348 1.37874Z" fill="#3F3D56"/>
<path d="M394.243 1.37874H385.223C384.194 1.37874 383.361 2.21189 383.361 3.24061V12.2694C383.361 13.2981 384.194 14.1313 385.223 14.1313H394.243C395.272 14.1313 396.114 13.2981 396.114 12.2694V3.24061C396.114 2.21189 395.272 1.37874 394.243 1.37874Z" fill="#3F3D56"/>
<path d="M437.177 1.80383H428.157C427.128 1.80383 426.295 2.63698 426.295 3.66571V12.6945C426.295 13.7232 427.128 14.5564 428.157 14.5564H437.177C438.206 14.5564 439.047 13.7232 439.047 12.6945V3.66571C439.047 2.63698 438.206 1.80383 437.177 1.80383Z" fill="#3F3D56"/>
<path d="M301.217 5.23854H229.114C227.855 5.23854 226.844 6.25875 226.844 7.50853C226.844 8.7583 227.855 9.77847 229.114 9.77847H301.217C302.466 9.77847 303.487 8.75825 303.487 7.50853C303.487 6.2588 302.466 5.23854 301.217 5.23854Z" fill="#3F3D56"/>
</g>
<defs>
<clipPath id="clip0_2034_1256">
<rect width="458" height="492.945" fill="white" transform="translate(0 0.52774)"/>
</clipPath>
</defs>
</svg>
