<svg width="558" height="480" viewBox="0 0 558 480" fill="none" xmlns="http://www.w3.org/2000/svg">
<g clip-path="url(#clip0_2034_1333)">
<path d="M472.508 0.509766H0.288086V278.624H472.508V0.509766Z" fill="#E6E6E6"/>
<path d="M472.22 0.126404H0V28.8706H472.22V0.126404Z" fill="#FF5E0E"/>
<path d="M461.149 37.6995H10.8896V264.786H461.149V37.6995Z" fill="white"/>
<path d="M44.748 19.18C47.3741 19.18 49.5029 17.0511 49.5029 14.4251C49.5029 11.7991 47.3741 9.67023 44.748 9.67023C42.122 9.67023 39.9932 11.7991 39.9932 14.4251C39.9932 17.0511 42.122 19.18 44.748 19.18Z" fill="white"/>
<path d="M62.7969 19.18C65.4229 19.18 67.5517 17.0511 67.5517 14.4251C67.5517 11.7991 65.4229 9.67023 62.7969 9.67023C60.1708 9.67023 58.042 11.7991 58.042 14.4251C58.042 17.0511 60.1708 19.18 62.7969 19.18Z" fill="white"/>
<path d="M26.6523 19.18C29.2784 19.18 31.4072 17.0511 31.4072 14.4251C31.4072 11.7991 29.2784 9.67023 26.6523 9.67023C24.0263 9.67023 21.8975 11.7991 21.8975 14.4251C21.8975 17.0511 24.0263 19.18 26.6523 19.18Z" fill="white"/>
<path d="M408.635 76.9143H63.4033V85.9313H408.635V76.9143Z" fill="#E6E6E6"/>
<path d="M297.565 99.4567H174.474V108.474H297.565V99.4567Z" fill="#E6E6E6"/>
<path d="M297.565 145.182H174.474V154.199H297.565V145.182Z" fill="#E6E6E6"/>
<path d="M297.565 168.602H174.474V177.619H297.565V168.602Z" fill="#E6E6E6"/>
<path d="M358.63 121.999H113.409V131.016H358.63V121.999Z" fill="#E6E6E6"/>
<path d="M408.635 209.558H343.87V225.571H408.635V209.558Z" fill="#FF5E0E"/>
<path d="M471.303 469.774L460.427 469.773L455.252 427.82L471.306 427.821L471.303 469.774Z" fill="#9F616A"/>
<path d="M452.658 466.665H473.634V479.873H439.45C439.45 476.37 440.842 473.01 443.319 470.534C445.795 468.057 449.155 466.665 452.658 466.665Z" fill="#2F2E41"/>
<path d="M512.114 469.774L501.237 469.773L496.062 427.82L512.116 427.821L512.114 469.774Z" fill="#9F616A"/>
<path d="M493.468 466.665H514.445V479.873H480.261C480.261 478.138 480.602 476.421 481.266 474.818C481.93 473.216 482.903 471.76 484.129 470.534C485.356 469.307 486.812 468.334 488.414 467.671C490.016 467.007 491.734 466.665 493.468 466.665Z" fill="#2F2E41"/>
<path d="M510.786 344.823C509.615 344.069 508.622 343.067 507.879 341.889C507.136 340.71 506.661 339.383 506.487 338C506.312 336.618 506.443 335.214 506.87 333.888C507.297 332.561 508.009 331.345 508.957 330.323L501.795 228.689L522.425 230.69L522.991 330.22C524.602 331.927 525.53 334.164 525.601 336.509C525.671 338.854 524.879 341.143 523.375 342.943C521.87 344.743 519.758 345.928 517.438 346.275C515.118 346.621 512.751 346.105 510.786 344.823Z" fill="#9F616A"/>
<path d="M470.79 448.638L458.816 448.067C457.796 448.019 456.833 447.581 456.126 446.845C455.419 446.108 455.021 445.129 455.013 444.108L454.178 322.956C454.174 322.381 454.294 321.812 454.531 321.287C454.767 320.763 455.114 320.296 455.547 319.918C455.981 319.54 456.491 319.261 457.043 319.098C457.594 318.936 458.175 318.894 458.744 318.977L506.646 325.93C507.593 326.063 508.46 326.532 509.088 327.253C509.716 327.973 510.063 328.896 510.065 329.852L516.226 442.112C516.23 442.638 516.13 443.161 515.931 443.649C515.732 444.136 515.439 444.58 515.067 444.954C514.696 445.328 514.255 445.625 513.769 445.827C513.282 446.03 512.761 446.134 512.234 446.134H499.325C498.373 446.138 497.451 445.8 496.727 445.181C496.003 444.562 495.526 443.704 495.381 442.762C495.381 442.762 485.631 358.557 484.292 358.606C482.946 358.632 474.944 445.125 474.944 445.125C474.825 446.093 474.356 446.985 473.626 447.633C472.896 448.281 471.955 448.64 470.979 448.643C470.916 448.643 470.853 448.642 470.79 448.638Z" fill="#2F2E41"/>
<path d="M506.463 262.839C505.98 262.492 505.581 262.041 505.296 261.518C505.011 260.996 504.846 260.417 504.814 259.822L503.303 232.429C503.153 229.716 504.014 227.042 505.718 224.925C507.423 222.808 509.851 221.397 512.535 220.964C515.218 220.532 517.966 221.108 520.25 222.581C522.534 224.055 524.191 226.322 524.903 228.946L531.543 253.436C531.819 254.458 531.678 255.548 531.151 256.466C530.625 257.384 529.756 258.056 528.734 258.334L509.846 263.456C509.272 263.613 508.67 263.639 508.085 263.532C507.499 263.425 506.945 263.189 506.463 262.839Z" fill="#3F3D56"/>
<path d="M488.82 197.737C500.854 197.737 510.61 187.981 510.61 175.947C510.61 163.912 500.854 154.156 488.82 154.156C476.785 154.156 467.029 163.912 467.029 175.947C467.029 187.981 476.785 197.737 488.82 197.737Z" fill="#9F616A"/>
<path d="M409.856 218.758C409.965 219.236 410.036 219.723 410.068 220.213L448.18 242.199L457.443 236.866L467.319 249.795L447.501 263.919L404.022 229.618C402.249 230.274 400.317 230.375 398.485 229.907C396.653 229.439 395.007 228.424 393.766 226.998C392.525 225.572 391.747 223.801 391.536 221.922C391.326 220.043 391.692 218.144 392.587 216.479C393.482 214.813 394.863 213.459 396.546 212.597C398.229 211.735 400.134 211.406 402.009 211.653C403.883 211.901 405.638 212.713 407.04 213.982C408.442 215.251 409.424 216.917 409.856 218.758Z" fill="#9F616A"/>
<path d="M449.541 240.329C449.478 239.738 449.548 239.139 449.746 238.578C449.945 238.017 450.267 237.508 450.689 237.088L470.086 217.687C472.007 215.765 474.573 214.622 477.287 214.48C480.001 214.337 482.672 215.204 484.785 216.914C486.898 218.625 488.302 221.056 488.728 223.741C489.154 226.425 488.571 229.172 487.091 231.452L473.278 252.738C472.701 253.625 471.795 254.247 470.76 254.468C469.724 254.688 468.644 254.489 467.755 253.914L451.339 243.26C450.839 242.937 450.418 242.506 450.107 241.999C449.796 241.492 449.603 240.921 449.541 240.329Z" fill="#3F3D56"/>
<path d="M504.24 193.186C500.175 197.516 492.625 195.192 492.096 189.276C492.054 188.817 492.057 188.355 492.105 187.896C492.378 185.275 493.892 182.897 493.529 180.13C493.447 179.441 493.191 178.785 492.784 178.223C489.545 173.885 481.941 180.163 478.883 176.237C477.009 173.829 479.212 170.038 477.774 167.346C475.875 163.795 470.251 165.547 466.725 163.602C462.801 161.437 463.036 155.417 465.619 151.755C468.769 147.289 474.292 144.906 479.746 144.563C485.2 144.22 490.616 145.694 495.708 147.678C501.494 149.933 507.231 153.049 510.791 158.136C515.121 164.323 515.537 172.64 513.372 179.874C512.055 184.274 507.559 189.65 504.24 193.186Z" fill="#2F2E41"/>
<path d="M557.113 479.708H385.885C385.65 479.708 385.424 479.614 385.258 479.448C385.092 479.282 384.998 479.056 384.998 478.821C384.998 478.585 385.092 478.36 385.258 478.193C385.424 478.027 385.65 477.933 385.885 477.933H557.113C557.348 477.933 557.574 478.027 557.74 478.193C557.907 478.36 558 478.585 558 478.821C558 479.056 557.907 479.282 557.74 479.448C557.574 479.614 557.348 479.708 557.113 479.708Z" fill="#3F3D56"/>
<path d="M510.57 212.292C510.191 212.02 509.805 211.753 509.412 211.49C507.32 210.099 505.054 208.988 502.673 208.186V202.461H485.816V207.773C480.228 209.314 475.217 212.465 471.405 216.832C467.594 221.199 465.15 226.591 464.379 232.336L452.901 317.551C452.827 318.084 452.862 318.626 453.004 319.145C453.146 319.664 453.392 320.148 453.727 320.569C454.054 320.987 454.463 321.334 454.929 321.589C455.395 321.844 455.907 322.002 456.436 322.053C460.413 322.45 468.661 323.991 479.219 329.857C484.295 332.669 490.01 334.128 495.814 334.093C500.422 334.075 504.992 333.261 509.322 331.687C510.056 331.417 510.694 330.935 511.155 330.303C511.615 329.671 511.879 328.916 511.911 328.134C512.324 318.964 514.742 271.759 521.78 242.965C523.149 237.317 522.814 231.39 520.819 225.931C518.824 220.473 515.258 215.727 510.57 212.292Z" fill="#3F3D56"/>
</g>
<defs>
<clipPath id="clip0_2034_1333">
<rect width="558" height="479.747" fill="white" transform="translate(0 0.126404)"/>
</clipPath>
</defs>
</svg>
