<svg width="653" height="386" viewBox="0 0 653 386" fill="none" xmlns="http://www.w3.org/2000/svg">
<g clip-path="url(#clip0_2026_1375)">
<path d="M203.628 227.612V21.0605C203.628 10.1846 212.477 1.33643 223.353 1.33643H632.903C643.779 1.33643 652.628 10.1846 652.628 21.0605V227.612C652.628 238.488 643.779 247.336 632.903 247.336H223.353C212.477 247.336 203.628 238.488 203.628 227.612ZM650.628 21.0605C650.628 11.2718 642.693 3.33643 632.904 3.33643H223.353C213.564 3.33643 205.628 11.272 205.628 21.061V227.612C205.628 237.401 213.564 245.336 223.353 245.336H501.923C584.051 245.336 650.628 178.759 650.628 96.6316L650.628 21.0605Z" fill="#E6E6E6"/>
<path d="M347.915 38.9072H118.381C111.575 38.9072 106.041 44.4415 106.041 51.2476V135.567C106.041 142.373 111.575 147.907 118.381 147.907H347.915C354.721 147.907 360.255 142.373 360.255 135.567V51.2476C360.255 44.4415 354.721 38.9072 347.915 38.9072Z" fill="white"/>
<path d="M347.915 38.9072H118.381C111.575 38.9072 106.041 44.4415 106.041 51.2476V135.567C106.041 142.373 111.575 147.907 118.381 147.907H347.915C354.721 147.907 360.255 142.373 360.255 135.567V51.2476C360.255 44.4415 354.721 38.9072 347.915 38.9072ZM358.958 135.567C358.958 141.659 354.007 146.61 347.915 146.61H118.381C112.289 146.61 107.339 141.659 107.339 135.567V51.2476C107.339 45.1553 112.289 40.2048 118.381 40.2048H347.915C354.007 40.2048 358.958 45.1553 358.958 51.2476V135.567Z" fill="#3F3D56"/>
<path d="M129.128 77.3364H333.128C335.061 77.3364 336.628 78.9034 336.628 80.8364C336.628 82.7694 335.061 84.3364 333.128 84.3364H129.128C127.195 84.3364 125.628 82.7694 125.628 80.8364C125.628 78.9034 127.195 77.3364 129.128 77.3364Z" fill="#FF5E0E"/>
<path d="M129.128 100.336H203.128C205.061 100.336 206.628 101.903 206.628 103.836C206.628 105.769 205.061 107.336 203.128 107.336H129.128C127.195 107.336 125.628 105.769 125.628 103.836C125.628 101.903 127.195 100.336 129.128 100.336Z" fill="#FF5E0E"/>
<path d="M574.581 66.6436H434.581C432.375 66.6436 430.581 64.8491 430.581 62.6436C430.581 60.438 432.375 58.6436 434.581 58.6436H574.581C576.787 58.6436 578.581 60.438 578.581 62.6436C578.581 64.8491 576.787 66.6436 574.581 66.6436Z" fill="#E6E6E6"/>
<path d="M601.121 153.392H406.04V152.392C470.273 162.242 535.365 161.432 601.121 152.392V153.392Z" fill="#E6E6E6"/>
<path d="M574.581 117.644H434.581C432.375 117.644 430.581 115.849 430.581 113.644C430.581 111.438 432.375 109.644 434.581 109.644H574.581C576.787 109.644 578.581 111.438 578.581 113.644C578.581 115.849 576.787 117.644 574.581 117.644Z" fill="#E6E6E6"/>
<path d="M602.121 166.392H407.04V167.392H602.121V166.392Z" fill="#E6E6E6"/>
<path d="M574.581 91.3364H434.581C432.375 91.3364 430.581 89.542 430.581 87.3364C430.581 85.1309 432.375 83.3364 434.581 83.3364H574.581C576.787 83.3364 578.581 85.1309 578.581 87.3364C578.581 89.542 576.787 91.3364 574.581 91.3364Z" fill="#E6E6E6"/>
<path d="M602.121 180.392C534.784 175.811 469.389 175.082 407.04 180.392V179.392H602.121V180.392Z" fill="#E6E6E6"/>
<path d="M332.893 164.119L324.663 160.22C328.039 164.931 330.947 172.288 332.504 178.143C335.141 172.689 339.391 166.016 343.598 162.031L334.9 164.268C340.26 138 360.419 119.143 383.504 119.143V117.143C359.391 117.143 338.365 136.79 332.893 164.119Z" fill="#3F3D56"/>
<path d="M370.772 204.143H318.772C316.567 204.143 314.772 202.348 314.772 200.143C314.772 197.937 316.567 196.143 318.772 196.143H370.772C372.978 196.143 374.772 197.937 374.772 200.143C374.772 202.348 372.978 204.143 370.772 204.143Z" fill="#FF5E0E"/>
<path d="M237.628 117.336C245.36 117.336 251.628 111.068 251.628 103.336C251.628 95.6044 245.36 89.3364 237.628 89.3364C229.896 89.3364 223.628 95.6044 223.628 103.336C223.628 111.068 229.896 117.336 237.628 117.336Z" fill="#FF5E0E"/>
<path d="M244.91 95.1386C244.243 94.7484 243.224 94.9507 242.858 95.6768C241.193 98.9733 239.529 102.27 237.865 105.567C236.523 103.464 234.806 101.627 232.814 100.088C232.172 99.5928 231.133 99.9908 230.761 100.627C230.308 101.401 230.656 102.182 231.299 102.679C233.622 104.473 235.414 106.886 236.62 109.548C237.079 110.56 238.732 110.496 239.211 109.548C241.29 105.429 243.369 101.31 245.448 97.1909C245.813 96.468 245.639 95.5651 244.91 95.1386Z" fill="white"/>
<path d="M405.628 76.3364C413.36 76.3364 419.628 70.0684 419.628 62.3364C419.628 54.6044 413.36 48.3364 405.628 48.3364C397.896 48.3364 391.628 54.6044 391.628 62.3364C391.628 70.0684 397.896 76.3364 405.628 76.3364Z" fill="#FF5E0E"/>
<path d="M412.91 54.1386C412.243 53.7484 411.224 53.9507 410.858 54.6768C409.193 57.9733 407.529 61.2699 405.865 64.5665C404.523 62.4636 402.806 60.6274 400.814 59.0884C400.172 58.5928 399.133 58.9908 398.761 59.6265C398.308 60.4014 398.656 61.1819 399.299 61.6788C401.622 63.4735 403.414 65.8856 404.62 68.5477C405.079 69.5597 406.732 69.4958 407.211 68.5477C409.29 64.4287 411.369 60.3098 413.448 56.1909C413.813 55.468 413.639 54.5651 412.91 54.1386Z" fill="white"/>
<path d="M606.628 99.3364C614.36 99.3364 620.628 93.0684 620.628 85.3364C620.628 77.6044 614.36 71.3364 606.628 71.3364C598.896 71.3364 592.628 77.6044 592.628 85.3364C592.628 93.0684 598.896 99.3364 606.628 99.3364Z" fill="#FF5E0E"/>
<path d="M613.91 77.1386C613.243 76.7484 612.224 76.9507 611.858 77.6768C610.193 80.9733 608.529 84.2699 606.865 87.5665C605.523 85.4636 603.806 83.6274 601.814 82.0884C601.172 81.5928 600.133 81.9908 599.761 82.6265C599.308 83.4014 599.656 84.182 600.299 84.6788C602.622 86.4735 604.414 88.8856 605.62 91.5477C606.079 92.5597 607.732 92.4958 608.211 91.5477C610.29 87.4287 612.369 83.3098 614.448 79.1909C614.813 78.468 614.639 77.5651 613.91 77.1386Z" fill="white"/>
<path d="M292.844 172.917H259.123C257.029 172.917 255.326 171.214 255.326 169.12C250.867 156.088 250.955 143.319 255.326 130.797C255.326 128.703 257.029 127 259.123 127H292.844C294.938 127 296.641 128.703 296.641 130.797V169.12C296.641 171.214 294.938 172.917 292.844 172.917Z" fill="#E6E6E6"/>
<path d="M266.348 128.131C260.885 128.131 256.457 132.56 256.457 138.022V168.307C256.457 170.228 258.015 171.786 259.936 171.786H278.584C287.932 171.786 295.51 164.208 295.51 154.86V131.61C295.51 129.689 293.952 128.131 292.031 128.131H266.348Z" fill="white"/>
<path d="M283.836 139.268H268.048C267.65 139.268 267.326 138.944 267.326 138.546C267.326 138.148 267.65 137.825 268.048 137.825H283.836C284.234 137.825 284.558 138.148 284.558 138.546C284.558 138.944 284.234 139.268 283.836 139.268Z" fill="#E6E6E6"/>
<path d="M283.836 154.661H268.048C267.65 154.661 267.326 154.337 267.326 153.939C267.326 153.541 267.65 153.217 268.048 153.217H283.836C284.234 153.217 284.558 153.541 284.558 153.939C284.558 154.337 284.234 154.661 283.836 154.661Z" fill="#E6E6E6"/>
<path d="M292.308 146.97H259.576C259.178 146.97 258.854 146.646 258.854 146.248C258.854 145.85 259.178 145.526 259.576 145.526H292.308C292.706 145.526 293.03 145.85 293.03 146.248C293.03 146.646 292.706 146.97 292.308 146.97Z" fill="#E6E6E6"/>
<path d="M292.694 160.919H279.036C278.638 160.919 278.314 160.595 278.314 160.197C278.314 159.799 278.638 159.476 279.036 159.476H292.694C293.092 159.476 293.416 159.799 293.416 160.197C293.416 160.595 293.092 160.919 292.694 160.919Z" fill="#E6E6E6"/>
<path d="M60.5163 68.0709C61.4045 63.9746 61.6655 66.9922 63.5975 63.2766C62.2714 68.078 64.7184 66.5057 67.9689 70.2706C90.812 73.8523 92.2514 66.0286 100.705 66.2684L100.748 66.2681C102.608 66.2379 103.564 64.0105 102.443 62.5261C99.6737 58.8607 96.6212 53.205 99.51 49.6443C104.628 43.3363 100.118 30.4008 97.912 33.1974C97.912 22.4103 84.6278 15.3363 79.4748 17.089C69.9531 20.3275 61.1353 24.6954 60.0673 34.4686C59.9006 35.9947 59.6849 37.5119 59.4108 39.0224C58.854 42.0898 56.5609 42.9044 57.3501 45.9169L59.8178 48.4271C60.9759 52.8479 60.61 57.489 59.0236 61.7748C58.1466 64.1439 58.025 66.1751 60.5163 68.0709Z" fill="#2F2E41"/>
<path d="M84.298 53.5966C92.206 53.5966 98.6166 47.1859 98.6166 39.278C98.6166 31.3701 92.206 24.9595 84.298 24.9595C76.3901 24.9595 69.9795 31.3701 69.9795 39.278C69.9795 47.1859 76.3901 53.5966 84.298 53.5966Z" fill="#A0616A"/>
<path d="M61.9932 365.697L69.367 365.871L73.4773 332.743L62.5954 332.486L61.9932 365.697Z" fill="#A0616A"/>
<path d="M87.2916 381.081C87.2916 382.327 86.4076 383.337 85.3171 383.337H70.6807C70.6807 383.337 69.2403 377.547 63.3678 375.055L62.9625 383.337H55.4121L56.3269 370.02C56.3269 370.02 54.3071 362.896 58.5018 359.254C62.6965 355.613 59.2989 356.12 59.2989 356.12L60.9491 347.878L72.3585 349.22L72.4424 362.157L77.9794 374.999L86.1007 379.011C86.8235 379.368 87.2916 380.181 87.2916 381.081Z" fill="#2F2E41"/>
<path d="M70.1035 335.641L75.9605 340.124L98.792 315.771L90.149 309.155L70.1035 335.641Z" fill="#A0616A"/>
<path d="M81.4895 362.974C80.7559 363.98 79.4468 364.276 78.5654 363.634L66.7364 355.014C66.7364 355.014 68.9821 349.486 65.7033 344.014L60.4987 350.469L54.3965 346.022L62.978 335.799C62.978 335.799 65.5412 328.852 71.076 328.379C76.6108 327.906 73.5663 326.315 73.5663 326.315L79.7537 320.625L88.1846 328.429L80.6332 338.935L77.5453 352.574L81.7463 360.599C82.1202 361.313 82.0193 362.247 81.4895 362.974Z" fill="#2F2E41"/>
<path d="M49.0027 196.309C49.4472 198.132 48.6283 206.615 49.0862 209.534C50.2504 216.956 60.8876 257.421 59.0526 268.956C52.3292 311.222 61.628 338.336 61.628 338.336H76.628L84.628 210.336L92.4359 220.629L107.714 266.26L80.6878 314.852L94.7994 326.506L136.933 259.515L106.993 147.451L105.184 140.685L64.731 139.556L66.9818 142.929L61.8614 147.988C61.8614 147.988 61.8546 148.002 61.8274 148.029C61.0386 149.131 43.5083 173.794 49.0027 196.309Z" fill="#2F2E41"/>
<path d="M61.8281 148.029C66.5133 149.702 98.174 147.975 106.994 147.451L105.185 140.685L64.7317 139.556L66.9825 142.929L61.8621 147.988C61.8621 147.988 61.8553 148.002 61.8281 148.029Z" fill="#A0616A"/>
<path d="M114.189 93.8427L112.732 101.574L112.379 103.429L104.629 119.336L105.647 142.657C106.299 145.386 78.7802 139.192 64.4843 145.591L53.3564 92.3709L64.6399 67.8417L73.4704 62.9358L74.9422 57.0488H93.6482C94.6445 61.7143 93.5645 64.0132 91.6285 65.3363L96.3144 77.8329L114.189 93.8427Z" fill="#FF5E0E"/>
<path d="M128.82 48.2385C128.589 50.2407 127.924 52.0246 127.006 53.3696L126.005 72.5827L116.877 71.839L118.875 52.4293C118.288 50.9103 118.048 49.0218 118.28 47.0196C118.809 42.4455 121.597 39.0104 124.508 39.347C127.419 39.6836 129.349 43.6645 128.82 48.2385Z" fill="#A0616A"/>
<path d="M92.4374 68.4299L93.6283 71.3364C93.6283 71.3364 76.2281 69.5932 76.5996 78.6782C76.9166 86.4297 109.669 117.15 111.234 117.867C115.869 119.991 121.256 117.132 122.095 112.103C129.47 93.0761 130.998 75.9218 127.628 60.3364H117.628L114.372 72.6314L114.189 81.9837L108.916 93.2321L91.6283 71.3364L92.4374 68.4299Z" fill="#FF5E0E"/>
<path d="M34.4639 175.224C35.1069 173.265 35.254 171.323 34.9775 169.68L42.2811 151.405L33.4832 148.184L27.0217 167.069C25.8255 168.229 24.7934 169.88 24.1505 171.839C22.6817 176.314 23.7998 180.7 26.6478 181.635C29.4958 182.569 32.9952 179.699 34.4639 175.224Z" fill="#A0616A"/>
<path d="M76.5939 68.4397C76.5939 68.4397 65.7913 64.3435 59.6588 69.3487C57.1298 71.4129 45.945 85.6362 44.2222 104.785C44.0871 106.285 43.0648 107.576 42.4888 108.98C38.9368 117.636 32.8219 121.623 30.2217 129.026C29.2056 131.919 31.0693 139.401 30.4273 141.897C27.0655 154.966 28.2786 162.417 28.2786 162.417L37.3571 165.439L42.2818 161.959L50.3705 132.421L76.5939 68.4397Z" fill="#FF5E0E"/>
<path d="M157.844 45.917H124.123C122.029 45.917 120.326 44.2137 120.326 42.12C115.867 29.0884 115.955 16.3191 120.326 3.79696C120.326 1.70328 122.029 0 124.123 0H157.844C159.938 0 161.641 1.70328 161.641 3.79696V42.12C161.641 44.2137 159.938 45.917 157.844 45.917Z" fill="#E6E6E6"/>
<path d="M131.348 1.13135C125.885 1.13135 121.457 5.5596 121.457 11.0221V41.307C121.457 43.2282 123.015 44.7857 124.936 44.7857H143.584C152.932 44.7857 160.51 37.2077 160.51 27.8598V4.61009C160.51 2.68884 158.952 1.13135 157.031 1.13135H131.348Z" fill="white"/>
<path d="M148.836 12.2683H133.048C132.65 12.2683 132.326 11.9445 132.326 11.5464C132.326 11.1484 132.65 10.8247 133.048 10.8247H148.836C149.234 10.8247 149.558 11.1484 149.558 11.5464C149.558 11.9445 149.234 12.2683 148.836 12.2683Z" fill="#E6E6E6"/>
<path d="M148.836 27.6609H133.048C132.65 27.6609 132.326 27.337 132.326 26.939C132.326 26.541 132.65 26.2173 133.048 26.2173H148.836C149.234 26.2173 149.558 26.541 149.558 26.939C149.558 27.337 149.234 27.6609 148.836 27.6609Z" fill="#E6E6E6"/>
<path d="M157.308 19.9695H124.576C124.178 19.9695 123.854 19.6456 123.854 19.2476C123.854 18.8496 124.178 18.5259 124.576 18.5259H157.308C157.706 18.5259 158.03 18.8496 158.03 19.2476C158.03 19.6456 157.706 19.9695 157.308 19.9695Z" fill="#E6E6E6"/>
<path d="M157.694 33.9192H144.036C143.638 33.9192 143.314 33.5953 143.314 33.1973C143.314 32.7993 143.638 32.4756 144.036 32.4756H157.694C158.092 32.4756 158.416 32.7993 158.416 33.1973C158.416 33.5953 158.092 33.9192 157.694 33.9192Z" fill="#E6E6E6"/>
<path d="M167.551 366.84C169.617 366.969 170.759 364.403 169.196 362.907L169.04 362.288C169.061 362.239 169.081 362.189 169.102 362.14C171.191 357.158 178.272 357.193 180.343 362.182C182.182 366.61 184.523 371.046 185.099 375.728C185.357 377.795 185.241 379.9 184.783 381.928C189.091 372.518 191.358 362.242 191.358 351.907C191.358 349.311 191.216 346.714 190.925 344.125C190.686 342.006 190.357 339.9 189.93 337.814C187.625 326.537 182.632 315.796 175.43 306.825C171.968 304.932 169.081 301.974 167.337 298.428C166.711 297.149 166.22 295.773 165.987 294.372C166.381 294.424 167.473 288.423 167.176 288.055C167.725 287.222 168.707 286.808 169.307 285.995C172.289 281.951 176.398 282.657 178.543 288.152C183.126 290.465 183.17 294.3 180.358 297.989C178.57 300.336 178.324 303.511 176.754 306.024C176.916 306.23 177.084 306.431 177.245 306.637C180.206 310.435 182.767 314.517 184.926 318.806C184.316 314.04 185.217 308.298 186.753 304.596C188.501 300.379 191.778 296.827 194.663 293.181C198.129 288.802 205.236 290.713 205.847 296.265C205.853 296.318 205.859 296.372 205.864 296.426C205.436 296.668 205.016 296.924 204.606 297.196C202.266 298.743 203.075 302.37 205.847 302.797L205.91 302.807C205.755 304.351 205.49 305.882 205.102 307.386C208.804 321.702 200.812 326.916 189.401 327.151C189.149 327.28 188.903 327.409 188.651 327.532C189.808 330.787 190.731 334.126 191.416 337.511C192.029 340.501 192.456 343.524 192.695 346.56C192.992 350.39 192.966 354.239 192.643 358.063L192.662 357.927C193.483 353.716 195.769 349.783 199.089 347.057C204.035 342.994 211.022 341.498 216.357 338.233C218.926 336.661 222.217 338.692 221.769 341.67L221.747 341.812C220.952 342.135 220.177 342.51 219.428 342.93C218.999 343.171 218.58 343.428 218.169 343.7C215.83 345.247 216.638 348.873 219.41 349.301L219.473 349.311C219.518 349.317 219.557 349.324 219.602 349.33C218.24 352.566 216.341 355.57 213.964 358.16C211.649 370.657 201.708 371.843 191.074 368.203H191.067C189.905 373.267 188.206 378.214 186.023 382.929H168.003C167.938 382.729 167.88 382.522 167.822 382.322C169.488 382.426 171.167 382.329 172.808 382.025C171.471 380.385 170.134 378.731 168.797 377.091C168.765 377.058 168.739 377.026 168.713 376.994C168.035 376.154 167.35 375.321 166.672 374.481L166.672 374.48C166.629 371.903 166.939 369.333 167.551 366.84Z" fill="#F2F2F2"/>
<path d="M0 384.476C0 385.136 0.53003 385.666 1.19006 385.666H219.48C220.14 385.666 220.67 385.136 220.67 384.476C220.67 383.816 220.14 383.286 219.48 383.286H1.19006C0.53003 383.286 0 383.816 0 384.476Z" fill="#CCCCCC"/>
<path d="M88.18 22.3362H85.265C76.7369 22.3458 62.1604 34.4081 67.8008 42.8686C62.9844 55.7157 62.8089 62.4001 64.8534 65.8985C65.606 67.1862 67.1004 67.7729 68.5883 67.6685C68.7867 67.6546 68.9864 67.6503 69.1876 67.657C70.6291 67.7046 72.5627 74.481 73.9044 75.002L77.4662 73.9193L83.3085 68.0814L80.344 59.1774L74.6079 54.6894L75.3894 44.2957C71.55 35.4716 75.727 35.0397 78.0776 32.1932L78.3154 41.3252L81.6819 38.0763C84.424 38.1474 87.6286 39.3362 89.7589 36.8635C93.6286 32.3362 97.6402 37.8023 102.211 38.9071L103.629 37.7848C103.677 35.2388 103.301 32.7805 102.569 30.5793C102.225 29.5431 101.346 28.6892 101.309 27.6592C101.17 23.7937 93.8645 20.0444 88.18 22.3362Z" fill="#2F2E41"/>
</g>
<defs>
<clipPath id="clip0_2026_1375">
<rect width="652.628" height="385.666" fill="white"/>
</clipPath>
</defs>
</svg>
