<svg width="133" height="15" viewBox="0 0 133 15" fill="none" xmlns="http://www.w3.org/2000/svg">
<path d="M5.06344 3.6C7.14344 3.6 8.69544 5.232 8.69544 7.92C8.69544 10.608 7.14344 12.24 5.06344 12.24C3.78344 12.24 2.98344 11.632 2.55144 11.024H2.51944V14.784H0.823438V3.824H2.51944V4.784H2.55144C2.98344 4.208 3.78344 3.6 5.06344 3.6ZM4.74344 10.864C6.21544 10.864 6.99944 9.52 6.99944 7.92C6.99944 6.32 6.21544 4.976 4.74344 4.976C3.38344 4.976 2.53544 6.096 2.53544 7.92C2.53544 9.728 3.38344 10.864 4.74344 10.864ZM13.5972 12.24C11.0372 12.24 9.48519 10.464 9.48519 7.92C9.48519 5.376 11.0372 3.6 13.5972 3.6C16.1572 3.6 17.7092 5.376 17.7092 7.92C17.7092 10.464 16.1572 12.24 13.5972 12.24ZM13.5972 10.864C15.1972 10.864 16.0292 9.6 16.0292 7.92C16.0292 6.224 15.1972 4.976 13.5972 4.976C11.9972 4.976 11.1652 6.224 11.1652 7.92C11.1652 9.6 11.9972 10.864 13.5972 10.864ZM24.6143 0.559999H26.2943V12H24.6143V11.056H24.5823C24.1503 11.616 23.3503 12.24 22.0863 12.24C19.9903 12.24 18.4383 10.608 18.4383 7.92C18.4383 5.232 19.9903 3.6 22.0863 3.6C23.3503 3.6 24.1503 4.192 24.5823 4.816H24.6143V0.559999ZM22.3743 10.864C23.7503 10.864 24.5983 9.728 24.5983 7.92C24.5983 6.096 23.7503 4.976 22.3743 4.976C20.9023 4.976 20.1183 6.32 20.1183 7.92C20.1183 9.52 20.9023 10.864 22.3743 10.864ZM28.7206 2.448C28.2566 2.448 27.7766 2.128 27.7766 1.552C27.7766 0.976 28.2566 0.672 28.7206 0.672C29.2166 0.672 29.6806 0.976 29.6806 1.552C29.6806 2.128 29.2166 2.448 28.7206 2.448ZM27.8886 3.824H29.5686V12H27.8886V3.824ZM32.0956 2.448C31.6316 2.448 31.1516 2.128 31.1516 1.552C31.1516 0.976 31.6316 0.672 32.0956 0.672C32.5916 0.672 33.0556 0.976 33.0556 1.552C33.0556 2.128 32.5916 2.448 32.0956 2.448ZM31.2636 3.824H32.9436V12H31.2636V3.824ZM44.6196 10.736C43.5956 10.736 42.8276 10.256 42.3956 9.44H42.3636C41.9476 10.192 41.3076 10.672 40.2036 10.672C38.7476 10.672 37.5796 9.456 37.5796 7.36C37.5796 5.152 38.9076 3.728 40.5236 3.728C41.5796 3.728 42.3316 4.32 42.6196 5.024H42.6516L42.8116 3.84H44.2676L43.7556 7.856C43.6116 8.944 43.9636 9.52 44.7316 9.52C45.6756 9.52 46.2996 8.656 46.2996 6.88C46.2996 4 44.3476 1.808 41.1316 1.808C37.8836 1.808 35.7076 4.4 35.7076 7.232C35.7076 10.384 37.8996 12.48 40.9716 12.48C41.9636 12.48 42.8916 12.384 43.8356 12L44.2836 13.024C43.2276 13.568 42.1236 13.712 40.9716 13.712C37.0836 13.712 34.3956 11.184 34.3956 7.232C34.3956 3.6 37.1956 0.575999 41.1316 0.575999C45.1796 0.575999 47.5636 3.408 47.5636 6.832C47.5636 9.824 46.0276 10.736 44.6196 10.736ZM40.5396 9.344C41.7716 9.344 42.3636 8.304 42.3636 6.96C42.3636 5.68 41.7236 5.056 40.8436 5.056C39.6756 5.056 39.0196 6.048 39.0196 7.44C39.0196 8.528 39.4676 9.344 40.5396 9.344ZM53.1103 3.6C55.1903 3.6 56.7423 5.232 56.7423 7.92C56.7423 10.608 55.1903 12.24 53.1103 12.24C51.8303 12.24 51.0303 11.632 50.5983 11.024H50.5663V14.784H48.8703V3.824H50.5663V4.784H50.5983C51.0303 4.208 51.8303 3.6 53.1103 3.6ZM52.7903 10.864C54.2623 10.864 55.0463 9.52 55.0463 7.92C55.0463 6.32 54.2623 4.976 52.7903 4.976C51.4303 4.976 50.5823 6.096 50.5823 7.92C50.5823 9.728 51.4303 10.864 52.7903 10.864ZM61.6441 12.24C59.0841 12.24 57.5321 10.464 57.5321 7.92C57.5321 5.376 59.0841 3.6 61.6441 3.6C64.2041 3.6 65.7561 5.376 65.7561 7.92C65.7561 10.464 64.2041 12.24 61.6441 12.24ZM61.6441 10.864C63.2441 10.864 64.0761 9.6 64.0761 7.92C64.0761 6.224 63.2441 4.976 61.6441 4.976C60.0441 4.976 59.2121 6.224 59.2121 7.92C59.2121 9.6 60.0441 10.864 61.6441 10.864ZM72.6612 0.559999H74.3412V12H72.6612V11.056H72.6292C72.1972 11.616 71.3972 12.24 70.1332 12.24C68.0372 12.24 66.4852 10.608 66.4852 7.92C66.4852 5.232 68.0372 3.6 70.1332 3.6C71.3972 3.6 72.1972 4.192 72.6292 4.816H72.6612V0.559999ZM70.4212 10.864C71.7972 10.864 72.6452 9.728 72.6452 7.92C72.6452 6.096 71.7972 4.976 70.4212 4.976C68.9492 4.976 68.1652 6.32 68.1652 7.92C68.1652 9.52 68.9492 10.864 70.4212 10.864ZM76.7674 2.448C76.3034 2.448 75.8234 2.128 75.8234 1.552C75.8234 0.976 76.3034 0.672 76.7674 0.672C77.2634 0.672 77.7274 0.976 77.7274 1.552C77.7274 2.128 77.2634 2.448 76.7674 2.448ZM75.9354 3.824H77.6154V12H75.9354V3.824ZM80.1424 2.448C79.6784 2.448 79.1984 2.128 79.1984 1.552C79.1984 0.976 79.6784 0.672 80.1424 0.672C80.6384 0.672 81.1024 0.976 81.1024 1.552C81.1024 2.128 80.6384 2.448 80.1424 2.448ZM79.3104 3.824H80.9904V12H79.3104V3.824ZM86.9414 3.6C88.4934 3.6 89.6934 4.48 89.6934 6.352V12H87.9974V6.832C87.9974 5.728 87.5334 5.024 86.3654 5.024C85.1334 5.024 84.2534 5.808 84.2534 7.024V12H82.5734V0.559999H84.2534V4.88H84.2854C84.7174 4.24 85.5654 3.6 86.9414 3.6ZM97.0217 3.824H98.7177V14.784H97.0217V11.024H96.9897C96.5577 11.632 95.7577 12.24 94.4777 12.24C92.3977 12.24 90.8457 10.608 90.8457 7.92C90.8457 5.232 92.3977 3.6 94.4777 3.6C95.7577 3.6 96.5577 4.208 96.9897 4.784H97.0217V3.824ZM94.7977 10.864C96.1577 10.864 97.0057 9.728 97.0057 7.92C97.0057 6.096 96.1577 4.976 94.7977 4.976C93.3257 4.976 92.5417 6.32 92.5417 7.92C92.5417 9.52 93.3257 10.864 94.7977 10.864ZM101.203 12.128C100.611 12.128 100.163 11.728 100.163 11.088C100.163 10.464 100.611 10.048 101.203 10.048C101.779 10.048 102.227 10.464 102.227 11.088C102.227 11.728 101.779 12.128 101.203 12.128ZM108.955 6.816C108.891 5.984 108.363 4.976 106.923 4.976C105.275 4.976 104.571 6.384 104.571 7.92C104.571 9.456 105.259 10.864 106.923 10.864C108.363 10.864 108.891 9.872 108.955 8.96H110.635C110.507 10.848 109.051 12.24 106.923 12.24C104.475 12.24 102.891 10.48 102.891 7.92C102.891 5.36 104.475 3.6 106.907 3.6C109.035 3.6 110.427 4.96 110.635 6.816H108.955ZM115.425 12.24C112.865 12.24 111.313 10.464 111.313 7.92C111.313 5.376 112.865 3.6 115.425 3.6C117.985 3.6 119.537 5.376 119.537 7.92C119.537 10.464 117.985 12.24 115.425 12.24ZM115.425 10.864C117.025 10.864 117.857 9.6 117.857 7.92C117.857 6.224 117.025 4.976 115.425 4.976C113.825 4.976 112.993 6.224 112.993 7.92C112.993 9.6 113.825 10.864 115.425 10.864ZM129.722 3.6C131.37 3.6 132.218 4.592 132.218 6.352V12H130.522V6.832C130.522 5.728 130.298 5.024 129.146 5.024C128.01 5.024 127.306 5.808 127.306 7.024V12H125.61V6.832C125.61 5.728 125.386 5.024 124.218 5.024C123.098 5.024 122.378 5.808 122.378 7.024V12H120.698V3.824H122.378V4.88H122.41C122.842 4.24 123.61 3.6 124.842 3.6C125.994 3.6 126.682 4.128 127.018 5.008H127.05C127.658 4.224 128.458 3.6 129.722 3.6Z" fill="#FFF5F0"/>
</svg>
