<svg width="38" height="30" viewBox="0 0 38 30" fill="none" xmlns="http://www.w3.org/2000/svg">
<path d="M3.9559 26.5317C1.85723 24.3026 0.730469 21.8025 0.730469 17.7498C0.730469 10.6184 5.73672 4.22664 13.0169 1.06641L14.8364 3.87414C8.04118 7.54988 6.7127 12.3198 6.18294 15.3272C7.2771 14.7607 8.7095 14.5631 10.1134 14.6935C13.7891 15.0338 16.6865 18.0514 16.6865 21.8025C16.6865 23.6939 15.9351 25.5078 14.5977 26.8452C13.2603 28.1826 11.4464 28.9339 9.55508 28.9339C8.50912 28.9248 7.47543 28.7077 6.51417 28.2953C5.55291 27.8828 4.68328 27.2833 3.9559 26.5317ZM24.3314 26.5317C22.2327 24.3026 21.1059 21.8025 21.1059 17.7498C21.1059 10.6184 26.1122 4.22664 33.3923 1.06641L35.2119 3.87414C28.4166 7.54988 27.0882 12.3198 26.5584 15.3272C27.6526 14.7607 29.085 14.5631 30.4888 14.6935C34.1646 15.0338 37.0619 18.0514 37.0619 21.8025C37.0619 23.6939 36.3106 25.5078 34.9732 26.8452C33.6358 28.1826 31.8219 28.9339 29.9305 28.9339C28.8846 28.9248 27.8509 28.7077 26.8896 28.2953C25.9284 27.8828 25.0587 27.2833 24.3314 26.5317Z" fill="#307457"/>
</svg>
