<svg width="512" height="361" viewBox="0 0 512 361" fill="none" xmlns="http://www.w3.org/2000/svg">
<mask id="mask0_3772_15019" style="mask-type:luminance" maskUnits="userSpaceOnUse" x="280" y="236" width="103" height="95">
<path d="M300.094 236.668L382.906 258.849L363.599 330.93L280.787 308.749L300.094 236.668Z" fill="white"/>
</mask>
<g mask="url(#mask0_3772_15019)">
<path d="M291.246 269.978C296.757 249.405 320.797 242.21 341.369 247.72C361.943 253.231 379.497 271.567 373.987 292.14C368.477 312.712 346.786 326.424 322.062 319.802C301.49 314.291 285.736 290.55 291.246 269.978Z" fill="#FF5E0E"/>
</g>
<path d="M309.327 272.411C308.617 270.501 309.683 268.862 311.711 268.748C313.738 268.633 315.959 270.089 316.669 271.999C317.378 273.907 316.311 275.548 314.284 275.661C312.257 275.775 310.036 274.319 309.327 272.411Z" fill="black"/>
<path d="M357.21 285.17C358.73 283.827 358.552 281.855 356.81 280.764C355.07 279.674 352.426 279.879 350.906 281.221C349.386 282.564 349.564 284.535 351.306 285.626C353.046 286.716 355.69 286.512 357.21 285.17Z" fill="black"/>
<path d="M329.142 307.637C325.939 306.779 323.103 305.371 321.157 303.558L323.483 301.06C328.216 305.473 340.182 306.906 346.407 302.384L348.413 305.146C343.272 308.878 335.489 309.337 329.142 307.637Z" fill="black"/>
<path d="M321.66 266.926C319.522 265.292 313.118 261.459 309.231 263.307L307.764 260.227C314.333 257.1 323.356 263.924 323.737 264.216L321.66 266.926Z" fill="black"/>
<path d="M358.084 273.37C353.701 269.997 346.093 265.589 343.677 266.832L342.116 263.798C347.33 261.113 358.066 269.049 360.166 270.666L358.084 273.37Z" fill="black"/>
<path d="M339.176 279.212L327.884 276.188L328.59 273.551L339.882 276.575L339.176 279.212Z" fill="white"/>
<mask id="mask1_3772_15019" style="mask-type:luminance" maskUnits="userSpaceOnUse" x="291" y="262" width="10" height="7">
<path d="M292.375 262.266L300.935 264.558L299.814 268.746L291.253 266.453L292.375 262.266Z" fill="white"/>
</mask>
<g mask="url(#mask1_3772_15019)">
<path d="M298.122 268.231C298.029 268.206 297.936 268.171 297.846 268.124L292.777 265.493C292.107 265.146 291.846 264.322 292.194 263.652C292.541 262.983 293.364 262.721 294.034 263.071L299.103 265.701C299.772 266.049 300.034 266.873 299.686 267.542C299.386 268.121 298.727 268.393 298.122 268.231Z" fill="white"/>
</g>
<mask id="mask2_3772_15019" style="mask-type:luminance" maskUnits="userSpaceOnUse" x="367" y="279" width="11" height="10">
<path d="M369.164 279.68L377.041 281.789L375.134 288.909L367.257 286.799L369.164 279.68Z" fill="white"/>
</mask>
<g mask="url(#mask2_3772_15019)">
<path d="M368.935 287.186C368.576 287.09 368.259 286.849 368.075 286.493C367.729 285.823 367.992 284.999 368.662 284.655L374.346 281.722C375.019 281.376 375.841 281.64 376.186 282.31C376.532 282.981 376.269 283.805 375.598 284.149L369.913 287.08C369.6 287.243 369.252 287.271 368.935 287.186Z" fill="white"/>
</g>
<path d="M316.994 257.327C309.517 255.324 301.806 259.777 299.803 267.254C297.8 274.732 302.252 282.444 309.73 284.447C317.207 286.45 324.92 281.996 326.923 274.518C328.926 267.041 324.471 259.329 316.994 257.327ZM309.024 287.084C300.092 284.692 294.773 275.48 297.166 266.548C299.558 257.616 308.769 252.297 317.7 254.69C326.632 257.082 331.951 266.293 329.559 275.224C327.166 284.156 317.955 289.476 309.024 287.084Z" fill="white"/>
<path d="M358.033 268.312C350.555 266.309 342.843 270.761 340.84 278.239C338.837 285.716 343.291 293.429 350.769 295.432C358.244 297.434 365.958 292.98 367.96 285.503C369.963 278.025 365.509 270.314 358.033 268.312ZM350.062 298.069C341.131 295.677 335.811 286.464 338.203 277.532C340.595 268.601 349.807 263.282 358.739 265.675C367.669 268.066 372.99 277.277 370.597 286.209C368.205 295.141 358.992 300.461 350.062 298.069Z" fill="white"/>
<path d="M372.572 30C411.588 43.8231 439.949 59.8879 457.622 78.2104C475.328 96.533 481.029 115.928 474.71 136.362C471.104 148.155 464.25 158.096 454.114 166.185C444.01 174.241 431.373 179.634 416.169 182.363L388.62 187.431L386.606 189.445L380.499 219.463L322.282 210.367L318.514 203.869L329.104 150.656L332.938 146.953L371.532 143.964C386.249 142.534 395.215 136.654 398.431 126.291C400.803 118.673 397.798 111.477 389.4 104.72C381.035 97.9624 364.58 89.8895 340.02 80.4845L336.511 71.3232L364.45 31.4944L372.572 30Z" fill="#FF5E0E"/>
<path d="M35.1624 61.5676H49.1643L51.2434 74.4323L52.218 80.7185L52.8515 83.9347C53.8261 86.9885 53.6637 90.5133 54.2972 93.5833L55.4342 99.5284L55.9053 102.257L56.555 105.474L58.1631 115.285L58.8128 118.176C58.8128 118.663 58.9753 118.988 58.9753 119.475L59.7712 124.3L61.2169 131.528L62.9874 140.218L63.4747 143.922L64.1082 146.163C64.5955 148.259 64.7579 150.192 65.2452 152.125L65.8787 155.974L66.5285 158.557L67.6493 164.34C67.9741 166.11 68.4614 167.556 68.6239 168.514C73.2857 168.368 77.7852 167.881 81.9597 167.069L82.7719 164.989C83.0967 164.177 83.2592 163.219 83.5678 162.244L85.3383 156.949C85.5008 156.137 85.6632 155.341 85.9881 154.529L87.7586 148.746L89.5291 143.109L91.2997 137.164L92.0956 133.948L93.0702 131.057C94.5159 125.908 96.2864 120.109 97.5696 115.285L99.5026 110.135L101.419 104.515L102.069 102.42L102.394 100.487C102.394 100.178 102.556 99.6908 102.719 99.2035C102.719 98.7162 102.865 98.0827 103.027 97.433L103.84 93.8919C104.636 98.0827 105.61 102.095 106.081 106.286L106.731 109.502L107.381 112.068L108.664 118.501L109.947 124.3L111.718 131.366L112.367 134.419L113.163 137.798L113.813 141.177L115.421 147.3L116.055 149.867C116.867 152.921 117.5 156.462 118.15 159.515L118.962 162.732C119.596 164.827 120.083 167.069 120.57 169.164L124.907 168.677C127.636 168.206 130.69 167.881 132.785 167.556L134.231 160.799C134.556 159.678 134.718 158.557 134.881 157.42L135.677 154.204C136.164 152.433 136.489 150.354 136.814 148.584L137.447 145.53C137.61 144.555 138.097 143.759 138.259 142.785L139.38 136.677C139.543 135.719 140.03 134.582 140.192 133.461L141.638 127.029L144.042 114.813L145.325 108.852L146.625 103.069C146.771 102.095 146.933 101.137 147.258 100.324L148.379 94.0544L149.354 90.3671L150.474 84.5682L151.124 82.0018L153.691 69.2994C154.015 66.3919 154.503 63.3381 154.665 60.7716C154.665 59.797 154.811 59.0011 154.665 58.1889L152.245 58.0265C150.799 58.0265 148.704 57.8803 146.137 57.8803C144.367 57.8803 142.271 57.8803 140.826 58.3514C140.663 59.1635 140.663 59.797 140.339 60.4468L139.867 63.5005C139.543 64.6213 139.543 65.7584 139.218 66.7167L136.489 79.5815L135.514 84.5682L134.718 88.4342L133.11 96.6371L131.34 105.002L130.219 110.135L129.082 116.568L128.123 122.204C127.474 125.908 124.42 142.785 123.949 142.947L123.462 140.705C123.462 140.381 123.299 139.893 123.299 139.406C123.137 138.935 122.974 138.285 122.974 137.635L122.649 135.881C122.649 135.394 122.487 134.907 122.487 134.582L122.016 132.811C122.016 132.178 121.854 131.69 121.854 131.057C121.691 130.57 121.529 130.082 121.529 129.757C121.366 129.124 121.204 128.474 121.204 127.987L120.879 126.541C120.879 126.07 120.716 125.42 120.57 124.771C120.57 124.3 120.408 123.975 120.245 123.487L118.312 114.001L116.867 108.219L114.934 99.6908L114.138 96.962L112.838 91.1631L111.393 85.0555L110.922 83.285C110.922 82.7977 110.759 82.6353 110.759 82.1642L109.785 78.7856L109.151 75.878L108.339 73.1491C108.339 72.9867 108.177 72.8242 108.014 72.6618C106.081 72.6618 104.164 73.3115 102.231 73.474V73.6364C101.111 73.6364 100.299 73.7988 99.3402 73.9613C99.3402 74.1237 99.3402 74.1237 99.1777 74.2699V74.5948L98.6904 76.3653C98.0407 78.1358 97.7321 80.2312 96.9199 82.0018L95.7991 85.5428C95.1494 88.2717 94.0286 91.4879 93.0702 94.0544L91.1372 100.649L89.3667 105.798C88.5545 107.731 88.0835 109.827 87.4337 111.906L84.38 121.083L82.2846 127.191L81.4886 129.286C79.0684 139.568 78.11 145.692 78.11 145.367L77.4603 147.609C76.973 147.446 76.3395 141.826 76.5019 142.151C76.3395 141.664 76.3395 141.177 76.3395 140.852C76.1771 140.218 76.0146 139.568 76.0146 138.935C75.8522 138.61 75.8522 138.123 75.8522 137.635L75.5273 135.881C75.5273 135.394 75.3649 134.907 75.2187 134.419C75.2187 133.298 74.8938 132.178 74.7314 130.894L71.8401 113.043L71.3528 109.827L70.703 107.082L69.9071 101.137L68.9325 95.1914L67.9741 89.0677L67.0158 83.1226L66.2036 77.015L64.2706 63.8254L62.9874 55.9473C62.6625 54.6641 62.3377 51.4479 62.1915 50.1484C56.2301 50.1484 39.6619 51.123 35 50.6357L35.1624 61.5676Z" fill="#307457"/>
<path d="M225.091 62.5593C219.795 61.5847 212.388 61.5847 212.063 66.1004C212.063 69.3166 211.755 85.56 211.755 89.0848L211.592 92.6259V97.6126L211.267 101.316V105.166H211.43C211.267 108.869 211.43 113.531 210.309 115.789C209.01 115.627 207.564 115.627 206.118 115.627H199.199C197.59 115.627 196.307 115.627 194.862 115.464H192.929C188.592 115.464 185.213 115.951 182.793 114.181V97.4501C182.793 89.4097 183.28 78.6403 181.672 74.1409C180.876 74.1409 180.226 74.287 179.43 74.287H175.889C171.861 74.287 167.686 74.4495 163.658 74.4495C162.537 74.4495 161.254 74.6119 160.117 74.6119C159.971 76.0576 159.971 77.8281 159.971 79.4362L160.604 88.6137C162.375 88.9224 165.104 88.6137 168.32 88.1264L168.011 109.357C168.011 124.154 168.157 137.019 168.157 149.072C168.157 150.046 168.32 151.005 168.32 151.979C168.32 154.058 168.157 155.991 168.157 158.087V161.303C168.157 164.357 169.619 163.869 171.698 163.869L181.038 163.707C181.347 162.424 181.672 160.978 181.834 159.532V158.412C181.834 157.924 181.672 157.437 181.672 156.966C181.834 154.871 181.834 152.938 181.834 151.005V145.384C181.834 143.289 181.672 141.031 181.834 138.952C181.834 133.965 181.834 129.775 182.484 127.046C185.375 126.558 188.429 126.721 191.483 126.721H194.066C197.282 126.721 201.294 127.046 204.835 127.208H206.93C208.701 127.208 210.309 127.533 212.226 127.533C212.226 129.937 212.063 132.357 212.063 134.761V141.519C212.063 142.331 212.226 143.289 212.226 144.247C212.226 153.425 211.755 162.586 211.755 171.748V174.98C211.755 175.776 211.592 176.588 211.592 177.384C211.755 178.992 218.35 180.438 219.795 180.6C223.645 180.6 223.97 181.25 224.457 174.168V170.464C224.457 168.223 224.782 165.965 224.782 163.869C224.782 163.398 224.619 162.911 224.619 162.424C224.782 159.208 224.944 155.829 224.944 152.613L225.091 149.559V144.572L225.415 141.681V138.627C225.415 136.532 225.578 134.436 225.578 132.357V126.883C225.74 123.667 225.903 120.451 225.903 117.235V111.127C225.903 108.544 226.228 106.14 226.228 103.558C226.228 102.762 226.065 102.112 226.065 101.154L226.228 98.0999V87.964C226.228 87.0056 226.39 86.031 226.39 85.2351V77.9905C226.39 77.0322 226.228 76.22 226.228 75.2616L226.39 72.3703L226.228 65.6131C226.065 63.1928 226.552 63.1928 225.091 62.5593Z" fill="#307457"/>
<path d="M268.825 178.176C271.245 178.176 274.932 177.851 274.932 176.406L275.257 173.498C275.42 172.702 275.42 171.728 275.42 170.932V154.363C275.42 152.268 275.582 150.189 275.582 148.256V145.202L275.907 141.823L276.232 135.878L276.703 132.337V131.054L277.19 129.755L280.731 121.552L283.46 114.957C284.11 113.836 284.597 112.39 285.068 111.107L287.96 104.512C289.097 101.783 290.217 98.4048 291.501 95.8221L294.392 88.7563L296.812 82.7949L299.07 76.8498L301.961 69.9301L302.449 68.6469C302.595 68.1596 302.92 67.6885 303.082 67.0388L304.057 64.3099L304.365 62.8643C303.894 62.5394 303.245 62.3769 302.595 62.3769C301.312 62.3769 292.946 62.0521 291.825 61.8896C289.73 68.1596 288.934 69.7677 285.556 78.2955L282.989 84.8903L280.244 92.4435C279.123 95.1886 277.84 98.5673 276.54 101.296L274.136 107.729L272.691 110.945L270.108 117.215C269.475 115.607 268.987 113.836 268.354 112.066L267.379 109.337L265.284 103.067L264.163 99.3632L263.367 96.7967L262.23 93.0932L259.176 83.2822L256.935 76.8498L255.164 71.0509C254.352 68.4845 253.394 65.918 252.581 63.6602L250.973 59.4856L250.015 56.7405C244.216 42.43 245.824 42.9173 243.907 40.9844H231.676C230.88 40.9844 233.609 47.5792 233.934 48.3751L237.313 59.1608C240.204 66.3891 242.299 74.1209 243.583 77.6458L244.541 80.3909C244.866 81.5117 245.353 82.6325 245.824 83.932L247.757 90.0395L250.973 100.322L252.11 104.35L254.189 110.945L255.473 114.811C256.935 119.31 258.543 123.647 259.988 127.984L261.109 131.525V170.444L262.068 178.176H268.825Z" fill="#307457"/>
<path d="M118.221 211.398C117.734 212.211 117.409 222.493 117.246 223.613C117.246 228.454 117.409 232.629 117.409 236.966C117.409 238.249 117.571 239.548 117.571 240.832V248.222C117.409 249.359 117.571 250.318 117.409 251.438C117.409 253.371 117.734 255.142 117.571 257.075L117.409 260.616C117.409 261.574 117.571 262.387 117.571 263.345V270.589C117.571 271.385 117.409 272.198 117.409 272.993C117.409 273.643 117.571 274.439 117.571 275.089C117.409 276.535 117.571 278.143 117.571 279.588L117.409 282.155V290.195C117.409 291.332 117.246 292.453 117.246 293.574L116.126 293.103L115.167 290.049C115.005 289.724 114.842 289.237 114.842 288.912L114.355 287.141L113.705 285.225L113.397 284.088L112.747 282.155L112.422 280.872L110.814 275.885L108.41 268.981L107.435 265.911L104.382 257.4L102.286 251.601L97.9493 237.615L96.9909 234.562C95.8539 231.816 95.058 229.088 94.0834 226.521L92.9626 222.655L90.8672 217.181C90.2337 214.94 89.4215 211.723 87.651 211.723H80.5851C78.4897 211.561 75.1111 211.723 72.707 211.886V228.6C72.707 229.737 72.8695 231.02 72.8695 232.304C72.8695 243.723 73.0157 255.304 73.0157 265.765C73.0157 267.048 73.1781 268.332 73.1781 269.615C73.1781 271.71 73.1781 273.806 73.0157 275.885C73.0157 277.655 73.1781 279.588 73.1781 281.521C73.1781 283.925 73.0157 286.346 73.0157 288.75V304.831L72.8695 308.063V311.75C72.8695 312.725 73.0157 313.683 73.0157 314.495V330.089C73.3405 330.089 73.8278 330.414 74.4776 330.414L75.4359 330.739H76.8816C79.7729 330.414 84.1262 329.602 84.5972 327.36C84.7596 325.265 84.9221 323.169 84.9221 320.928C85.2469 319.157 85.0845 317.224 85.2469 315.291L85.4094 312.075V298.398C85.4094 294.224 85.5718 290.358 85.5718 286.183V282.804C85.5718 280.238 85.7342 277.184 85.7342 274.439C85.7342 273.318 85.5718 272.035 85.5718 270.898L85.7342 265.603V260.616C85.7342 259.333 85.8967 258.033 85.8967 256.75V250.805C85.8967 250.155 85.8967 249.522 86.0429 248.872V247.589C86.0429 246.939 85.8967 246.306 85.8967 245.656V244.373C86.0429 243.398 86.0429 242.277 86.0429 241.319C86.0429 239.711 86.2053 237.94 86.2053 236.332L87.5048 236.803L88.4631 239.857L88.9504 241.79L89.4215 242.927L89.7464 244.373L90.2337 246.143L91.192 248.71L91.6793 250.48L92.0042 251.763L92.6377 253.534L94.7331 259.641L98.1117 268.819L99.2325 272.198L100.207 274.439L101.328 277.818C101.49 278.467 101.978 279.263 102.14 279.913L103.261 283.292C103.894 285.225 104.707 287.141 105.502 288.912L107.76 295.036L108.572 297.602L109.693 299.86L111.935 306.439L114.03 311.75L115.167 314.966C117.084 319.466 120.463 318.508 123.516 318.508H127.707C128.828 318.508 129.803 318.67 130.923 318.67C131.248 315.129 131.719 311.425 131.719 308.063V301.306C131.719 300.169 131.557 299.048 131.557 297.927V295.182C131.557 293.574 131.719 292.291 131.719 290.845V288.116C132.207 276.047 132.369 281.196 132.369 275.722V265.765C132.369 258.845 132.694 247.101 132.694 237.29C132.694 236.007 132.532 234.724 132.532 233.425L132.694 226.683L132.369 212.048L118.221 211.398Z" fill="#307457"/>
<path d="M184.342 209.966C181.776 209.966 179.356 209.966 177.114 210.128C171.315 210.762 166.328 211.736 161.829 213.832L158.45 215.586C154.438 218.169 152.018 221.222 150.897 224.926L149.452 229.588C148.802 231.358 148.477 233.129 148.477 234.412L148.168 237.466C148.168 238.262 148.006 239.074 148.006 240.032L147.681 243.736V249.372C147.194 254.505 147.194 260.466 147.194 265.453V270.748L147.031 275.589V279.926C147.031 284.101 147.519 288.925 148.331 292.466L148.964 295.195C152.505 309.197 164.087 313.371 173.573 314.183L181.126 314.508C193.033 314.508 204.777 311.601 209.763 299.386C211.209 295.049 212.167 290.371 212.655 285.709V284.263C212.817 280.413 212.98 276.547 212.98 272.681V262.399C212.98 260.629 212.98 258.533 213.142 256.763V247.764C213.142 244.548 212.98 241.478 212.817 238.424L212.492 235.695C212.492 234.412 212.33 233.291 212.167 232.154L211.534 229.425C209.926 222.993 206.872 216.723 200.277 213.344L199.303 212.857C196.086 211.899 187.883 209.478 185.155 209.803C184.992 209.803 184.667 209.966 184.342 209.966ZM163.6 249.843C163.6 246.789 163.762 243.898 163.762 241.332L163.924 238.749C164.72 229.75 166.491 222.181 178.397 221.222C179.356 221.222 180.818 221.06 181.938 221.06L182.101 221.222H182.897C190.775 221.547 198.344 222.993 198.978 236.183L199.14 239.236L199.465 241.478V244.061C199.465 245.344 199.627 246.465 199.627 247.764V249.843C199.627 253.709 199.952 257.884 199.627 261.587V269.953L199.465 272.357V275.589C199.465 296.332 193.682 301.79 187.25 302.927C185.155 303.56 182.734 303.56 180.655 303.56C171.64 303.398 166.653 301.481 164.883 293.116C164.883 292.791 164.72 292.304 164.72 291.832L164.412 289.899C164.249 287.479 163.762 284.75 163.762 282.33L163.6 277.197C163.6 275.735 163.437 274.452 163.437 273.006V266.412C163.6 263.033 163.437 259.492 163.437 256.113V254.668C163.437 253.709 163.6 252.751 163.6 251.776V249.843Z" fill="#307457"/>
<path d="M264.559 212.376C254.748 212.376 242.857 211.905 235.613 211.905H231.113C229.505 211.905 227.897 211.742 226.127 211.742H225.477C224.194 211.742 223.073 211.905 222.261 212.229L221.952 214.309C221.627 217.054 221.79 221.066 221.465 223.632C223.073 227.336 232.884 226.54 235.142 226.54C238.033 226.702 241.883 227.011 244.937 227.011C244.937 228.31 245.099 229.756 245.099 231.039C245.099 231.527 244.937 232.16 244.937 232.81V237.309C244.937 237.797 244.79 238.43 244.79 239.08C244.79 241.646 244.628 244.229 244.628 246.633V263.201C244.628 264.485 244.466 265.622 244.466 266.742V268.838C244.466 270.283 244.628 271.567 244.628 272.687C244.628 273.825 244.466 274.945 244.466 276.066V282.174C244.466 284.269 244.303 286.527 244.303 288.606V298.742C244.303 302.283 243.978 305.824 243.978 309.365C243.978 310.648 245.586 310.973 249.761 311.136C254.114 311.607 257.33 310.973 258.289 310.486C258.614 298.271 258.451 283.636 258.451 270.121V267.392C258.451 263.851 258.614 260.148 258.614 256.444C258.614 255.486 258.451 254.511 258.451 253.39L258.614 249.216V246L258.776 242.458C258.776 241.646 258.614 240.85 258.614 240.201C258.614 236.822 258.938 233.768 258.938 229.594V225.403C263.113 225.89 267.937 225.728 272.599 225.728H274.061C275.019 225.728 275.669 225.89 276.465 225.89H282.735V212.229C274.857 212.229 271.641 212.376 264.559 212.376Z" fill="#307457"/>
</svg>
