<svg width="103" height="68" viewBox="0 0 103 68" fill="none" xmlns="http://www.w3.org/2000/svg">
<g clip-path="url(#clip0_4473_3101)">
<mask id="mask0_4473_3101" style="mask-type:luminance" maskUnits="userSpaceOnUse" x="0" y="0" width="103" height="68">
<path d="M103 0.988281H0V67.9383H103V0.988281Z" fill="white"/>
</mask>
<g mask="url(#mask0_4473_3101)">
<path d="M13.3782 27.3024C14.7434 27.3024 15.8503 26.1906 15.8503 24.8192C15.8503 23.4477 14.7434 22.3359 13.3782 22.3359C12.013 22.3359 10.9062 23.4477 10.9062 24.8192C10.9062 26.1906 12.013 27.3024 13.3782 27.3024Z" fill="#C1CD23"/>
<path d="M23.597 20.3086C24.4854 20.3086 25.3538 20.5732 26.0925 21.069C26.8312 21.5648 27.4068 22.2695 27.7467 23.0939C28.0867 23.9184 28.1756 24.8256 28.0023 25.7008C27.8291 26.5761 27.4013 27.3801 26.7731 28.0111C26.1449 28.6421 25.3446 29.0718 24.4733 29.2459C23.602 29.42 22.699 29.3306 21.8782 28.9892C21.0575 28.6476 20.356 28.0693 19.8624 27.3274C19.3689 26.5853 19.1055 25.713 19.1055 24.8206C19.1055 23.6239 19.5787 22.4762 20.421 21.6301C21.2633 20.7839 22.4058 20.3086 23.597 20.3086Z" fill="#F16119"/>
<path d="M33.8157 27.3024C35.181 27.3024 36.2877 26.1906 36.2877 24.8192C36.2877 23.4477 35.181 22.3359 33.8157 22.3359C32.4505 22.3359 31.3438 23.4477 31.3438 24.8192C31.3438 26.1906 32.4505 27.3024 33.8157 27.3024Z" fill="#C1CD23"/>
<path d="M23.597 37.5641C24.9623 37.5641 26.069 36.4523 26.069 35.0809C26.069 33.7095 24.9623 32.5977 23.597 32.5977C22.2317 32.5977 21.125 33.7095 21.125 35.0809C21.125 36.4523 22.2317 37.5641 23.597 37.5641Z" fill="#C1CD23"/>
<path d="M21.125 14.5536C21.125 15.0447 21.27 15.5248 21.5416 15.9332C21.8132 16.3416 22.1993 16.6598 22.651 16.8477C23.1027 17.0357 23.5997 17.0849 24.0793 16.9891C24.5588 16.8932 24.9993 16.6567 25.345 16.3095C25.6907 15.9622 25.9262 15.5197 26.0215 15.038C26.1169 14.5563 26.068 14.057 25.8809 13.6032C25.6937 13.1495 25.3769 12.7617 24.9704 12.4888C24.5638 12.216 24.0859 12.0703 23.597 12.0703C22.9414 12.0703 22.3127 12.3319 21.8491 12.7977C21.3854 13.2633 21.125 13.895 21.125 14.5536Z" fill="#C1CD23"/>
<path d="M14.6257 19.3183C14.9715 19.6653 15.412 19.9015 15.8914 19.9971C16.3709 20.0927 16.8678 20.0433 17.3193 19.8553C17.7709 19.6673 18.1568 19.3489 18.4282 18.9406C18.6997 18.5324 18.8446 18.0523 18.8446 17.5614C18.8446 17.0703 18.6997 16.5903 18.4282 16.182C18.1568 15.7737 17.7709 15.4555 17.3193 15.2674C16.8678 15.0794 16.3709 15.0301 15.8914 15.1256C15.412 15.2212 14.9715 15.4574 14.6257 15.8045C14.1625 16.2707 13.9023 16.9026 13.9023 17.5614C13.9023 18.2201 14.1625 18.852 14.6257 19.3183Z" fill="#C1CD23"/>
<path d="M32.5676 19.3183C32.2218 19.6653 31.7813 19.9015 31.3019 19.9971C30.8224 20.0927 30.3255 20.0433 29.874 19.8553C29.4225 19.6673 29.0366 19.3489 28.7651 18.9406C28.4936 18.5324 28.3486 18.0523 28.3486 17.5614C28.3486 17.0703 28.4936 16.5903 28.7651 16.182C29.0366 15.7737 29.4225 15.4555 29.874 15.2674C30.3255 15.0794 30.8224 15.0301 31.3019 15.1256C31.7813 15.2212 32.2218 15.4574 32.5676 15.8045C33.0308 16.2707 33.291 16.9026 33.291 17.5614C33.291 18.2201 33.0308 18.852 32.5676 19.3183Z" fill="#C1CD23"/>
<path d="M18.1194 33.83C18.4653 33.4829 18.701 33.0404 18.7967 32.5586C18.8923 32.0769 18.8435 31.5774 18.6565 31.1235C18.4695 30.6695 18.1527 30.2816 17.7461 30.0085C17.3395 29.7356 16.8615 29.5898 16.3724 29.5898C15.8834 29.5898 15.4053 29.7356 14.9987 30.0085C14.5921 30.2816 14.2753 30.6695 14.0883 31.1235C13.9012 31.5774 13.8525 32.0769 13.9481 32.5586C14.0437 33.0404 14.2794 33.4829 14.6254 33.83C14.8547 34.0608 15.1269 34.2439 15.4268 34.3688C15.7265 34.4938 16.0479 34.558 16.3724 34.558C16.6969 34.558 17.0183 34.4938 17.3181 34.3688C17.6178 34.2439 17.8901 34.0608 18.1194 33.83Z" fill="#C1CD23"/>
<path d="M1.89008 22.75C2.29751 22.75 2.69579 22.8714 3.03456 23.0987C3.37332 23.3261 3.63736 23.6493 3.79327 24.0275C3.94919 24.4056 3.98998 24.8216 3.9105 25.223C3.83101 25.6245 3.63482 25.9932 3.34672 26.2826C3.05862 26.572 2.69157 26.7691 2.29197 26.849C1.89236 26.9288 1.47817 26.8878 1.10175 26.7312C0.725338 26.5746 0.40361 26.3093 0.177255 25.969C-0.0491014 25.6287 -0.169918 25.2286 -0.169918 24.8194C-0.17045 24.5474 -0.117531 24.2781 -0.0141949 24.0268C0.0891417 23.7755 0.240859 23.5471 0.432254 23.3549C0.623649 23.1626 0.850952 23.0102 1.10112 22.9064C1.3513 22.8026 1.61941 22.7494 1.89008 22.75Z" fill="#006990"/>
<path d="M45.3073 22.75C44.8996 22.7491 44.5009 22.8698 44.1616 23.0968C43.8223 23.3236 43.5577 23.6465 43.4012 24.0246C43.2446 24.4026 43.2032 24.8188 43.2823 25.2205C43.3613 25.6222 43.5572 25.9913 43.8451 26.2812C44.1331 26.571 44.5001 26.7685 44.8998 26.8486C45.2995 26.9288 45.7139 26.888 46.0906 26.7316C46.4672 26.5751 46.7892 26.3099 47.0158 25.9694C47.2423 25.629 47.3632 25.2288 47.3632 24.8194C47.3632 24.2712 47.1467 23.7455 46.7613 23.3575C46.3758 22.9696 45.8529 22.751 45.3073 22.75Z" fill="#006990"/>
<path d="M21.5371 46.624C21.5371 46.2148 21.658 45.8147 21.8843 45.4744C22.1106 45.134 22.4324 44.8688 22.8088 44.7122C23.1852 44.5556 23.5994 44.5146 23.999 44.5945C24.3986 44.6743 24.7656 44.8714 25.0538 45.1608C25.3418 45.4502 25.5381 45.8189 25.6175 46.2203C25.697 46.6218 25.6563 47.0378 25.5003 47.416C25.3444 47.7941 25.0803 48.1173 24.7416 48.3446C24.4028 48.572 24.0046 48.6934 23.5971 48.6934C23.0508 48.6934 22.5268 48.4754 22.1404 48.0873C21.7541 47.6992 21.5371 47.1728 21.5371 46.624Z" fill="#006990"/>
<path d="M21.5371 3.01843C21.5363 3.42788 21.6564 3.82837 21.8823 4.16921C22.1082 4.51005 22.4296 4.77591 22.806 4.93317C23.1824 5.09041 23.5967 5.13197 23.9965 5.05258C24.3964 4.97319 24.7638 4.77643 25.0523 4.48719C25.3408 4.19794 25.5374 3.82922 25.6172 3.42769C25.697 3.02616 25.6565 2.60988 25.5007 2.23152C25.3449 1.85315 25.0808 1.52972 24.742 1.30216C24.4032 1.07459 24.0047 0.953126 23.5971 0.953125C23.0515 0.953124 22.5281 1.17059 22.1419 1.55779C21.7557 1.94499 21.5381 2.4703 21.5371 3.01843Z" fill="#006990"/>
<path d="M6.78937 10.8602C7.07741 11.1498 7.44447 11.3471 7.84411 11.427C8.24375 11.507 8.658 11.466 9.03455 11.3095C9.41102 11.1529 9.73281 10.8877 9.95923 10.5473C10.1857 10.207 10.3065 9.80686 10.3065 9.39749C10.3065 8.98815 10.1857 8.588 9.95923 8.24766C9.73281 7.90733 9.41102 7.64209 9.03455 7.48551C8.658 7.32893 8.24375 7.28803 7.84411 7.36799C7.44447 7.44795 7.07741 7.64518 6.78937 7.93473C6.40336 8.32278 6.18652 8.84891 6.18652 9.39749C6.18652 9.94608 6.40336 10.4722 6.78937 10.8602Z" fill="#006990"/>
<path d="M40.3922 10.8602C40.1041 11.1498 39.7371 11.3471 39.3375 11.427C38.9378 11.507 38.5235 11.466 38.1471 11.3095C37.7705 11.1529 37.4487 10.8877 37.2223 10.5473C36.9959 10.207 36.875 9.80686 36.875 9.39749C36.875 8.98815 36.9959 8.588 37.2223 8.24766C37.4487 7.90733 37.7705 7.64209 38.1471 7.48551C38.5235 7.32893 38.9378 7.28803 39.3375 7.36799C39.7371 7.44795 40.1041 7.64518 40.3922 7.93473C40.7782 8.32278 40.995 8.84891 40.995 9.39749C40.995 9.94608 40.7782 10.4722 40.3922 10.8602Z" fill="#006990"/>
<path d="M9.69385 41.705C9.98208 41.4156 10.1785 41.0469 10.258 40.6454C10.3377 40.244 10.2969 39.8279 10.141 39.4497C9.98517 39.0714 9.72115 38.7482 9.38236 38.5207C9.04358 38.2932 8.64523 38.1719 8.23774 38.1719C7.83025 38.1719 7.43191 38.2932 7.09312 38.5207C6.75432 38.7482 6.49029 39.0714 6.33441 39.4497C6.17853 39.8279 6.13782 40.244 6.21742 40.6454C6.29702 41.0469 6.49336 41.4156 6.7816 41.705C7.16788 42.0927 7.69164 42.3106 8.23774 42.3106C8.78385 42.3106 9.3076 42.0927 9.69385 41.705Z" fill="#006990"/>
<path d="M33.8084 5.45384C33.6527 5.83214 33.3888 6.15554 33.0501 6.38315C32.7114 6.61074 32.313 6.73232 31.9056 6.73248C31.498 6.73264 31.0996 6.61139 30.7607 6.38406C30.4219 6.15672 30.1577 5.83353 30.0017 5.45536C29.8457 5.07718 29.8048 4.66102 29.8843 4.25953C29.9638 3.85802 30.16 3.48922 30.4481 3.19978C30.7364 2.91033 31.1035 2.71324 31.5032 2.63345C31.9028 2.55365 32.3171 2.59473 32.6936 2.7515C33.198 2.96154 33.5987 3.36416 33.8078 3.87087C34.0168 4.37759 34.0171 4.94696 33.8084 5.45384Z" fill="#006990"/>
<path d="M17.1905 45.7563C17.3466 45.3781 17.3875 44.962 17.3081 44.5605C17.2286 44.159 17.0324 43.7902 16.7443 43.5007C16.4562 43.2112 16.0891 43.0141 15.6893 42.9343C15.2897 42.8544 14.8754 42.8955 14.4989 43.0522C14.1224 43.2088 13.8007 43.4742 13.5744 43.8147C13.3481 44.1551 13.2274 44.5553 13.2275 44.9647C13.2277 45.3741 13.3487 45.7741 13.5753 46.1144C13.8019 46.4546 14.1238 46.7198 14.5004 46.8762C14.7502 46.9805 15.018 47.0343 15.2886 47.0344C15.559 47.0346 15.8269 46.9811 16.0769 46.8771C16.3267 46.7731 16.5538 46.6205 16.7449 46.4282C16.936 46.2358 17.0875 46.0075 17.1905 45.7563Z" fill="#006990"/>
<path d="M17.1905 3.87973C17.3466 4.25789 17.3875 4.67404 17.3081 5.07555C17.2286 5.47706 17.0324 5.84587 16.7443 6.13536C16.4562 6.42483 16.0891 6.62196 15.6893 6.7018C15.2897 6.78164 14.8754 6.7406 14.4989 6.58388C14.1224 6.42716 13.8007 6.1618 13.5744 5.82136C13.3481 5.48093 13.2274 5.08071 13.2275 4.67136C13.2277 4.26199 13.3487 3.86188 13.5753 3.52162C13.8019 3.18137 14.1238 2.91626 14.5004 2.75984C14.7502 2.65551 15.018 2.60172 15.2886 2.60156C15.559 2.6014 15.8269 2.65487 16.0769 2.75891C16.3267 2.86294 16.5538 3.0155 16.7449 3.20783C16.936 3.40016 17.0875 3.62849 17.1905 3.87973Z" fill="#006990"/>
<path d="M4.32957 14.5606C4.70615 14.717 5.02809 14.9821 5.25467 15.3224C5.48124 15.6626 5.60226 16.0627 5.60242 16.4721C5.60259 16.8815 5.48188 17.2817 5.25558 17.6221C5.02927 17.9625 4.70754 18.2279 4.33108 18.3846C3.95462 18.5413 3.54034 18.5823 3.14065 18.5025C2.74097 18.4227 2.37384 18.2255 2.08571 17.9361C1.79757 17.6466 1.60137 17.2778 1.52194 16.8763C1.4425 16.4748 1.4834 16.0587 1.63945 15.6805C1.74255 15.4293 1.89399 15.2009 2.0851 15.0086C2.27621 14.8162 2.50321 14.6637 2.75313 14.5597C3.00303 14.4556 3.27092 14.4022 3.54144 14.4023C3.81196 14.4024 4.07978 14.4562 4.32957 14.5606Z" fill="#006990"/>
<path d="M2.75481 31.2515C3.13125 31.0947 3.54552 31.0537 3.94521 31.1335C4.3449 31.2132 4.71206 31.4103 5.00022 31.6997C5.28839 31.9892 5.48462 32.358 5.56411 32.7595C5.64358 33.161 5.60273 33.5772 5.44672 33.9553C5.29071 34.3335 5.02655 34.6567 4.68765 34.8841C4.34876 35.1114 3.95036 35.2326 3.54285 35.2325C3.13534 35.2323 2.73704 35.1107 2.39832 34.8831C2.05961 34.6556 1.7957 34.3321 1.63999 33.9538C1.53613 33.7029 1.48259 33.4339 1.48242 33.1621C1.48227 32.8904 1.53549 32.6212 1.63906 32.3702C1.74263 32.1192 1.89449 31.8911 2.08595 31.6991C2.27741 31.5072 2.50471 31.355 2.75481 31.2515Z" fill="#006990"/>
<path d="M42.8681 14.5631C42.4911 14.7189 42.1685 14.9837 41.9413 15.3237C41.7141 15.6639 41.5925 16.064 41.5918 16.4736C41.5912 16.8832 41.7115 17.2837 41.9377 17.6246C42.1639 17.9654 42.4856 18.2312 42.8621 18.3881C43.2388 18.5451 43.6533 18.5863 44.0532 18.5066C44.4531 18.4268 44.8204 18.2295 45.1087 17.9399C45.397 17.6502 45.5932 17.2812 45.6725 16.8794C45.7518 16.4776 45.7106 16.0612 45.5542 15.683C45.4511 15.4322 45.2998 15.2043 45.109 15.0124C44.9182 14.8204 44.6916 14.668 44.4422 14.564C44.1927 14.4601 43.9253 14.4064 43.6552 14.4063C43.3851 14.4061 43.1177 14.4594 42.8681 14.5631Z" fill="#006990"/>
<path d="M7.31491 26.1753C8.06 26.1753 8.66399 25.5685 8.66399 24.8201C8.66399 24.0716 8.06 23.4648 7.31491 23.4648C6.56983 23.4648 5.96582 24.0716 5.96582 24.8201C5.96582 25.5685 6.56983 26.1753 7.31491 26.1753Z" fill="#94A545"/>
<path d="M39.8783 26.1753C40.6235 26.1753 41.2275 25.5685 41.2275 24.8201C41.2275 24.0716 40.6235 23.4648 39.8783 23.4648C39.1333 23.4648 38.5293 24.0716 38.5293 24.8201C38.5293 25.5685 39.1333 26.1753 39.8783 26.1753Z" fill="#94A545"/>
<path d="M23.5972 42.5308C24.3422 42.5308 24.9462 41.924 24.9462 41.1755C24.9462 40.4271 24.3422 39.8203 23.5972 39.8203C22.8521 39.8203 22.248 40.4271 22.248 41.1755C22.248 41.924 22.8521 42.5308 23.5972 42.5308Z" fill="#94A545"/>
<path d="M23.5972 9.81986C24.3422 9.81986 24.9462 9.21308 24.9462 8.46461C24.9462 7.71613 24.3422 7.10938 23.5972 7.10938C22.8521 7.10938 22.248 7.71613 22.248 8.46461C22.248 9.21308 22.8521 9.81986 23.5972 9.81986Z" fill="#94A545"/>
<path d="M11.1315 14.2074C11.32 14.3971 11.5605 14.5264 11.8222 14.5788C12.084 14.6312 12.3554 14.6046 12.602 14.5021C12.8486 14.3995 13.0594 14.2259 13.2077 14.0029C13.3561 13.78 13.4352 13.5179 13.4352 13.2498C13.4352 12.9816 13.3561 12.7196 13.2077 12.4967C13.0594 12.2737 12.8486 12.1 12.602 11.9975C12.3554 11.895 12.084 11.8683 11.8222 11.9207C11.5605 11.9732 11.32 12.1024 11.1315 12.2922C11.0059 12.4178 10.9063 12.567 10.8384 12.7313C10.7704 12.8956 10.7354 13.0718 10.7354 13.2498C10.7354 13.4277 10.7704 13.6039 10.8384 13.7683C10.9063 13.9326 11.0059 14.0818 11.1315 14.2074Z" fill="#94A545"/>
<path d="M36.0616 14.2074C35.8729 14.3971 35.6326 14.5264 35.3708 14.5788C35.1091 14.6312 34.8377 14.6046 34.5911 14.5021C34.3445 14.3995 34.1336 14.2259 33.9853 14.0029C33.837 13.78 33.7578 13.5179 33.7578 13.2498C33.7578 12.9816 33.837 12.7196 33.9853 12.4967C34.1336 12.2737 34.3445 12.1 34.5911 11.9975C34.8377 11.895 35.1091 11.8683 35.3708 11.9207C35.6326 11.9732 35.8729 12.1024 36.0616 12.2922C36.1871 12.4178 36.2867 12.567 36.3547 12.7313C36.4227 12.8956 36.4577 13.0718 36.4577 13.2498C36.4577 13.4277 36.4227 13.6039 36.3547 13.7683C36.2867 13.9326 36.1871 14.0818 36.0616 14.2074Z" fill="#94A545"/>
<path d="M13.0387 37.3415C13.2276 37.1521 13.3562 36.9106 13.4085 36.6476C13.4607 36.3847 13.4341 36.1121 13.332 35.8644C13.23 35.6166 13.0571 35.4048 12.8351 35.2558C12.6133 35.1068 12.3523 35.0273 12.0855 35.0273C11.8185 35.0273 11.5576 35.1068 11.3357 35.2558C11.1138 35.4048 10.9409 35.6166 10.8388 35.8644C10.7368 36.1121 10.7102 36.3847 10.7624 36.6476C10.8146 36.9106 10.9433 37.1521 11.1322 37.3415C11.3852 37.5952 11.728 37.7378 12.0855 37.7378C12.4429 37.7378 12.7858 37.5952 13.0387 37.3415Z" fill="#94A545"/>
<path d="M31.0737 10.2237C30.9719 10.4715 30.7992 10.6835 30.5775 10.8327C30.3558 10.9819 30.095 11.0617 29.8281 11.062C29.5612 11.0623 29.3002 10.9831 29.0782 10.8344C28.8561 10.6856 28.683 10.474 28.5806 10.2264C28.4783 9.97877 28.4514 9.70625 28.5033 9.44325C28.5552 9.18027 28.6836 8.93866 28.8722 8.74898C29.0608 8.55931 29.3013 8.43009 29.563 8.3777C29.8248 8.3253 30.0961 8.35206 30.3427 8.45461C30.6723 8.59284 30.9342 8.85641 31.0711 9.18782C31.2081 9.51923 31.209 9.89156 31.0737 10.2237Z" fill="#94A545"/>
<path d="M18.6128 40.4512C18.7155 40.2038 18.7429 39.9312 18.6914 39.668C18.6399 39.4048 18.5118 39.163 18.3234 38.9729C18.1349 38.783 17.8946 38.6534 17.6328 38.6007C17.3711 38.548 17.0996 38.5744 16.8529 38.6768C16.6061 38.7791 16.395 38.9527 16.2465 39.1756C16.098 39.3985 16.0187 39.6606 16.0186 39.9288C16.0185 40.197 16.0975 40.4592 16.2458 40.6822C16.3942 40.9052 16.605 41.079 16.8517 41.1816C17.1817 41.3188 17.5523 41.319 17.8825 41.1821C18.2126 41.0452 18.4752 40.7824 18.6128 40.4512Z" fill="#94A545"/>
<path d="M18.6123 9.19111C18.7143 9.43883 18.741 9.71141 18.6888 9.97432C18.6367 10.2373 18.508 10.4788 18.3193 10.6683C18.1304 10.8577 17.8899 10.9867 17.6281 11.0388C17.3662 11.0909 17.095 11.0639 16.8485 10.9611C16.602 10.8583 16.3913 10.6844 16.2433 10.4613C16.0952 10.2383 16.0163 9.97612 16.0166 9.70798C16.0169 9.4399 16.0963 9.17791 16.2449 8.95517C16.3935 8.73243 16.6045 8.55896 16.8512 8.45669C17.1818 8.32081 17.5524 8.32177 17.8824 8.45935C18.2123 8.59692 18.4746 8.85998 18.6123 9.19111Z" fill="#94A545"/>
<path d="M9.07212 17.3074C9.3188 17.41 9.5297 17.5838 9.67793 17.8068C9.82625 18.0298 9.90539 18.292 9.90522 18.5602C9.90513 18.8285 9.82574 19.0905 9.67724 19.3134C9.52875 19.5363 9.31777 19.7099 9.07092 19.8123C8.82415 19.9146 8.55271 19.9411 8.29093 19.8883C8.02915 19.8356 7.78883 19.7061 7.6004 19.5161C7.41197 19.326 7.28389 19.0842 7.23238 18.821C7.18087 18.5579 7.20825 18.2853 7.31105 18.0378C7.37871 17.8735 7.47799 17.7242 7.60319 17.5985C7.7284 17.4728 7.87706 17.3732 8.04067 17.3054C8.20428 17.2375 8.37961 17.2028 8.55661 17.2031C8.73359 17.2035 8.90878 17.2389 9.07212 17.3074Z" fill="#94A545"/>
<path d="M8.03792 29.8271C8.28431 29.7238 8.55567 29.6964 8.81762 29.7481C9.07958 29.7999 9.32043 29.9285 9.50952 30.1178C9.6987 30.3071 9.82771 30.5485 9.88015 30.8114C9.93259 31.0744 9.90624 31.3471 9.80436 31.595C9.70247 31.843 9.52969 32.0549 9.30781 32.2041C9.08593 32.3533 8.825 32.433 8.55802 32.4331C8.29103 32.4333 8.03001 32.3538 7.808 32.2048C7.58599 32.0559 7.41298 31.844 7.31086 31.5962C7.24267 31.4322 7.20739 31.2561 7.20703 31.0784C7.20668 30.9005 7.24127 30.7244 7.30881 30.5601C7.37636 30.3957 7.47554 30.2464 7.60065 30.1206C7.72576 29.9948 7.87435 29.8951 8.03792 29.8271Z" fill="#94A545"/>
<path d="M38.1257 17.3101C37.8804 17.4129 37.6709 17.5866 37.5237 17.809C37.3765 18.0314 37.2983 18.2925 37.2988 18.5596C37.2993 18.8267 37.3787 19.0875 37.5266 19.3094C37.6747 19.5312 37.8849 19.704 38.1306 19.8059C38.3763 19.9078 38.6466 19.9343 38.9073 19.8819C39.1679 19.8296 39.4074 19.7009 39.5953 19.512C39.7832 19.3231 39.9112 19.0826 39.9631 18.8206C40.0149 18.5587 39.9884 18.2872 39.8868 18.0405C39.7493 17.7093 39.4866 17.4465 39.1565 17.3096C38.8264 17.1727 38.4557 17.1728 38.1257 17.3101Z" fill="#94A545"/>
<path d="M31.1747 32.7557C31.1471 32.7135 31.1323 32.6641 31.1318 32.6137C31.1314 32.5631 31.1455 32.5136 31.1723 32.4708C31.1991 32.4281 31.2375 32.394 31.2831 32.3726C31.3286 32.3511 31.3793 32.3433 31.4291 32.35H32.96C33.0133 32.3502 33.0655 32.3655 33.1106 32.3942C33.1555 32.4229 33.1916 32.4639 33.2144 32.5123L36.0904 39.0044H36.1954L39.0713 32.5123C39.093 32.4629 39.1287 32.4211 39.174 32.3922C39.2193 32.3634 39.2721 32.3486 39.3258 32.35H40.8526C40.9024 32.3433 40.9532 32.3511 40.9987 32.3726C41.0442 32.394 41.0827 32.4281 41.1095 32.4708C41.1363 32.5136 41.1503 32.5631 41.1499 32.6137C41.1495 32.6641 41.1346 32.7135 41.1071 32.7557L36.466 42.8997C36.4439 42.9498 36.4076 42.9923 36.3617 43.0218C36.3157 43.0514 36.2621 43.0668 36.2075 43.066H36.0581C36.0039 43.067 35.9508 43.0518 35.9054 43.0221C35.8601 42.9925 35.8246 42.9498 35.8036 42.8997L31.1747 32.7557Z" fill="#685040"/>
<path d="M44.3418 32.6395C44.3439 32.5641 44.3749 32.4925 44.4283 32.4396C44.4818 32.3866 44.5535 32.3565 44.6287 32.3555H46.0181C46.0929 32.3574 46.164 32.3879 46.2173 32.4406C46.2706 32.4934 46.3018 32.5645 46.3049 32.6395V42.6009C46.3018 42.6759 46.2706 42.747 46.2173 42.7998C46.164 42.8525 46.0929 42.8829 46.0181 42.8849H44.6287C44.5535 42.8839 44.4818 42.8537 44.4283 42.8008C44.3749 42.7479 44.3439 42.6762 44.3418 42.6009V32.6395Z" fill="#685040"/>
<path d="M50.0863 32.6395C50.0863 32.6019 50.0938 32.5646 50.1082 32.5299C50.1227 32.4951 50.1438 32.4636 50.1705 32.4372C50.1972 32.4109 50.2289 32.39 50.2637 32.3759C50.2984 32.3619 50.3357 32.355 50.3731 32.3555H53.8024C55.5837 32.3555 56.9611 33.5728 56.9611 35.139C56.9611 36.2954 56.0199 37.2003 55.3171 37.5289C56.125 37.7845 57.264 38.6001 57.264 39.9634C57.264 41.6474 55.826 42.8646 53.9963 42.8646H50.361C50.3235 42.8652 50.2863 42.8582 50.2516 42.8442C50.2168 42.8302 50.1851 42.8093 50.1584 42.7829C50.1317 42.7564 50.1105 42.7249 50.0961 42.6903C50.0816 42.6555 50.0742 42.6182 50.0742 42.5806L50.0863 32.6395ZM53.6206 36.7782C53.7954 36.7796 53.9686 36.745 54.1295 36.6766C54.2904 36.6082 54.4358 36.5074 54.5565 36.3805C54.6772 36.2534 54.7708 36.1031 54.8314 35.9383C54.892 35.7737 54.9185 35.5984 54.9091 35.423C54.9181 35.2514 54.8907 35.0798 54.8289 34.9197C54.7671 34.7594 54.6721 34.6142 54.5504 34.4934C54.4287 34.3727 54.283 34.2793 54.1226 34.2192C53.9624 34.1591 53.7913 34.1338 53.6206 34.1449H52.005V36.7782H53.6206ZM53.8306 41.1118C54.0097 41.1134 54.1872 41.079 54.3527 41.0104C54.5182 40.9419 54.6683 40.8406 54.7941 40.7127C54.9199 40.5849 55.0189 40.4328 55.0851 40.2658C55.1513 40.0988 55.1835 39.9201 55.1798 39.7403C55.1798 38.9896 54.4325 38.4338 53.653 38.4338H52.0372V41.1118H53.8306Z" fill="#685040"/>
<path d="M60.293 32.6397C60.293 32.6021 60.3004 32.5648 60.3149 32.5301C60.3294 32.4954 60.3506 32.4639 60.3773 32.4375C60.4039 32.411 60.4355 32.3902 60.4703 32.3762C60.5052 32.3621 60.5423 32.3552 60.5798 32.3557H64.8614C65.2887 32.3509 65.7129 32.4313 66.1091 32.5922C66.5054 32.7532 66.8659 32.9915 67.1699 33.2934C67.4738 33.5954 67.7151 33.9548 67.8797 34.351C68.0443 34.7472 68.1291 35.1724 68.1291 35.6018C68.1097 36.2745 67.8873 36.9254 67.4913 37.4681C67.0953 38.0109 66.5443 38.4199 65.9115 38.6409L67.9635 42.4631C67.9909 42.5072 68.0058 42.5579 68.0064 42.6099C68.0071 42.6618 67.9936 42.713 67.9673 42.7577C67.9411 42.8025 67.9031 42.8392 67.8576 42.8638C67.8121 42.8884 67.7606 42.9 67.7091 42.8973H66.1378C66.0889 42.9003 66.0402 42.8893 65.9973 42.8656C65.9544 42.8419 65.919 42.8065 65.8954 42.7634L63.9041 38.7748H62.2399V42.6133C62.2379 42.6879 62.2074 42.759 62.1549 42.8118C62.1023 42.8647 62.0315 42.8952 61.9572 42.8973H60.5879C60.5504 42.8978 60.5132 42.8909 60.4785 42.8769C60.4436 42.8628 60.412 42.8419 60.3853 42.8156C60.3586 42.7891 60.3374 42.7576 60.323 42.7229C60.3085 42.6882 60.301 42.6509 60.301 42.6133L60.293 32.6397ZM64.6998 37.1558C65.0977 37.1441 65.4753 36.9769 65.7522 36.6897C66.0291 36.4024 66.1834 36.0178 66.1822 35.618C66.1717 35.2294 66.0112 34.8601 65.7345 34.5882C65.4578 34.3164 65.0868 34.1633 64.6998 34.1613H62.2561V37.1558H64.6998Z" fill="#685040"/>
<path d="M70.7058 42.5061L75.3631 32.3622C75.3841 32.312 75.4195 32.2694 75.4649 32.2398C75.5103 32.2101 75.5634 32.1948 75.6176 32.1958H75.767C75.8216 32.1924 75.8758 32.2067 75.9216 32.2367C75.9674 32.2666 76.0024 32.3107 76.0215 32.3622L80.6343 42.5061C80.6617 42.5483 80.6766 42.5977 80.677 42.6482C80.6774 42.6987 80.6635 42.7483 80.6367 42.791C80.6098 42.8337 80.5714 42.8678 80.5259 42.8893C80.4803 42.9106 80.4296 42.9185 80.3798 42.9118H79.0791C78.9836 42.9173 78.8889 42.8909 78.81 42.8366C78.731 42.7822 78.6723 42.7031 78.6429 42.6116L77.9078 40.9886H73.4283L72.6972 42.6116C72.665 42.7013 72.6056 42.7785 72.5273 42.8324C72.449 42.8863 72.3558 42.9141 72.261 42.9118H70.9603C70.9105 42.9185 70.8598 42.9106 70.8142 42.8893C70.7688 42.8678 70.7303 42.8337 70.7034 42.791C70.6767 42.7483 70.6627 42.6987 70.6631 42.6482C70.6635 42.5977 70.6784 42.5483 70.7058 42.5061ZM77.1686 39.3006L75.67 35.9896H75.6256L74.1553 39.3006H77.1686Z" fill="#685040"/>
<path d="M83.7207 32.4861C83.7297 32.4148 83.765 32.3494 83.8195 32.3029C83.8741 32.2564 83.944 32.232 84.0155 32.2346H84.3872L90.6195 38.889V32.6403C90.6195 32.565 90.6495 32.4927 90.7027 32.4394C90.7551 32.3862 90.8272 32.3563 90.9027 32.3563H92.2795C92.3542 32.3582 92.4254 32.3887 92.4786 32.4414C92.5318 32.4942 92.5636 32.5653 92.5662 32.6403V42.7842C92.5627 42.8578 92.5301 42.927 92.4769 42.9775C92.4237 43.0281 92.3533 43.0563 92.2795 43.0561H91.9207L85.6595 36.1583V42.6503C85.6595 42.688 85.652 42.7253 85.6376 42.76C85.6231 42.7947 85.602 42.8262 85.5753 42.8527C85.5486 42.8791 85.5169 42.8999 85.4822 42.9139C85.4474 42.9279 85.4102 42.9349 85.3727 42.9344H84.0155C83.9408 42.9324 83.8696 42.9019 83.8163 42.8492C83.7631 42.7964 83.7318 42.7254 83.7288 42.6503L83.7207 32.4861Z" fill="#685040"/>
<path d="M98.3707 34.1722H96.0763C96.0017 34.1712 95.9296 34.1404 95.8763 34.0865C95.824 34.0326 95.7939 33.9599 95.7939 33.8841V32.6669C95.7939 32.5915 95.824 32.5193 95.8763 32.466C95.9296 32.4128 96.0017 32.3828 96.0763 32.3828H102.625C102.661 32.3823 102.699 32.3893 102.734 32.4033C102.769 32.4173 102.801 32.4381 102.827 32.4646C102.854 32.491 102.874 32.5225 102.889 32.5573C102.904 32.5919 102.911 32.6293 102.911 32.6669V33.8841C102.911 33.9605 102.881 34.0338 102.827 34.0878C102.773 34.1419 102.7 34.1722 102.625 34.1722H100.334V42.612C100.331 42.687 100.299 42.7581 100.246 42.8108C100.193 42.8636 100.122 42.894 100.047 42.896H98.6539C98.5792 42.894 98.5089 42.8633 98.4556 42.8106C98.4033 42.7577 98.3732 42.6867 98.3707 42.612V34.1722Z" fill="#685040"/>
<path d="M31.1747 47.8026C31.1471 47.7604 31.1323 47.711 31.1318 47.6605C31.1314 47.61 31.1455 47.5604 31.1723 47.5177C31.1991 47.475 31.2375 47.4409 31.2831 47.4194C31.3286 47.398 31.3793 47.3902 31.4291 47.3968H32.96C33.0139 47.3969 33.0666 47.4126 33.1118 47.4422C33.1569 47.4717 33.1926 47.5138 33.2144 47.5632L36.0904 54.031H36.1954L39.0713 47.5632C39.0919 47.5128 39.1272 47.4698 39.1727 47.4401C39.2181 47.4103 39.2716 47.3953 39.3258 47.3968H40.8526C40.9024 47.3902 40.9532 47.398 40.9987 47.4194C41.0442 47.4409 41.0827 47.475 41.1095 47.5177C41.1363 47.5604 41.1503 47.61 41.1499 47.6605C41.1495 47.711 41.1346 47.7604 41.1071 47.8026L36.466 57.9465C36.4439 57.9967 36.4076 58.0392 36.3617 58.0687C36.3157 58.0983 36.2621 58.1137 36.2075 58.1129H36.0581C36.0039 58.1139 35.9508 58.0986 35.9054 58.0689C35.8601 58.0393 35.8246 57.9967 35.8036 57.9465L31.1747 47.8026Z" fill="#685040"/>
<path d="M45.2393 47.6981C45.2412 47.6234 45.2717 47.5523 45.3243 47.4996C45.3768 47.4467 45.4476 47.4161 45.522 47.4141H46.9155C46.9898 47.4161 47.0606 47.4467 47.1132 47.4996C47.1658 47.5523 47.1962 47.6234 47.1982 47.6981V57.6595C47.1963 57.7346 47.166 57.8061 47.1134 57.8596C47.061 57.913 46.9902 57.9445 46.9155 57.9475H45.522C45.4472 57.9445 45.3765 57.913 45.324 57.8596C45.2715 57.8061 45.2412 57.7346 45.2393 57.6595V47.6981Z" fill="#685040"/>
<path d="M51.875 47.6981C51.875 47.6605 51.8825 47.6233 51.8969 47.5885C51.9114 47.5538 51.9326 47.5223 51.9592 47.4959C51.9859 47.4695 52.0176 47.4486 52.0523 47.4346C52.0871 47.4205 52.1243 47.4136 52.1618 47.4141H53.5391C53.6135 47.4161 53.6843 47.4467 53.7368 47.4996C53.7894 47.5524 53.8199 47.6234 53.8219 47.6981V56.142H57.643C57.6805 56.1414 57.7177 56.1484 57.7524 56.1624C57.7872 56.1765 57.8189 56.1972 57.8456 56.2237C57.8723 56.2501 57.8935 56.2816 57.9079 56.3164C57.9224 56.3511 57.9298 56.3883 57.9298 56.426V57.6433C57.9298 57.7197 57.8996 57.793 57.8458 57.847C57.792 57.901 57.719 57.9313 57.643 57.9313H52.1618C52.0857 57.9313 52.0128 57.901 51.959 57.847C51.9052 57.793 51.875 57.7197 51.875 57.6433V47.6981Z" fill="#685040"/>
<path d="M61.4482 47.6981C61.4482 47.6228 61.478 47.5505 61.5311 47.4972C61.5841 47.444 61.656 47.4141 61.731 47.4141H63.1083C63.1835 47.4151 63.2552 47.4452 63.3086 47.4982C63.3621 47.5511 63.3931 47.6227 63.3952 47.6981V56.1419H67.2162C67.2913 56.1419 67.3632 56.1718 67.4162 56.2251C67.4692 56.2784 67.499 56.3506 67.499 56.426V57.6432C67.499 57.719 67.4694 57.7916 67.4164 57.8455C67.3635 57.8995 67.2916 57.9303 67.2162 57.9313H61.731C61.6556 57.9303 61.5838 57.8995 61.5308 57.8455C61.4779 57.7916 61.4482 57.719 61.4482 57.6432V47.6981Z" fill="#685040"/>
<path d="M70.6129 57.5531L75.2742 47.4091C75.295 47.3584 75.3313 47.3155 75.3776 47.2865C75.4239 47.2574 75.4781 47.2434 75.5327 47.2468H75.6821C75.7368 47.2427 75.7913 47.2568 75.8373 47.2868C75.8833 47.3169 75.9182 47.3613 75.9366 47.4131L80.5494 57.5571C80.5752 57.5997 80.5886 57.6486 80.5883 57.6985C80.588 57.7482 80.5737 57.797 80.5473 57.8391C80.5208 57.8813 80.4832 57.9153 80.4386 57.9371C80.3941 57.959 80.3443 57.9679 80.2949 57.9628H78.9902C78.8952 57.9682 78.8012 57.9415 78.7229 57.8872C78.6446 57.8328 78.5867 57.7537 78.5581 57.6626L77.8229 56.0396H73.3394L72.6083 57.6626C72.5756 57.7519 72.516 57.8288 72.4378 57.8827C72.3597 57.9365 72.2668 57.9645 72.1721 57.9628H70.8674C70.8175 57.9684 70.7669 57.9597 70.7217 57.9377C70.6764 57.9157 70.6383 57.8813 70.6117 57.8385C70.5851 57.7956 70.5711 57.7461 70.5713 57.6955C70.5715 57.6451 70.586 57.5956 70.6129 57.5531ZM77.0757 54.3475L75.5811 51.0406H75.5327L74.0664 54.3475H77.0757Z" fill="#685040"/>
<path d="M88.3049 47.2461C89.6508 47.2609 90.9469 47.7573 91.9606 48.646C92.0129 48.7005 92.0421 48.7732 92.0421 48.8489C92.0421 48.9246 92.0129 48.9973 91.9606 49.0517L91.0353 50.0296C91.0104 50.0594 90.9804 50.0834 90.9452 50.0998C90.91 50.1163 90.8722 50.1249 90.8336 50.1249C90.795 50.1249 90.7572 50.1163 90.722 50.0998C90.6868 50.0834 90.6559 50.0594 90.6319 50.0296C90.0104 49.4676 89.2053 49.1555 88.3693 49.1531C87.4535 49.1531 86.5754 49.5187 85.9274 50.1693C85.2799 50.8199 84.9161 51.7023 84.9161 52.6224C84.9161 53.5425 85.2799 54.4249 85.9274 55.0755C86.5754 55.7261 87.4535 56.0917 88.3693 56.0917C88.9822 56.0853 89.5881 55.9571 90.1512 55.7142V54.4686H88.9392C88.9023 54.4697 88.8663 54.4635 88.8328 54.4503C88.7985 54.4372 88.7676 54.4174 88.741 54.3921C88.7144 54.3668 88.6938 54.3365 88.6792 54.303C88.6646 54.2694 88.6569 54.2334 88.656 54.1967V53.0078C88.6551 52.9702 88.662 52.9328 88.6757 52.8979C88.6895 52.8629 88.7101 52.8311 88.7367 52.8045C88.7633 52.7779 88.795 52.757 88.8294 52.7431C88.8646 52.7293 88.9015 52.7227 88.9392 52.7238H91.819C91.8919 52.727 91.9597 52.7584 92.0095 52.8114C92.0593 52.8645 92.0868 52.935 92.0859 53.0078V56.8625C92.0859 56.9089 92.0756 56.9547 92.055 56.9962C92.0353 57.0378 92.0052 57.074 91.9683 57.1019C90.8344 57.7433 89.5538 58.0801 88.2526 58.0798C86.8243 58.0798 85.4549 57.51 84.4452 56.4957C83.4354 55.4813 82.8682 54.1056 82.8682 52.6711C82.8682 51.2366 83.4354 49.8608 84.4452 48.8465C85.4549 47.8322 86.8243 47.2623 88.2526 47.2623L88.3049 47.2461Z" fill="#685040"/>
<path d="M96.2305 47.6981C96.2305 47.6228 96.2605 47.5506 96.3137 47.4973C96.3669 47.444 96.4382 47.4141 96.5137 47.4141H102.597C102.634 47.4136 102.671 47.4205 102.706 47.4346C102.741 47.4486 102.773 47.4695 102.799 47.4959C102.826 47.5223 102.847 47.5538 102.861 47.5885C102.876 47.6233 102.883 47.6605 102.883 47.6981V48.9154C102.883 48.9918 102.853 49.0651 102.799 49.1192C102.745 49.1732 102.672 49.2035 102.597 49.2035H98.1531V51.6705H101.853C101.928 51.6726 101.999 51.7038 102.053 51.7574C102.105 51.8112 102.135 51.8832 102.136 51.9586V53.2042C102.137 53.2419 102.13 53.2793 102.116 53.3142C102.101 53.3491 102.081 53.381 102.055 53.4077C102.029 53.4345 101.997 53.4558 101.962 53.4703C101.928 53.4849 101.891 53.4924 101.853 53.4924H98.1531V56.1257H102.597C102.634 56.1252 102.671 56.1322 102.706 56.1462C102.741 56.1602 102.773 56.181 102.799 56.2075C102.826 56.2339 102.847 56.2654 102.861 56.3002C102.876 56.3348 102.883 56.3721 102.883 56.4098V57.6271C102.883 57.7034 102.853 57.7767 102.799 57.8307C102.745 57.8847 102.672 57.9151 102.597 57.9151H96.5137C96.476 57.9151 96.439 57.9076 96.4047 57.8931C96.3695 57.8786 96.3386 57.8573 96.312 57.8305C96.2854 57.8037 96.2648 57.7719 96.2511 57.737C96.2373 57.7021 96.2305 57.6646 96.2305 57.6271V47.6981Z" fill="#685040"/>
<path d="M32.7824 62.7037C33.1419 62.7037 33.6872 62.7281 34.1154 62.7281H36.1349C36.6883 62.7281 37.0559 62.7037 37.2215 62.6875C37.2355 62.6951 37.2473 62.7062 37.2557 62.7197C37.2642 62.7332 37.2691 62.7487 37.27 62.7646C37.1868 63.216 37.1382 63.6731 37.1246 64.132C37.0624 64.1633 36.9946 64.1817 36.9251 64.1859C36.8557 64.1901 36.7861 64.18 36.7207 64.1564C36.6904 63.9368 36.6389 63.7208 36.5671 63.5112C36.5442 63.4356 36.4957 63.3704 36.4301 63.3267C36.3645 63.2831 36.2859 63.2636 36.2076 63.2718C35.7518 63.2396 35.2942 63.2396 34.8383 63.2718C34.7899 63.2718 34.7455 63.3732 34.7455 63.4341C34.7455 63.9413 34.7455 64.5012 34.7455 65.1261C34.7453 65.141 34.7506 65.1553 34.7602 65.1665C34.7699 65.1777 34.7833 65.185 34.798 65.187C35.1292 65.187 35.8077 65.187 36.0703 65.187C36.236 65.187 36.2844 65.0937 36.345 64.911C36.3822 64.7896 36.4133 64.6664 36.4379 64.5418C36.5934 64.516 36.7528 64.5285 36.9024 64.5783C36.8671 64.8773 36.8496 65.178 36.8499 65.4791C36.8499 65.8849 36.8499 66.1324 36.8499 66.4245C36.7079 66.4779 36.5532 66.4878 36.4056 66.4529C36.3766 66.3158 36.3402 66.1803 36.2966 66.0472C36.236 65.8483 36.1592 65.8159 36.038 65.8078C35.7997 65.7875 34.9959 65.7875 34.7697 65.7875C34.7455 65.7875 34.7293 65.8159 34.7293 65.8402C34.7293 66.3718 34.7293 66.883 34.7293 67.1752C34.7293 67.3375 34.7819 67.4835 34.9676 67.5241C35.1964 67.578 35.4284 67.6161 35.6623 67.6378C35.6835 67.7679 35.6681 67.9014 35.618 68.0232C35.1897 68.0232 34.7132 67.9989 34.1396 67.9989C33.566 67.9989 33.2469 68.0232 32.7946 68.0232C32.7686 67.9638 32.7553 67.8995 32.7553 67.8345C32.7553 67.7696 32.7686 67.7053 32.7946 67.6458C32.9493 67.6328 33.1031 67.6097 33.255 67.5769C33.4974 67.5241 33.5377 67.4227 33.5459 67.1711C33.5539 66.9196 33.566 66.0553 33.566 65.3655C33.566 64.3511 33.566 63.9129 33.5459 63.5964C33.5256 63.2799 33.469 63.2677 33.3156 63.2271C33.1621 63.1866 32.9561 63.1582 32.7662 63.1298C32.7214 62.9903 32.7271 62.8394 32.7824 62.7037Z" fill="#685040"/>
<path d="M40.0292 67.3557C39.5297 66.8019 39.2659 66.0737 39.294 65.3269C39.2824 64.9417 39.3582 64.5588 39.5156 64.2073C39.6731 63.8558 39.9081 63.5449 40.2029 63.2982C40.7745 62.8155 41.5001 62.5562 42.2467 62.5678C42.6057 62.5446 42.9656 62.5978 43.3028 62.7236C43.64 62.8494 43.9471 63.0453 44.204 63.2983C44.4608 63.5514 44.6617 63.856 44.7935 64.1922C44.9254 64.5284 44.9852 64.8888 44.9692 65.2498C44.9923 65.8834 44.8063 66.5068 44.44 67.023C44.1644 67.3717 43.8127 67.6521 43.4121 67.8428C43.0116 68.0334 42.5728 68.1291 42.1296 68.1226C41.7457 68.1485 41.3606 68.0937 40.9989 67.9616C40.6372 67.8296 40.307 67.6232 40.0292 67.3557ZM43.0869 67.3842C43.5151 67.0149 43.6524 66.3251 43.6524 65.5704C43.6524 64.6493 43.3939 63.7891 42.8445 63.3509C42.6008 63.1512 42.2946 63.0449 41.9801 63.0506C41.7542 63.044 41.5311 63.1032 41.3379 63.2211C40.8128 63.5578 40.627 64.2882 40.627 65.1037C40.627 65.9193 40.8814 66.8486 41.5076 67.3314C41.76 67.5321 42.0743 67.6383 42.3962 67.6316C42.6485 67.6348 42.8935 67.547 43.0869 67.3842Z" fill="#685040"/>
<path d="M46.7577 62.7119C47.1172 62.7119 47.6989 62.7119 48.119 62.7119C48.539 62.7119 49.0601 62.6875 49.4559 62.6875C49.4988 62.8193 49.4988 62.9615 49.4559 63.0932C49.2823 63.1216 49.1126 63.1622 49.0076 63.1825C48.7773 63.2393 48.7249 63.3854 48.7249 63.6532C48.7249 64.3836 48.7249 64.8989 48.7249 65.3655C48.7249 65.5806 48.745 66.104 48.7773 66.3799C48.846 66.9642 49.2742 67.4106 50.183 67.4106C50.7646 67.4106 51.4473 67.2725 51.524 65.9823C51.5646 65.2321 51.5646 64.4804 51.524 63.7303C51.524 63.4382 51.4674 63.2597 51.1645 63.1987C50.9734 63.1499 50.779 63.1146 50.5829 63.0932C50.5487 62.9602 50.5487 62.8205 50.5829 62.6875C50.9262 62.6875 51.3382 62.7119 51.7744 62.7119C52.449 62.7119 52.7237 62.6875 52.8973 62.6875C52.9445 62.8186 52.9445 62.9622 52.8973 63.0932C52.76 63.1298 52.6227 63.1379 52.4934 63.1825C52.2793 63.2313 52.2026 63.3854 52.1864 63.7993C52.1501 64.4606 52.142 65.4223 52.0653 66.035C51.9279 67.658 50.9706 68.1247 49.7629 68.1247C48.1957 68.1247 47.6746 67.3496 47.5898 66.4813C47.5373 65.8646 47.5373 64.0914 47.5292 63.641C47.5339 63.5525 47.5095 63.465 47.4599 63.3918C47.4103 63.3185 47.3382 63.2635 47.2546 63.2353C47.0898 63.185 46.9207 63.1496 46.7497 63.1298C46.7045 62.9937 46.7074 62.8461 46.7577 62.7119Z" fill="#685040"/>
<path d="M54.7105 62.707C54.9932 62.707 55.3608 62.7314 55.991 62.7314C56.2333 62.7314 56.5161 62.7314 56.6534 62.7314C56.7379 62.9137 56.8495 63.0819 56.9846 63.2304C57.7318 64.1759 59.0042 65.7665 59.5212 66.3507C59.5342 66.3554 59.5486 66.3554 59.5616 66.3507C59.5616 65.2227 59.5616 64.3747 59.5212 63.7093C59.501 63.4293 59.4243 63.3035 59.1416 63.2224C58.9495 63.1797 58.7553 63.1472 58.5599 63.125C58.5257 62.9919 58.5257 62.8523 58.5599 62.7192C58.7578 62.7192 59.1537 62.7436 59.8039 62.7436C60.3331 62.7436 60.7249 62.7192 60.9066 62.7192C60.9409 62.8523 60.9409 62.9919 60.9066 63.125C60.7855 63.1453 60.6764 63.1696 60.5391 63.2021C60.3089 63.2832 60.2038 63.3481 60.1715 63.7296C60.119 64.3991 60.1029 65.45 60.0948 66.8499C60.0948 67.2556 60.0948 67.7425 60.0948 68.0671C59.8068 68.0508 59.5183 68.0508 59.2304 68.0671C58.6285 67.2759 56.8998 65.0158 56.1808 64.1191C56.1782 64.1149 56.1747 64.1114 56.1704 64.109C56.1662 64.1065 56.1614 64.1053 56.1565 64.1053C56.1516 64.1053 56.1469 64.1065 56.1426 64.109C56.1384 64.1114 56.1348 64.1149 56.1323 64.1191C56.1323 65.0564 56.1323 66.5537 56.1565 66.9594C56.1565 67.3124 56.3019 67.4504 56.5403 67.5112C56.6776 67.5437 56.8432 67.568 57.0896 67.6127C57.1315 67.7377 57.1315 67.8731 57.0896 67.9981C56.7382 67.9981 56.3343 67.9738 55.9061 67.9738C55.4779 67.9738 55.0175 67.9981 54.6944 67.9981C54.6579 67.8722 54.6579 67.7385 54.6944 67.6127C54.8754 67.5883 55.0538 67.5476 55.2275 67.491C55.32 67.4513 55.3983 67.3842 55.4517 67.2986C55.5051 67.213 55.5312 67.113 55.5264 67.0122C55.579 66.5293 55.5951 64.9387 55.6032 63.766C55.6115 63.6645 55.5889 63.5628 55.5384 63.4744C55.488 63.386 55.4119 63.3151 55.3204 63.271C55.1239 63.192 54.9172 63.1414 54.7065 63.1209C54.6648 62.9859 54.6662 62.8412 54.7105 62.707Z" fill="#685040"/>
<path d="M62.9186 62.7042C63.0882 62.7042 63.9364 62.7285 64.195 62.7285C64.8453 62.7285 65.0755 62.7042 65.8107 62.7042C66.4739 62.6647 67.1295 62.8631 67.6607 63.2641C67.9434 63.5026 68.1693 63.8017 68.3217 64.1395C68.474 64.4772 68.549 64.8451 68.5412 65.2158C68.5601 65.627 68.481 66.0366 68.3102 66.4107C68.1394 66.7848 67.8821 67.1125 67.5596 67.3664C66.8739 67.8531 66.0428 68.0894 65.2048 68.0359C64.7241 68.0359 63.9122 68.0115 63.1488 67.9993H62.7894C62.7449 67.9222 62.7368 67.63 62.7894 67.6138C62.9746 67.5972 63.1583 67.5659 63.3387 67.5205C63.4311 67.5037 63.5138 67.4526 63.5706 67.3775C63.6274 67.3024 63.6542 67.2087 63.6456 67.1148C63.6456 66.847 63.6456 66.0679 63.6456 65.37C63.6456 64.5585 63.6456 63.9661 63.6456 63.5888C63.6214 63.3412 63.577 63.2439 63.3468 63.1829C63.2538 63.1546 63.0397 63.1221 62.8661 63.0937C62.8463 62.9615 62.8646 62.8264 62.9186 62.7042ZM65.0069 67.3542C65.2211 67.4992 65.4758 67.5718 65.734 67.5611C65.9314 67.5671 66.1276 67.527 66.3071 67.444C66.4865 67.3609 66.6442 67.2371 66.768 67.0823C67.1631 66.5976 67.3569 65.9784 67.3093 65.3537C67.3271 64.9889 67.2554 64.6253 67.1004 64.2949C66.9455 63.9644 66.712 63.6773 66.4206 63.4589C66.0649 63.2335 65.6491 63.123 65.229 63.1424C65.1258 63.1416 65.0228 63.1524 64.9221 63.1749C64.8879 63.2012 64.8637 63.2384 64.8534 63.2803C64.8534 63.536 64.8534 64.595 64.8534 65.3416C64.8534 66.0882 64.8534 66.8388 64.8534 67.0458C64.8718 67.162 64.9253 67.2696 65.0069 67.3542Z" fill="#685040"/>
<path d="M71.0904 66.8411C71.5509 65.7497 72.2012 64.0374 72.4072 63.4368C72.5018 63.2064 72.5735 62.9672 72.6213 62.7227C72.7425 62.7227 72.8959 62.7227 73.0576 62.7227C73.2191 62.7227 73.3928 62.7227 73.5018 62.7227C73.5544 62.8972 73.615 63.1285 73.6756 63.2826C73.9583 64.0292 74.6651 65.9566 74.9923 66.7397C75.2912 67.4457 75.3357 67.5146 76.0183 67.6161C76.0505 67.7447 76.0391 67.8803 75.9859 68.0016C75.7638 68.0016 75.3963 67.9772 74.7177 67.9772C74.1037 67.9772 73.6553 68.0016 73.3848 68.0016C73.3466 67.8759 73.3466 67.7418 73.3848 67.6161C73.5447 67.5987 73.7011 67.5577 73.8492 67.4944C73.8804 67.4801 73.9053 67.455 73.9195 67.4237C73.9336 67.3923 73.9359 67.3569 73.9259 67.324C73.8404 66.9677 73.7228 66.62 73.5745 66.2853C73.5649 66.2667 73.5504 66.2513 73.5326 66.2405C73.5148 66.2298 73.4944 66.2242 73.4736 66.2244C73.3079 66.2244 72.9565 66.2244 72.694 66.2244C72.2901 66.2244 72.1609 66.2244 72.0437 66.2244C72.0073 66.2244 71.9589 66.2731 71.9387 66.3095C71.8149 66.6123 71.7203 66.9261 71.6559 67.2468C71.6559 67.3929 71.6923 67.4782 71.9064 67.5309C72.0518 67.5634 72.1972 67.5918 72.3506 67.6161C72.3789 67.7443 72.3705 67.878 72.3264 68.0016C72.1366 68.0016 71.7448 67.9772 71.151 67.9772C70.7471 67.9772 70.3432 68.0016 70.0928 68.0016C70.0563 67.8757 70.0563 67.742 70.0928 67.6161C70.7229 67.535 70.8441 67.4254 71.0904 66.8411ZM72.7062 64.0008C72.5608 64.4391 72.3224 65.1166 72.1689 65.5711C72.1689 65.5995 72.1689 65.632 72.2012 65.64C72.2982 65.64 72.5123 65.64 72.7586 65.64C73.005 65.64 73.211 65.64 73.2878 65.64C73.3645 65.64 73.3242 65.6076 73.3242 65.5873C73.2474 65.3642 72.9202 64.4471 72.7505 63.9968C72.7445 63.9888 72.7359 63.983 72.7263 63.9805L72.7062 64.0008Z" fill="#685040"/>
<path d="M81.4991 68.0011C81.176 68.0011 80.6428 67.9768 79.9763 67.9768C79.2412 67.9768 78.7282 68.0011 78.4616 68.0011C78.4298 67.9419 78.4131 67.8757 78.4131 67.8084C78.4131 67.7411 78.4298 67.6749 78.4616 67.6157C78.7201 67.5832 78.9423 67.5466 79.0594 67.5224C79.326 67.4615 79.3866 67.3398 79.4027 66.9868C79.4472 66.0779 79.4391 64.7591 79.4391 63.3593C79.4391 63.3349 79.4108 63.2822 79.3866 63.2822C79.2331 63.2822 78.813 63.2822 78.5464 63.2822C78.4091 63.2822 78.2798 63.3309 78.1425 63.5906C78.0222 63.8391 77.9183 64.0952 77.8315 64.3574C77.68 64.3697 77.529 64.3296 77.4033 64.2438C77.472 63.8746 77.5689 63.1361 77.6013 62.6898C77.6152 62.6726 77.6322 62.6583 77.6517 62.6479C77.6711 62.6374 77.6924 62.631 77.7144 62.6289C77.9757 62.7102 78.2487 62.7473 78.5222 62.7384H81.5678C81.9143 62.7601 82.262 62.7258 82.5978 62.637C82.6301 62.637 82.6664 62.6979 82.6745 62.7141C82.5598 63.2378 82.4856 63.7695 82.4524 64.3047C82.3131 64.3492 82.1635 64.3492 82.0242 64.3047C81.9945 64.0368 81.9418 63.7721 81.8667 63.5134C81.8524 63.4405 81.813 63.3748 81.7554 63.328C81.6978 63.2813 81.6256 63.2564 81.5516 63.2578C81.2462 63.2379 80.94 63.2379 80.6347 63.2578C80.6238 63.2652 80.6145 63.2747 80.6076 63.286C80.6006 63.2971 80.5961 63.3097 80.5943 63.3228C80.5943 64.5887 80.566 66.654 80.5943 67.1166C80.5931 67.1929 80.6132 67.268 80.6525 67.3333C80.6918 67.3987 80.7486 67.4515 80.8165 67.4858C81.0468 67.5483 81.2819 67.5917 81.5193 67.6157C81.563 67.7418 81.5557 67.8802 81.4991 68.0011Z" fill="#685040"/>
<path d="M84.6737 62.707C84.9322 62.707 85.3927 62.7314 85.9667 62.7314C86.7538 62.7314 87.1057 62.707 87.3357 62.707C87.3786 62.8389 87.3786 62.981 87.3357 63.1129C87.1649 63.1282 86.9958 63.1581 86.831 63.2021C86.6285 63.2589 86.6164 63.4049 86.6087 63.6079C86.6087 63.9163 86.6087 64.4193 86.6087 65.1578C86.6087 65.8963 86.6087 66.7808 86.6087 67.1177C86.6087 67.3043 86.6448 67.4625 86.8834 67.5234C87.0722 67.573 87.2636 67.6109 87.4567 67.637C87.4859 67.7685 87.4636 67.9062 87.3958 68.0225C87.158 68.0225 86.7134 67.9981 86.0431 67.9981C85.3725 67.9981 84.9322 68.0225 84.6576 68.0225C84.6297 67.9621 84.6152 67.8963 84.6152 67.8297C84.6152 67.7631 84.6297 67.6974 84.6576 67.637C84.8555 67.6045 84.9847 67.5843 85.0938 67.5599C85.3523 67.5072 85.3927 67.4219 85.421 67.1541C85.4493 66.8863 85.421 65.8842 85.421 65.17C85.421 64.3016 85.421 63.9527 85.421 63.5875C85.421 63.3887 85.3523 63.2751 85.1988 63.2346C85.0223 63.1815 84.841 63.1462 84.6576 63.1291C84.621 62.9899 84.6266 62.843 84.6737 62.707Z" fill="#685040"/>
<path d="M90.2035 67.3557C89.7039 66.8019 89.4396 66.0737 89.4679 65.3269C89.4567 64.9417 89.5323 64.5588 89.6893 64.2073C89.8473 63.8558 90.0824 63.5449 90.3769 63.2982C90.9485 62.8149 91.6738 62.5555 92.4206 62.5678C92.7802 62.5446 93.1398 62.5978 93.4772 62.7236C93.8145 62.8494 94.1209 63.0453 94.3784 63.2983C94.635 63.5514 94.8359 63.856 94.9672 64.1922C95.0994 64.5284 95.1595 64.8888 95.1432 65.2498C95.1664 65.8834 94.9801 66.5068 94.6145 67.023C94.3381 67.3712 93.9861 67.6514 93.5862 67.8419C93.1853 68.0325 92.7467 68.1285 92.3038 68.1226C91.9201 68.1485 91.5347 68.0937 91.1734 67.9616C90.8112 67.8296 90.4807 67.6232 90.2035 67.3557ZM93.2609 67.3842C93.6892 67.0149 93.8265 66.3251 93.8265 65.5704C93.8265 64.6493 93.5681 63.7891 93.0188 63.3509C92.775 63.1503 92.4686 63.0437 92.1545 63.0506C91.9287 63.0462 91.7064 63.1053 91.5116 63.2211C90.9906 63.5578 90.8052 64.2882 90.8052 65.1037C90.8052 65.9193 91.0592 66.8486 91.6858 67.3314C91.9382 67.5327 92.2523 67.639 92.5742 67.6316C92.8248 67.6339 93.0686 67.5461 93.2609 67.3842Z" fill="#685040"/>
<path d="M96.7106 62.707C96.993 62.707 97.3604 62.7314 97.9947 62.7314C98.2333 62.7314 98.5157 62.7314 98.653 62.7314C98.7397 62.9128 98.8513 63.0809 98.9844 63.2304C99.732 64.1759 101.004 65.7665 101.522 66.3507C101.534 66.3554 101.548 66.3554 101.562 66.3507C101.562 65.2227 101.562 64.3747 101.522 63.7093C101.522 63.4293 101.425 63.3035 101.146 63.2224C100.952 63.1801 100.757 63.1475 100.56 63.125C100.526 62.9919 100.526 62.8523 100.56 62.7192C100.758 62.7192 101.153 62.7436 101.804 62.7436C102.333 62.7436 102.729 62.7192 102.907 62.7192C102.946 62.8517 102.946 62.9925 102.907 63.125C102.785 63.1453 102.676 63.1696 102.539 63.2021C102.309 63.2832 102.204 63.3481 102.171 63.7296C102.119 64.3991 102.103 65.45 102.095 66.8499C102.095 67.2556 102.095 67.7425 102.095 68.0671C101.807 68.0508 101.518 68.0508 101.231 68.0671C100.632 67.2759 98.9037 65.0158 98.181 64.1191C98.1784 64.1149 98.1749 64.1114 98.1707 64.109C98.1664 64.1065 98.1612 64.1053 98.1569 64.1053C98.1518 64.1053 98.1466 64.1065 98.1423 64.109C98.138 64.1114 98.1346 64.1149 98.132 64.1191C98.132 65.0564 98.132 66.5537 98.1569 66.9594C98.1569 67.3124 98.302 67.4504 98.5406 67.5112C98.6779 67.5437 98.8436 67.568 99.0899 67.6127C99.1337 67.7374 99.1337 67.8734 99.0899 67.9981C98.738 67.9981 98.3346 67.9738 97.9063 67.9738C97.478 67.9738 97.0171 67.9981 96.6943 67.9981C96.654 67.8728 96.654 67.7379 96.6943 67.6127C96.8737 67.5879 97.0514 67.5471 97.223 67.491C97.3157 67.4513 97.3939 67.3842 97.4479 67.2986C97.5012 67.213 97.5269 67.113 97.5226 67.0122C97.575 66.5293 97.5913 64.9387 97.599 63.766C97.6076 63.6645 97.5844 63.5628 97.5346 63.4744C97.484 63.386 97.4076 63.3151 97.3166 63.271C97.1201 63.1915 96.9132 63.1408 96.702 63.1209C96.6617 62.9855 96.6651 62.8408 96.7106 62.707Z" fill="#685040"/>
</g>
</g>
<defs>
<clipPath id="clip0_4473_3101">
<rect width="103" height="66.95" fill="white" transform="translate(0 0.988281)"/>
</clipPath>
</defs>
</svg>
