<svg width="549" height="506" viewBox="0 0 549 506" fill="none" xmlns="http://www.w3.org/2000/svg">
<g clip-path="url(#clip0_2034_1402)">
<path d="M38.3416 449.68C29.3409 455.878 20.137 462.274 13.9046 471.252C7.67255 480.229 4.95202 492.483 9.95966 502.197L9.8305 502.802C13.6259 504.137 17.7009 504.471 21.6629 503.773C25.6249 503.075 29.3405 501.369 32.4515 498.818C40.3743 492.168 42.8586 481.212 44.8796 471.068L50.8581 441.062L38.3416 449.68Z" fill="#F0F0F0"/>
<path d="M47.0104 479.938C41.0063 481.267 34.8543 482.656 29.7059 486.019C24.5578 489.382 20.5476 495.197 21.1046 501.321L20.9092 501.609C22.6061 503.108 24.6603 504.144 26.8739 504.618C29.0875 505.092 31.3858 504.987 33.5475 504.315C39.0851 502.523 42.6975 497.336 45.8967 492.473L55.3597 478.091L47.0104 479.938Z" fill="#F0F0F0"/>
<path d="M548.253 27.7528H35.5989C35.402 27.7521 35.2134 27.6734 35.0745 27.5339C34.9355 27.3945 34.8574 27.2056 34.8574 27.0087C34.8574 26.8118 34.9355 26.6229 35.0745 26.4835C35.2134 26.344 35.402 26.2653 35.5989 26.2646H548.253C548.449 26.2653 548.638 26.344 548.777 26.4835C548.916 26.6229 548.994 26.8118 548.994 27.0087C548.994 27.2056 548.916 27.3945 548.777 27.5339C548.638 27.6734 548.449 27.7521 548.253 27.7528Z" fill="#CACACA"/>
<path d="M52.3477 17.3357C56.8679 17.3357 60.5323 13.6714 60.5323 9.15115C60.5323 4.63092 56.8679 0.966553 52.3477 0.966553C47.8275 0.966553 44.1631 4.63092 44.1631 9.15115C44.1631 13.6714 47.8275 17.3357 52.3477 17.3357Z" fill="#3F3D56"/>
<path d="M80.6211 17.3357C85.1413 17.3357 88.8057 13.6714 88.8057 9.15115C88.8057 4.63092 85.1413 0.966553 80.6211 0.966553C76.1009 0.966553 72.4365 4.63092 72.4365 9.15115C72.4365 13.6714 76.1009 17.3357 80.6211 17.3357Z" fill="#3F3D56"/>
<path d="M108.895 17.3357C113.415 17.3357 117.079 13.6714 117.079 9.15115C117.079 4.63092 113.415 0.966553 108.895 0.966553C104.374 0.966553 100.71 4.63092 100.71 9.15115C100.71 13.6714 104.374 17.3357 108.895 17.3357Z" fill="#3F3D56"/>
<path d="M531.313 5.97279H511.223C510.829 5.97279 510.45 5.816 510.171 5.53693C509.892 5.25785 509.735 4.87936 509.735 4.48469C509.735 4.09002 509.892 3.7115 510.171 3.43243C510.45 3.15336 510.829 2.99658 511.223 2.99658H531.313C531.708 2.99658 532.086 3.15336 532.365 3.43243C532.644 3.7115 532.801 4.09002 532.801 4.48469C532.801 4.87936 532.644 5.25785 532.365 5.53693C532.086 5.816 531.708 5.97279 531.313 5.97279Z" fill="#3F3D56"/>
<path d="M531.313 11.5531H511.223C510.829 11.5531 510.45 11.3963 510.171 11.1173C509.892 10.8382 509.735 10.4597 509.735 10.065C509.735 9.67034 509.892 9.29184 510.171 9.01277C510.45 8.73369 510.829 8.5769 511.223 8.5769H531.313C531.708 8.5769 532.086 8.73369 532.365 9.01277C532.644 9.29184 532.801 9.67034 532.801 10.065C532.801 10.4597 532.644 10.8382 532.365 11.1173C532.086 11.3963 531.708 11.5531 531.313 11.5531Z" fill="#3F3D56"/>
<path d="M531.313 17.1339H511.223C510.829 17.1339 510.45 16.9771 510.171 16.6981C509.892 16.419 509.735 16.0405 509.735 15.6458C509.735 15.2511 509.892 14.8726 510.171 14.5936C510.45 14.3145 510.829 14.1577 511.223 14.1577H531.313C531.707 14.1591 532.084 14.3165 532.362 14.5954C532.64 14.8743 532.796 15.252 532.796 15.6458C532.796 16.0396 532.64 16.4173 532.362 16.6963C532.084 16.9752 531.707 17.1326 531.313 17.1339Z" fill="#3F3D56"/>
<path d="M383.99 59.6593H43.957V263.53H383.99V59.6593Z" fill="#F0F0F0"/>
<path d="M532.801 59.6593H425.657V123.899H532.801V59.6593Z" fill="#F0F0F0"/>
<path d="M511.424 153.41H447.674C446.877 153.41 446.114 153.094 445.55 152.53C444.987 151.967 444.671 151.204 444.671 150.407C444.671 149.611 444.987 148.847 445.55 148.284C446.114 147.721 446.877 147.404 447.674 147.404H511.424C512.22 147.404 512.984 147.721 513.547 148.284C514.11 148.847 514.427 149.611 514.427 150.407C514.427 151.204 514.11 151.967 513.547 152.53C512.984 153.094 512.22 153.41 511.424 153.41Z" fill="#E4E4E4"/>
<path d="M501.146 143.131H457.953C457.157 143.131 456.393 142.815 455.83 142.252C455.267 141.689 454.95 140.925 454.95 140.129C454.95 139.332 455.267 138.569 455.83 138.005C456.393 137.442 457.157 137.126 457.953 137.126H501.146C501.943 137.126 502.706 137.442 503.269 138.005C503.832 138.569 504.149 139.332 504.149 140.129C504.149 140.925 503.832 141.689 503.269 142.252C502.706 142.815 501.943 143.131 501.146 143.131Z" fill="#E4E4E4"/>
<path d="M532.801 176.475H425.657V240.715H532.801V176.475Z" fill="#F0F0F0"/>
<path d="M511.424 270.226H447.674C446.877 270.226 446.114 269.91 445.55 269.347C444.987 268.784 444.671 268.02 444.671 267.223C444.671 266.427 444.987 265.663 445.55 265.1C446.114 264.537 446.877 264.221 447.674 264.221H511.424C512.22 264.221 512.984 264.537 513.547 265.1C514.11 265.663 514.427 266.427 514.427 267.223C514.427 268.02 514.11 268.784 513.547 269.347C512.984 269.91 512.22 270.226 511.424 270.226Z" fill="#E4E4E4"/>
<path d="M501.146 259.948H457.953C457.157 259.948 456.393 259.631 455.83 259.068C455.267 258.505 454.95 257.741 454.95 256.945C454.95 256.149 455.267 255.385 455.83 254.822C456.393 254.259 457.157 253.942 457.953 253.942H501.146C501.942 253.944 502.704 254.261 503.266 254.824C503.828 255.387 504.144 256.15 504.144 256.945C504.144 257.74 503.828 258.503 503.266 259.066C502.704 259.629 501.942 259.946 501.146 259.948Z" fill="#E4E4E4"/>
<path d="M219.883 169.334C233.897 169.334 245.257 157.973 245.257 143.96C245.257 129.946 233.897 118.585 219.883 118.585C205.869 118.585 194.509 129.946 194.509 143.96C194.509 157.973 205.869 169.334 219.883 169.334Z" fill="#9E616A"/>
<path d="M262.635 263.53H199.011L202.582 183.075L203.021 182.614L209.338 175.947H229.428L236.883 183.164L237.471 183.738L253.334 198.938L262.635 263.53Z" fill="#FF5E0E"/>
<path d="M216.622 263.53H168.265C167.946 232.741 167.692 209.512 167.692 209.512L170.163 208.009L170.178 208.001L197.298 191.535L202.991 182.287L203.02 182.614L204.695 202.108C204.695 202.108 213.794 231.506 216.622 263.53Z" fill="#2F2E41"/>
<path d="M282.42 263.53H239.391C237.092 253.099 235.894 243.165 236.415 234.884C238.528 201.052 233.654 182.287 235.767 182.287L236.884 183.165L250.157 193.649L267.635 200.055L279.763 204.504L281.876 205.278V206.298C281.884 211.417 281.936 235.189 282.42 263.53Z" fill="#2F2E41"/>
<path d="M195.876 151.898C195.876 151.898 198.032 148.112 197.531 135.464C197.03 122.816 216.289 129.97 232.383 128.763C248.477 127.556 245.07 149.879 245.07 149.879C245.07 149.879 246.231 148.552 248.717 137.779C251.203 127.005 245.558 116.269 245.558 116.269C243.896 104.948 234.938 108.576 234.938 108.576C239.252 110.256 238.423 113.847 238.423 113.847C234.771 107.444 225.813 111.072 225.813 111.072C213.865 103.575 201.756 113.448 201.756 113.448C187.322 116.724 195.787 128.203 195.787 128.203C181.271 135.538 195.876 151.898 195.876 151.898Z" fill="#2F2E41"/>
<path d="M154.256 263.53C155.491 238.835 156.436 219.46 156.064 217.964C155.022 213.805 169.717 208.172 170.164 208.009L170.171 208.001H170.179L172.984 209.512L175.037 263.53H154.256Z" fill="#2F2E41"/>
<path d="M292.537 263.53H270.7L264.449 201.796L267.024 199.913C267.024 199.913 267.247 199.965 267.634 200.055C269.635 200.553 276.094 202.242 279.762 204.504C280.574 204.962 281.291 205.571 281.875 206.297C282.233 206.725 282.411 207.274 282.374 207.83C282.188 209.578 286.95 234.296 292.537 263.53Z" fill="#2F2E41"/>
<path d="M329.302 288.456H98.6455C97.7585 288.457 96.9082 288.81 96.2815 289.438C95.6547 290.066 95.3027 290.917 95.3027 291.804C95.3027 292.691 95.6547 293.542 96.2815 294.169C96.9082 294.797 97.7585 295.151 98.6455 295.152H329.302C329.743 295.153 330.179 295.067 330.585 294.899C330.992 294.731 331.362 294.484 331.674 294.173C331.985 293.862 332.232 293.493 332.401 293.086C332.569 292.68 332.656 292.244 332.656 291.804C332.656 291.364 332.569 290.928 332.401 290.521C332.232 290.115 331.985 289.745 331.674 289.434C331.362 289.123 330.992 288.877 330.585 288.709C330.179 288.541 329.743 288.455 329.302 288.456Z" fill="#CACACA"/>
<path d="M266.802 288.456V295.152H98.6455C97.7585 295.151 96.9082 294.797 96.2815 294.169C95.6547 293.542 95.3027 292.691 95.3027 291.804C95.3027 290.917 95.6547 290.066 96.2815 289.438C96.9082 288.81 97.7585 288.457 98.6455 288.456H266.802Z" fill="#3F3D56"/>
<path d="M266.802 298.501C270.5 298.501 273.498 295.503 273.498 291.804C273.498 288.106 270.5 285.108 266.802 285.108C263.104 285.108 260.105 288.106 260.105 291.804C260.105 295.503 263.104 298.501 266.802 298.501Z" fill="#3F3D56"/>
<path d="M213.973 347.608C211.239 347.608 208.566 346.797 206.293 345.278C204.02 343.759 202.248 341.6 201.202 339.074C200.155 336.549 199.882 333.769 200.415 331.088C200.948 328.406 202.265 325.943 204.198 324.01C206.131 322.077 208.594 320.76 211.276 320.227C213.957 319.693 216.737 319.967 219.263 321.013C221.788 322.06 223.947 323.831 225.466 326.105C226.985 328.378 227.796 331.05 227.796 333.784C227.792 337.449 226.334 340.963 223.743 343.554C221.151 346.146 217.638 347.604 213.973 347.608ZM213.973 321.025C211.449 321.025 208.982 321.773 206.884 323.175C204.785 324.577 203.15 326.57 202.184 328.901C201.218 331.233 200.966 333.799 201.458 336.274C201.95 338.749 203.166 341.023 204.95 342.807C206.735 344.592 209.008 345.807 211.483 346.299C213.959 346.792 216.524 346.539 218.856 345.573C221.187 344.607 223.18 342.972 224.582 340.874C225.984 338.775 226.733 336.308 226.733 333.784C226.729 330.401 225.383 327.158 222.991 324.766C220.599 322.374 217.356 321.028 213.973 321.025Z" fill="#FF5E0E"/>
<path d="M212.147 341.228C212.006 341.228 211.871 341.172 211.771 341.072C211.671 340.973 211.615 340.837 211.615 340.696V326.873C211.615 326.803 211.628 326.733 211.654 326.668C211.681 326.603 211.72 326.544 211.769 326.494C211.819 326.444 211.877 326.404 211.942 326.377C212.007 326.35 212.077 326.336 212.147 326.336C212.217 326.336 212.287 326.35 212.352 326.377C212.416 326.404 212.475 326.444 212.525 326.494C212.574 326.544 212.613 326.603 212.64 326.668C212.666 326.733 212.679 326.803 212.679 326.873V340.696C212.679 340.837 212.623 340.973 212.523 341.072C212.423 341.172 212.288 341.228 212.147 341.228Z" fill="#FF5E0E"/>
<path d="M215.798 341.228C215.657 341.228 215.522 341.172 215.422 341.072C215.323 340.973 215.267 340.837 215.267 340.696V326.873C215.266 326.803 215.279 326.733 215.306 326.668C215.332 326.603 215.371 326.544 215.421 326.494C215.47 326.444 215.529 326.405 215.594 326.378C215.659 326.351 215.728 326.337 215.798 326.337C215.868 326.337 215.938 326.351 216.003 326.378C216.068 326.405 216.127 326.444 216.176 326.494C216.225 326.544 216.264 326.603 216.291 326.668C216.317 326.733 216.331 326.803 216.33 326.873V340.697C216.33 340.838 216.274 340.973 216.174 341.072C216.075 341.172 215.939 341.228 215.798 341.228Z" fill="#FF5E0E"/>
<path d="M150.659 333.784C150.659 331.05 151.47 328.378 152.989 326.105C154.508 323.831 156.667 322.06 159.193 321.013C161.718 319.967 164.498 319.693 167.179 320.227C169.861 320.76 172.324 322.077 174.257 324.01C176.19 325.943 177.507 328.406 178.04 331.088C178.573 333.769 178.3 336.549 177.253 339.074C176.207 341.6 174.435 343.759 172.162 345.278C169.889 346.797 167.216 347.608 164.482 347.608C160.818 347.604 157.304 346.146 154.712 343.554C152.121 340.963 150.663 337.449 150.659 333.784ZM151.723 333.784C151.723 336.308 152.471 338.775 153.873 340.874C155.275 342.972 157.268 344.607 159.599 345.573C161.931 346.539 164.497 346.792 166.972 346.299C169.447 345.807 171.721 344.592 173.505 342.807C175.29 341.023 176.505 338.749 176.997 336.274C177.49 333.799 177.237 331.233 176.271 328.901C175.305 326.57 173.67 324.577 171.571 323.175C169.473 321.773 167.006 321.025 164.482 321.025C161.099 321.028 157.856 322.374 155.464 324.766C153.072 327.158 151.726 330.401 151.723 333.784Z" fill="#3F3D56"/>
<path d="M170.454 338.439C170.551 338.439 170.646 338.407 170.723 338.348C170.8 338.289 170.856 338.206 170.881 338.112C170.906 338.017 170.9 337.918 170.863 337.828C170.825 337.738 170.76 337.663 170.675 337.614L164.043 333.785L170.675 329.956C170.777 329.897 170.851 329.801 170.881 329.688C170.912 329.574 170.896 329.454 170.837 329.352C170.778 329.25 170.682 329.176 170.569 329.146C170.455 329.116 170.335 329.131 170.233 329.19L162.938 333.402C162.871 333.441 162.815 333.497 162.776 333.564C162.737 333.631 162.717 333.707 162.717 333.785C162.717 333.863 162.737 333.939 162.776 334.006C162.815 334.073 162.871 334.129 162.938 334.168L170.233 338.38C170.3 338.419 170.376 338.439 170.454 338.439Z" fill="#3F3D56"/>
<path d="M160.673 339.974C160.79 339.974 160.902 339.928 160.985 339.845C161.068 339.762 161.115 339.649 161.115 339.532V328.037C161.115 327.919 161.068 327.807 160.985 327.724C160.902 327.641 160.79 327.594 160.673 327.594C160.555 327.594 160.443 327.641 160.36 327.724C160.277 327.807 160.23 327.919 160.23 328.037V339.532C160.23 339.649 160.277 339.762 160.36 339.845C160.443 339.928 160.555 339.974 160.673 339.974Z" fill="#3F3D56"/>
<path d="M263.464 347.608C260.73 347.608 258.057 346.797 255.784 345.278C253.511 343.759 251.739 341.6 250.693 339.074C249.647 336.549 249.373 333.769 249.906 331.088C250.44 328.406 251.756 325.943 253.689 324.01C255.623 322.077 258.086 320.76 260.767 320.227C263.449 319.693 266.228 319.967 268.754 321.013C271.28 322.06 273.439 323.831 274.958 326.105C276.476 328.378 277.287 331.05 277.287 333.784C277.283 337.449 275.825 340.963 273.234 343.554C270.642 346.146 267.129 347.604 263.464 347.608ZM263.464 321.025C260.94 321.025 258.473 321.773 256.375 323.175C254.276 324.577 252.641 326.57 251.675 328.901C250.709 331.233 250.457 333.799 250.949 336.274C251.441 338.749 252.657 341.023 254.441 342.807C256.226 344.592 258.499 345.807 260.975 346.299C263.45 346.792 266.015 346.539 268.347 345.573C270.678 344.607 272.671 342.972 274.073 340.873C275.475 338.775 276.224 336.308 276.224 333.784C276.22 330.401 274.874 327.158 272.482 324.766C270.09 322.374 266.847 321.028 263.464 321.025Z" fill="#3F3D56"/>
<path d="M257.493 338.439C257.396 338.439 257.301 338.407 257.224 338.348C257.147 338.288 257.091 338.205 257.066 338.111C257.041 338.017 257.047 337.917 257.084 337.827C257.122 337.738 257.187 337.662 257.272 337.614L263.904 333.785L257.272 329.956C257.171 329.897 257.097 329.8 257.067 329.687C257.037 329.574 257.053 329.454 257.111 329.352C257.17 329.251 257.266 329.177 257.379 329.147C257.492 329.116 257.612 329.132 257.714 329.19L265.009 333.402C265.076 333.441 265.132 333.496 265.171 333.564C265.21 333.631 265.23 333.707 265.23 333.785C265.23 333.862 265.21 333.939 265.171 334.006C265.132 334.073 265.076 334.129 265.009 334.168L257.714 338.38C257.647 338.418 257.571 338.439 257.493 338.439Z" fill="#3F3D56"/>
<path d="M267.274 339.974C267.157 339.974 267.044 339.928 266.962 339.845C266.879 339.762 266.832 339.649 266.832 339.532V328.037C266.832 327.919 266.879 327.807 266.962 327.724C267.044 327.641 267.157 327.594 267.274 327.594C267.391 327.594 267.504 327.641 267.587 327.724C267.67 327.807 267.716 327.919 267.716 328.037V339.532C267.716 339.649 267.67 339.762 267.587 339.845C267.504 339.928 267.391 339.974 267.274 339.974Z" fill="#3F3D56"/>
<path d="M80.9903 344.203C80.2596 343.471 79.6984 342.588 79.346 341.616C78.9937 340.643 78.8588 339.606 78.9509 338.575C79.043 337.545 79.3599 336.548 79.8792 335.653C80.3985 334.759 81.1076 333.989 81.9565 333.399L75.1553 309.196L87.6005 313.169L92.151 335.543C93.0489 337.035 93.3683 338.805 93.0487 340.517C92.7291 342.228 91.7928 343.763 90.4171 344.831C89.0414 345.898 87.3219 346.424 85.5845 346.308C83.8471 346.193 82.2124 345.444 80.9903 344.203Z" fill="#FFB6B6"/>
<path d="M77.6637 223.621L75.0858 220.938C75.0858 220.938 67.1154 226.413 68.8018 243.383C70.0474 255.918 66.1112 261.234 66.5511 297.668L77.6637 331.035L90.5168 324.297L81.2178 283.127L77.6637 223.621Z" fill="#FF5E0E"/>
<path d="M87.3074 494.425H96.5237L100.909 458.877L87.3057 458.878L87.3074 494.425Z" fill="#FFB6B6"/>
<path d="M84.9561 491.416L103.106 491.416C106.174 491.416 109.116 492.634 111.285 494.804C113.455 496.973 114.673 499.915 114.673 502.982V503.358L84.9567 503.359L84.9561 491.416Z" fill="#2F2E41"/>
<path d="M114.183 491.162L123.33 492.283L132.01 457.533L118.509 455.878L114.183 491.162Z" fill="#FFB6B6"/>
<path d="M112.216 487.888L130.231 490.097C133.276 490.471 136.048 492.039 137.937 494.456C139.826 496.873 140.678 499.941 140.304 502.986L140.259 503.359L110.763 499.742L112.216 487.888Z" fill="#2F2E41"/>
<path d="M82.5304 312.163C82.5304 312.163 64.777 324.297 73.6532 357.139L85.6572 484.618L99.9186 484.517L105.959 421.614L110.065 377.33L123.782 423.124L112.499 479.314L129.151 481.067L149.101 415.722L139.48 322.686L82.5304 312.163Z" fill="#2F2E41"/>
<path d="M125.366 217.494L116.339 210.233L92.3996 209.248L75.0859 220.938C75.0859 220.938 73.2988 262.564 85.0146 299.644L78.8722 315.133L140.287 322.837L125.366 217.494Z" fill="#FF5E0E"/>
<path d="M106.011 200.339C117.352 200.339 126.545 191.146 126.545 179.805C126.545 168.464 117.352 159.27 106.011 159.27C94.6701 159.27 85.4766 168.464 85.4766 179.805C85.4766 191.146 94.6701 200.339 106.011 200.339Z" fill="#FFB6B6"/>
<path d="M111.398 154.421H106.834C103.655 153.473 100.297 153.281 97.0305 153.86C93.7634 154.439 90.6768 155.774 88.0165 157.756C85.3562 159.739 83.1957 162.316 81.7073 165.281C80.2188 168.247 79.4435 171.519 79.4432 174.836L72.3361 198.289C72.1312 198.966 72.0874 199.681 72.2084 200.377C72.3294 201.073 72.6118 201.731 73.0328 202.299C73.4539 202.866 74.002 203.327 74.6333 203.645C75.2645 203.963 75.9613 204.128 76.668 204.128H80.137C81.5897 202.059 82.2233 199.525 81.9153 197.016C82.5604 198.587 83.0124 200.23 83.2615 201.91C83.3419 202.648 83.3266 203.394 83.216 204.128H113.396C113.591 201.168 112.61 198.251 110.667 196.009C113.099 198.438 115.212 201.167 116.956 204.128H117.523C118.724 204.128 119.875 203.651 120.724 202.802C121.572 201.954 122.049 200.802 122.049 199.602V176.612H133.588C133.588 173.698 133.014 170.812 131.899 168.12C130.784 165.427 129.149 162.981 127.089 160.921C125.028 158.86 122.582 157.225 119.89 156.11C117.197 154.995 114.312 154.421 111.398 154.421Z" fill="#2F2E41"/>
<path d="M134.248 342.428C133.517 341.696 132.956 340.813 132.604 339.84C132.251 338.868 132.117 337.83 132.209 336.8C132.301 335.77 132.618 334.773 133.137 333.878C133.656 332.984 134.365 332.214 135.214 331.623L128.413 307.421L140.858 311.394L145.409 333.768C146.307 335.26 146.626 337.03 146.307 338.741C145.987 340.453 145.051 341.988 143.675 343.055C142.299 344.123 140.58 344.648 138.842 344.533C137.105 344.417 135.47 343.668 134.248 342.428Z" fill="#FFB6B6"/>
<path d="M117.581 222.087L125.366 217.494C125.366 217.494 137.61 215.335 138.917 231.648C140.224 247.961 142.106 290.306 142.106 290.306L145.925 326.002L131.753 329.024L115.465 280.209L117.581 222.087Z" fill="#FF5E0E"/>
<path d="M189.064 505.033H0.887626C0.652213 505.033 0.426455 504.94 0.259993 504.773C0.0935304 504.607 0 504.381 0 504.146C0 503.91 0.0935304 503.685 0.259993 503.518C0.426455 503.352 0.652213 503.258 0.887626 503.258H189.064C189.3 503.258 189.526 503.352 189.692 503.518C189.858 503.685 189.952 503.91 189.952 504.146C189.952 504.381 189.858 504.607 189.692 504.773C189.526 504.94 189.3 505.033 189.064 505.033Z" fill="#CACACA"/>
</g>
<defs>
<clipPath id="clip0_2034_1402">
<rect width="548.997" height="504.067" fill="white" transform="translate(0 0.966553)"/>
</clipPath>
</defs>
</svg>
