<svg width="474" height="414" viewBox="0 0 474 414" fill="none" xmlns="http://www.w3.org/2000/svg">
<g clip-path="url(#clip0_2026_1210)">
<path d="M448.177 373.68L448.91 357.212C456.544 353.131 465.06 350.976 473.717 350.933C461.802 360.674 463.291 379.451 455.214 392.551C452.663 396.617 449.23 400.057 445.169 402.616C441.108 405.175 436.523 406.788 431.754 407.334L421.784 413.439C420.415 405.812 420.717 397.979 422.668 390.479C424.618 382.98 428.172 375.993 433.083 369.999C435.871 366.664 439.068 363.693 442.599 361.157C444.987 367.453 448.177 373.68 448.177 373.68Z" fill="#F2F2F2"/>
<path d="M388.972 412.44C411.04 412.44 428.929 394.55 428.929 372.483C428.929 350.415 411.04 332.525 388.972 332.525C366.904 332.525 349.015 350.415 349.015 372.483C349.015 394.55 366.904 412.44 388.972 412.44Z" fill="#307457"/>
<path d="M372.665 356.853C372.116 359.8 371.217 362.67 369.986 365.403C362.938 380.314 383.011 375.453 390.184 375.453C398.027 375.453 405.531 379.577 404.385 361.252C403.895 353.425 398.027 347.051 390.184 347.051C383.485 347.051 374.066 350.029 372.665 356.853Z" fill="#2F2E41"/>
<path d="M389.009 375.449C395.382 375.449 400.549 370.283 400.549 363.91C400.549 357.536 395.382 352.37 389.009 352.37C382.635 352.37 377.469 357.536 377.469 363.91C377.469 370.283 382.635 375.449 389.009 375.449Z" fill="#A0616A"/>
<path d="M381.172 352.146C383.194 350.914 385.51 350.247 387.878 350.216C390.246 350.184 392.579 350.79 394.633 351.969C396.687 353.148 398.387 354.857 399.554 356.918C400.721 358.978 401.313 361.315 401.269 363.683C395.388 365.159 389.211 366.289 382.94 364.036L381.459 360.412L380.586 364.039C378.676 364.819 376.762 365.48 374.847 364.031C374.769 361.67 375.312 359.329 376.422 357.244C377.532 355.158 379.17 353.401 381.172 352.146Z" fill="#2F2E41"/>
<path d="M420.04 399.051C413.118 406.928 403.376 411.767 392.917 412.522C382.458 413.278 372.121 409.891 364.138 403.091L367.565 393.528C368.339 391.83 369.562 390.374 371.101 389.317C372.639 388.261 374.437 387.643 376.3 387.53L378.481 387.396L383.68 382.912C383.68 382.912 397.688 382.412 397.48 382.172L405.965 387.276L405.958 387.241L409.294 387.445C411.157 387.558 412.955 388.175 414.494 389.232C416.033 390.289 417.255 391.745 418.029 393.444L420.04 399.051Z" fill="#3F3D56"/>
<path d="M79.9143 90.8371C79.9003 98.7399 77.5432 106.461 73.141 113.024C68.7388 119.587 62.4892 124.698 55.1827 127.709C47.8761 130.72 39.8406 131.497 32.0925 129.942C24.3443 128.386 17.2313 124.568 11.6532 118.97C6.07496 113.372 2.28204 106.246 0.754026 98.492C-0.773985 90.7384 0.0315374 82.7057 3.06874 75.4099C6.10595 68.114 11.2384 61.8827 17.8171 57.5038C24.3958 53.1249 32.1253 50.7951 40.028 50.8091C45.2791 50.8048 50.4793 51.8383 55.3297 53.8501C60.1802 55.8619 64.5852 58.8124 68.2917 62.5321C71.9982 66.2517 74.9331 70.6672 76.9277 75.5247C78.9223 80.3822 79.9373 85.5861 79.9143 90.8371Z" fill="#F2F2F2"/>
<path d="M21.4379 77.7681C23.0901 72.5025 26.8473 67.6732 32.0434 65.8931C37.2398 64.1131 44.8486 66.8247 48.7552 70.718C55.901 77.8397 57.6448 102.305 52.7354 110.036C51.7588 109.985 48.3893 109.947 47.401 109.91L46.0028 105.25V109.864C44.4283 109.815 42.8414 109.781 41.2422 109.763C35.8803 109.696 30.7531 107.554 26.9383 103.785C23.1236 100.017 20.9185 94.9159 20.7866 89.5553C20.6587 84.427 20.7868 79.8431 21.4379 77.7681Z" fill="#CCCCCC"/>
<path d="M39.3651 95.2194C45.6542 95.2194 50.7526 90.121 50.7526 83.8319C50.7526 77.5427 45.6542 72.4443 39.3651 72.4443C33.0759 72.4443 27.9775 77.5427 27.9775 83.8319C27.9775 90.121 33.0759 95.2194 39.3651 95.2194Z" fill="#CCCCCC"/>
<path d="M29.5361 73.8309L42.6478 67.2656C45.3284 68.4736 47.637 70.3767 49.3342 72.7775C51.0315 75.1784 52.0555 77.9896 52.3001 80.9196L52.6269 84.8342L47.1364 83.4366L46.5349 78.431L45.6025 83.0462L43.0687 82.4014L43.0928 74.6302L40.5574 82.3959L31.5076 80.3167L29.5361 73.8309Z" fill="#CCCCCC"/>
<path d="M69.6078 117.208C62.6853 125.085 52.943 129.924 42.484 130.68C32.025 131.435 21.6882 128.048 13.7051 121.249L17.1323 111.685C17.9068 109.987 19.129 108.531 20.6679 107.475C22.2068 106.418 24.0043 105.8 25.8676 105.687L28.0479 105.553L33.2469 101.069C33.2469 101.069 47.2552 100.569 47.0473 100.33L55.5326 105.433L55.5256 105.398L58.8612 105.602C60.7247 105.715 62.5224 106.333 64.0614 107.389C65.6003 108.446 66.8224 109.902 67.5965 111.601L69.6078 117.208Z" fill="#CCCCCC"/>
<path d="M40.2414 314.234C62.3091 314.234 80.1985 296.344 80.1985 274.277C80.1985 252.209 62.3091 234.319 40.2414 234.319C18.1736 234.319 0.28418 252.209 0.28418 274.277C0.28418 296.344 18.1736 314.234 40.2414 314.234Z" fill="#F2F2F2"/>
<path d="M23.9343 258.648C23.3859 261.594 22.4867 264.464 21.2558 267.197C14.2073 282.108 34.2801 277.248 41.4534 277.248C49.2964 277.248 56.8005 281.372 55.6544 263.047C55.1648 255.219 49.2964 248.846 41.4534 248.846C34.7542 248.846 25.3352 251.823 23.9343 258.648Z" fill="#CCCCCC"/>
<path d="M40.2782 277.244C46.6515 277.244 51.8181 272.078 51.8181 265.704C51.8181 259.331 46.6515 254.165 40.2782 254.165C33.9049 254.165 28.7383 259.331 28.7383 265.704C28.7383 272.078 33.9049 277.244 40.2782 277.244Z" fill="#CCCCCC"/>
<path d="M32.4412 253.941C34.4633 252.708 36.7795 252.041 39.1476 252.01C41.5157 251.979 43.8487 252.584 45.9026 253.763C47.9566 254.942 49.6561 256.652 50.8234 258.712C51.9907 260.773 52.5829 263.109 52.5381 265.477C46.6579 266.953 40.4804 268.083 34.2097 265.83L32.7288 262.206L31.8557 265.833C29.946 266.614 28.0314 267.274 26.1168 265.825C26.0386 263.464 26.5816 261.124 27.6914 259.038C28.8012 256.953 30.4391 255.195 32.4412 253.941Z" fill="#CCCCCC"/>
<path d="M71.3099 300.846C64.3875 308.722 54.6452 313.561 44.1862 314.317C33.7271 315.073 23.3903 311.685 15.4072 304.886L18.8344 295.323C19.6089 293.624 20.8312 292.169 22.37 291.112C23.9089 290.055 25.7064 289.437 27.5698 289.324L29.7501 289.19L34.949 284.706C34.949 284.706 48.9573 284.206 48.7495 283.967L57.2348 289.071L57.2277 289.035L60.5633 289.24C62.4268 289.352 64.2245 289.97 65.7635 291.027C67.3025 292.083 68.5246 293.539 69.2987 295.238L71.3099 300.846Z" fill="#CCCCCC"/>
<path d="M212.148 277.716C247.878 277.716 276.842 248.751 276.842 213.022C276.842 177.292 247.878 148.328 212.148 148.328C176.419 148.328 147.454 177.292 147.454 213.022C147.454 248.751 176.419 277.716 212.148 277.716Z" fill="#F2F2F2"/>
<path d="M214.785 219.62C226.436 219.62 235.881 210.176 235.881 198.525C235.881 186.874 226.436 177.429 214.785 177.429C203.134 177.429 193.689 186.874 193.689 198.525C193.689 210.176 203.134 219.62 214.785 219.62Z" fill="#CCCCCC"/>
<path d="M233.359 184.589C233.359 184.589 238.851 174.089 226.768 173.134C226.768 173.134 216.466 163.789 205.966 171.426C205.966 171.426 200.239 171.426 197.107 177.907C197.107 177.907 192.602 176.198 191.612 180.771C191.612 180.771 188.316 190.316 191.612 198.907C194.908 207.498 196.003 208.453 196.003 208.453C196.003 208.453 193.691 197.792 206.874 196.837C220.058 195.883 232.152 187.624 233.251 198.124C234.349 208.624 235.557 203.881 235.557 203.881C235.557 203.881 245.992 188.884 233.359 184.589Z" fill="#CCCCCC"/>
<path d="M260.444 256.039C249.236 268.792 233.462 276.626 216.528 277.85C199.594 279.074 182.858 273.589 169.933 262.58L175.482 247.097C176.736 244.347 178.714 241.99 181.206 240.279C183.698 238.568 186.608 237.567 189.625 237.385L193.155 237.168L201.572 229.908C201.572 229.908 224.253 229.098 223.917 228.71L237.655 236.974L237.643 236.917L243.044 237.248C246.061 237.43 248.972 238.43 251.464 240.141C253.955 241.852 255.934 244.209 257.187 246.96L260.444 256.039Z" fill="#CCCCCC"/>
<path d="M105.597 213.235C127.665 213.235 145.554 195.345 145.554 173.278C145.554 151.21 127.665 133.32 105.597 133.32C83.5291 133.32 65.6396 151.21 65.6396 173.278C65.6396 195.345 83.5291 213.235 105.597 213.235Z" fill="#F2F2F2"/>
<path d="M104.494 178.227C111.538 178.227 117.249 172.517 117.249 165.473C117.249 158.428 111.538 152.718 104.494 152.718C97.4498 152.718 91.7393 158.428 91.7393 165.473C91.7393 172.517 97.4498 178.227 104.494 178.227Z" fill="#CCCCCC"/>
<path d="M135.574 200.012C128.651 207.888 118.909 212.727 108.45 213.483C97.9908 214.239 87.654 210.851 79.6709 204.052L83.0981 194.489C83.8726 192.79 85.0948 191.335 86.6337 190.278C88.1726 189.221 89.9701 188.603 91.8335 188.49L94.0138 188.356L99.2127 183.873C99.2127 183.873 113.221 183.372 113.013 183.133L121.498 188.237L121.491 188.201L124.827 188.406C126.691 188.518 128.488 189.136 130.027 190.193C131.566 191.249 132.788 192.705 133.562 194.404L135.574 200.012Z" fill="#CCCCCC"/>
<path d="M117.946 157.563C116.868 153.705 114.419 150.373 111.059 148.193C108.381 146.48 105.04 145.606 102.006 146.511C98.9724 147.417 96.4608 150.394 96.6593 153.611C96.0973 153.463 95.5052 153.476 94.95 153.647C94.3948 153.819 93.8987 154.142 93.5178 154.581C92.7567 155.48 92.2274 156.551 91.9765 157.702C91.003 161.308 91.0675 165.116 92.1626 168.688L92.1024 169.2C93.5824 168.956 94.7051 167.686 95.4032 166.333C96.1012 164.98 96.503 163.479 97.2596 162.159C98.0162 160.839 99.2727 159.662 100.772 159.62L100.639 161.911L104.508 159.918C104.201 160.652 103.895 161.386 103.588 162.12C104.714 161.649 105.84 161.178 106.966 160.707C106.84 161.413 106.715 162.119 106.589 162.824C106.884 162.212 107.3 161.665 107.813 161.219C108.325 160.772 108.923 160.433 109.57 160.224C110.217 160.015 110.9 159.939 111.577 160.002C112.254 160.064 112.911 160.263 113.509 160.586C114.856 161.493 115.827 162.858 116.24 164.428C116.649 165.994 116.869 167.604 116.894 169.222C118.634 165.588 119.008 161.449 117.946 157.563Z" fill="#CCCCCC"/>
<path d="M190.392 205.46V205.484C190.355 205.396 190.331 205.304 190.32 205.21L190.392 205.46Z" fill="#F2F2F2"/>
<path d="M190.392 205.484C190.451 205.733 190.523 205.983 190.594 206.221C190.496 206.247 190.397 206.267 190.297 206.28L190.392 205.484Z" fill="#F2F2F2"/>
<path d="M276.842 212.888C276.839 229.605 270.366 245.671 258.778 257.72C247.19 269.769 231.388 276.863 214.685 277.517V148.259C231.389 148.909 247.193 156.003 258.782 168.053C270.37 180.102 276.843 196.171 276.842 212.888Z" fill="#FF5E0E"/>
<path d="M190.32 205.21L190.392 205.46V205.484C190.355 205.396 190.331 205.304 190.32 205.21Z" fill="#A0616A"/>
<path d="M231.014 200.254C231.018 201.962 230.806 203.663 230.384 205.317V205.329C229.434 209.061 227.462 212.453 224.688 215.124C221.914 217.795 218.449 219.638 214.685 220.447V180.05C219.306 181.044 223.448 183.591 226.419 187.267C229.39 190.944 231.012 195.527 231.014 200.254Z" fill="#A0616A"/>
<path d="M260.679 256.172C254.904 262.759 247.847 268.1 239.939 271.868C232.031 275.636 223.438 277.752 214.685 278.088V229.515C219.736 229.277 224.311 229.027 224.157 228.849L237.896 237.109L237.884 237.05L243.279 237.382C246.297 237.562 249.208 238.56 251.7 240.271C254.193 241.982 256.171 244.341 257.422 247.092L260.548 255.804L260.679 256.172Z" fill="#3F3D56"/>
<path d="M190.392 205.484C190.451 205.733 190.523 205.983 190.594 206.221C190.496 206.247 190.397 206.267 190.297 206.28L190.392 205.484Z" fill="#2F2E41"/>
<path d="M230.444 206.316C230.42 205.983 230.408 205.662 230.384 205.329V205.317C230.315 203.032 229.98 200.763 229.386 198.555C228.613 196.059 227.164 193.67 224.965 192.339C221.673 190.343 217.05 191.424 214.685 194.419V169.497C216.923 170.081 219.053 171.02 220.995 172.278C226.435 175.805 230.399 181.198 232.143 187.443C233.86 193.734 233.257 200.432 230.444 206.316Z" fill="#2F2E41"/>
<path d="M213.795 414C213.59 414.01 213.389 413.939 213.236 413.801C213.084 413.664 212.992 413.471 212.98 413.266V0.73402C213.001 0.532621 213.096 0.346141 213.247 0.210582C213.397 0.0750245 213.592 0 213.795 0C213.997 0 214.193 0.0750245 214.343 0.210582C214.494 0.346141 214.588 0.532621 214.609 0.73402V413.266C214.598 413.471 214.506 413.664 214.354 413.801C214.201 413.939 214 414.01 213.795 414Z" fill="#2F2E41"/>
<path d="M294.954 192.83L272.449 187.31L242.445 161.801L247.442 153.87L274.622 171.185C274.622 171.185 292.604 175.75 298.754 181.015L294.954 192.83Z" fill="#A0616A"/>
<path d="M243.489 162.284C246.517 162.284 248.972 159.829 248.972 156.801C248.972 153.773 246.517 151.319 243.489 151.319C240.461 151.319 238.007 153.773 238.007 156.801C238.007 159.829 240.461 162.284 243.489 162.284Z" fill="#A0616A"/>
<path d="M296.011 178.069L275.142 169.559L265.111 181.47L272.563 187.609L292.876 192.888L292.891 192.941C294.317 198.2 303.491 201.77 310.936 203.839C313.391 204.519 316.013 204.241 318.272 203.062C320.53 201.883 322.257 199.891 323.103 197.487C323.714 195.71 323.817 193.797 323.399 191.965C322.98 190.133 322.058 188.454 320.735 187.118L313.975 180.339L296.011 178.069Z" fill="#FFF5F0"/>
<path d="M238.306 391.944L230.992 389.161L238.246 359.626L249.04 363.734L238.306 391.944Z" fill="#A0616A"/>
<path d="M241.081 390.266L239.022 389.483L232.228 383.156L226.677 384.785C224.243 383.859 221.539 383.938 219.163 385.004C216.787 386.071 214.931 388.038 214.005 390.472L213.892 390.77L237.474 399.743L241.081 390.266Z" fill="#2F2E41"/>
<path d="M312.24 404.206L304.415 404.205L300.692 374.022L312.242 374.023L312.24 404.206Z" fill="#A0616A"/>
<path d="M314.237 401.651L312.034 401.65L303.435 398.153L298.826 401.65C296.221 401.65 293.722 402.685 291.881 404.527C290.039 406.368 289.004 408.866 289.004 411.471V411.79L314.236 411.791L314.237 401.651Z" fill="#2F2E41"/>
<path d="M324.173 274.195C324.173 274.195 325.087 285.16 322.803 295.668C321.371 302.255 320.837 316.342 320.637 325.938C320.518 331.65 317.949 332.56 317.949 332.56L319.653 345.696L315.493 393.439L300.416 392.069L296.304 295.668L269.205 317.095L269.957 319.601C270.323 320.82 267.626 320.664 266.548 321.338L263.89 327.506C263.942 328.526 263.68 329.537 263.14 330.403C262.6 331.27 261.807 331.95 260.869 332.352L246.747 374.362L235.736 367.756L239.407 329.585L244.545 311.968L265.236 286.53L265.693 279.22L267.749 279.305L268.796 276.251L270.719 270.997L324.173 274.195Z" fill="#0F241B"/>
<path d="M324.963 276.498L325.044 276.383C329.393 270.295 322.852 255.665 321.866 253.544C323.037 253.164 324.041 252.389 324.705 251.352C325.37 250.316 325.654 249.08 325.51 247.857L325.085 244.242L324.642 240.697L327.818 237.521L327.827 237.442L329.654 221.451L332.311 210.83C333.312 206.815 333.227 202.606 332.064 198.635C330.901 194.664 328.702 191.074 325.693 188.233L319.551 182.442L312.087 171.397H300.049L295.922 179.193C291.921 180.118 288.371 182.417 285.89 185.691C283.409 188.964 282.156 193.004 282.348 197.106L283.283 217.552L279.621 243.01L279.619 247.617L277.711 249.737C277.024 250.5 276.525 251.414 276.254 252.404C275.982 253.395 275.945 254.435 276.147 255.442L276.398 256.696C275.428 257.112 274.573 257.754 273.903 258.568C273.232 259.382 272.767 260.345 272.546 261.377L271.876 264.503C271.303 265.259 267.521 270.303 267.521 271.682C267.521 271.889 267.673 272.089 268.001 272.311C270.579 274.056 284.828 277.615 291.134 275.092C297.852 272.406 324.555 276.435 324.824 276.476L324.963 276.498Z" fill="#FFF5F0"/>
<path d="M304.513 167.832C313.317 167.832 320.455 160.695 320.455 151.89C320.455 143.086 313.317 135.949 304.513 135.949C295.709 135.949 288.571 143.086 288.571 151.89C288.571 160.695 295.709 167.832 304.513 167.832Z" fill="#A0616A"/>
<path d="M299.314 221.919L288.24 242.273L255.927 264.784L249.53 257.931L273.201 236.062C273.201 236.062 282.2 219.838 288.858 215.232L299.314 221.919Z" fill="#A0616A"/>
<path d="M251.358 267.982C254.385 267.982 256.84 265.528 256.84 262.5C256.84 259.472 254.385 257.017 251.358 257.017C248.33 257.017 245.875 259.472 245.875 262.5C245.875 265.528 248.33 267.982 251.358 267.982Z" fill="#A0616A"/>
<path d="M298.318 224.633L305.282 207.919L302.763 198.682C302.262 196.871 301.264 195.235 299.882 193.961C298.5 192.687 296.79 191.825 294.944 191.472C292.438 191.01 289.851 191.517 287.704 192.89C285.558 194.263 284.014 196.4 283.383 198.869C281.475 206.357 280.01 216.091 283.863 219.943L283.902 219.982L272.438 234.932L289.321 244.475L298.318 224.633Z" fill="#FFF5F0"/>
<path d="M320.264 140.905C318.967 139.158 317.104 137.916 315.679 136.272C314.962 135.319 314.19 134.407 313.369 133.541C311.647 132.11 309.475 131.334 307.236 131.35C304.807 131.287 302.398 131.798 300.203 132.839C298.008 133.881 296.089 135.425 294.601 137.346C293.443 136.667 292.285 135.987 291.126 135.308C290.668 136.513 290.211 137.717 289.753 138.922C289.378 138.596 288.899 138.413 288.401 138.406C287.903 138.399 287.419 138.568 287.035 138.884C286.65 139.2 286.39 139.641 286.3 140.131C286.21 140.62 286.296 141.126 286.543 141.558C286.267 140.706 285.004 140.525 284.308 141.088C283.985 141.4 283.746 141.788 283.612 142.216C283.477 142.645 283.452 143.1 283.539 143.54C283.681 144.514 284.112 145.424 284.775 146.151C285.439 146.879 286.305 147.392 287.262 147.623C288.774 147.96 290.533 147.606 291.743 148.573C292.713 149.348 293.006 150.759 293.996 151.509C295.216 152.432 296.94 152.005 298.456 152.209C299.778 152.436 300.967 153.15 301.788 154.211C302.609 155.271 303.002 156.601 302.891 157.937C303.076 157.083 303.428 156.273 303.928 155.555C304.183 155.2 304.537 154.927 304.944 154.768C305.352 154.61 305.797 154.574 306.225 154.663C307.607 155.077 307.832 156.96 307.498 158.362C306.61 162.081 303.246 168.093 303.246 168.093C307.614 169.816 312.819 168.187 316.189 164.917C319.56 161.647 321.315 157.017 322.08 152.384C322.728 148.455 322.636 144.103 320.264 140.905Z" fill="#2F2E41"/>
<path d="M464.569 412.393C464.569 412.507 464.547 412.621 464.503 412.727C464.459 412.833 464.395 412.93 464.314 413.011C464.233 413.092 464.136 413.157 464.03 413.2C463.924 413.244 463.81 413.266 463.695 413.266H257.951C257.719 413.266 257.497 413.174 257.333 413.01C257.169 412.846 257.077 412.624 257.077 412.393C257.077 412.161 257.169 411.939 257.333 411.775C257.497 411.611 257.719 411.519 257.951 411.519H463.695C463.81 411.519 463.924 411.541 464.03 411.585C464.136 411.629 464.233 411.693 464.314 411.774C464.395 411.855 464.459 411.952 464.503 412.058C464.547 412.164 464.569 412.278 464.569 412.393Z" fill="#CCCCCC"/>
</g>
<defs>
<clipPath id="clip0_2026_1210">
<rect width="473.717" height="414" fill="white"/>
</clipPath>
</defs>
</svg>
