<svg width="56" height="56" viewBox="0 0 56 56" fill="none" xmlns="http://www.w3.org/2000/svg">
<rect width="56" height="56" rx="28" fill="#E8F7FF"/>
<path d="M31.9625 29.4048C30.3839 28.5034 28.532 28 26.6225 28C24.7081 28 22.9706 28.5058 21.4168 29.4037L20.161 27.4134C22.1006 26.2741 24.2579 25.6281 26.6392 25.625C29.0194 25.6281 31.2909 26.3023 33.2175 27.4158L31.9625 29.4048ZM26.6562 15.5C31.0403 15.5 35.2063 16.6903 38.7161 18.8318L37.4749 20.7286C34.3336 18.8198 30.6139 17.8412 26.6562 17.8412C22.7258 17.8412 19.0713 18.8531 15.9406 20.7313L14.6993 18.8343C18.2057 16.7182 22.2784 15.5 26.6562 15.5ZM23.7812 38.625C23.7812 37.0449 25.0761 35.75 26.6562 35.75C28.2364 35.75 29.5312 37.0449 29.5312 38.625C29.5312 40.2051 28.2364 41.5 26.6562 41.5C25.0761 41.5 23.7812 40.2051 23.7812 38.625Z" fill="#07A2FA" stroke="#07A2FA"/>
</svg>
