<svg width="56" height="56" viewBox="0 0 56 56" fill="none" xmlns="http://www.w3.org/2000/svg">
<rect width="56" height="56" rx="28" fill="#FFF5F0"/>
<path d="M20.75 17.375V30.875" stroke="#FF9A00" stroke-width="2" stroke-linecap="round" stroke-linejoin="round"/>
<path d="M34.25 24.125C36.114 24.125 37.625 22.614 37.625 20.75C37.625 18.886 36.114 17.375 34.25 17.375C32.386 17.375 30.875 18.886 30.875 20.75C30.875 22.614 32.386 24.125 34.25 24.125Z" stroke="#FF9A00" stroke-width="2" stroke-linecap="round" stroke-linejoin="round"/>
<path d="M20.75 37.625C22.614 37.625 24.125 36.114 24.125 34.25C24.125 32.386 22.614 30.875 20.75 30.875C18.886 30.875 17.375 32.386 17.375 34.25C17.375 36.114 18.886 37.625 20.75 37.625Z" stroke="#FF9A00" stroke-width="2" stroke-linecap="round" stroke-linejoin="round"/>
<path d="M34.25 24.125C34.25 26.8103 33.1833 29.3857 31.2845 31.2845C29.3857 33.1833 26.8103 34.25 24.125 34.25" stroke="#FF9A00" stroke-width="2" stroke-linecap="round" stroke-linejoin="round"/>
</svg>
