<svg width="56" height="56" viewBox="0 0 56 56" fill="none" xmlns="http://www.w3.org/2000/svg">
<rect width="56" height="56" rx="28" fill="#F4FBF8"/>
<path d="M34.25 17.25H20.75C19.5074 17.25 18.5 18.2574 18.5 19.5V37.5C18.5 38.7426 19.5074 39.75 20.75 39.75H34.25C35.4926 39.75 36.5 38.7426 36.5 37.5V19.5C36.5 18.2574 35.4926 17.25 34.25 17.25Z" stroke="#307457" stroke-width="2" stroke-linecap="round" stroke-linejoin="round"/>
<path d="M27.5 35.25C29.9853 35.25 32 33.2353 32 30.75C32 28.2647 29.9853 26.25 27.5 26.25C25.0147 26.25 23 28.2647 23 30.75C23 33.2353 25.0147 35.25 27.5 35.25Z" stroke="#307457" stroke-width="2" stroke-linecap="round" stroke-linejoin="round"/>
</svg>
