<svg width="37" height="56" viewBox="0 0 37 56" fill="none" xmlns="http://www.w3.org/2000/svg">
<path fill-rule="evenodd" clip-rule="evenodd" d="M19.5897 0.131592C15.5091 1.57957 11.6917 5.79187 7.87428 12.6369C2.21401 23.036 -5.02587 37.779 4.97833 49.4945C9.58553 54.8915 17.3519 58.0507 27.3562 53.0486C35.3858 48.9679 37.7553 37.2525 34.7277 31.8555C28.6725 20.5349 22.6173 17.7706 21.0377 10.794C19.9846 6.05514 19.4581 2.50101 19.5897 0.131592Z" fill="url(#paint0_linear_2551_6844)"/>
<path fill-rule="evenodd" clip-rule="evenodd" d="M19.5897 0C15.5091 1.44798 11.56 5.66028 7.87428 12.5053C2.21401 22.9044 -5.02587 37.6474 4.97833 49.3629C9.58553 54.7599 17.2203 56.4711 21.4326 53.3119C24.1969 51.2058 26.0398 49.2312 27.0929 45.0189C28.2776 40.2801 27.3562 34.0933 26.698 31.0657C25.9082 27.3799 25.6449 23.4309 25.9082 18.9553C25.9082 18.9553 25.7765 18.9553 25.7765 18.8237C23.5388 16.191 21.9591 13.8216 21.1693 10.5307C19.9846 5.92354 19.4581 2.36942 19.5897 0Z" fill="url(#paint1_linear_2551_6844)"/>
<path fill-rule="evenodd" clip-rule="evenodd" d="M16.1668 1.8429C12.3494 4.87049 9.58511 9.87259 7.74223 16.8492C4.97791 27.38 4.71465 37.1209 5.63609 42.9128C7.47896 53.9701 17.3515 58.0508 27.3557 52.917C33.5425 49.7578 36.1752 43.0444 36.0436 35.6729C35.912 28.0381 21.1689 19.4819 18.6679 13.1634C16.9566 8.81952 16.1668 5.13375 16.1668 1.8429Z" fill="url(#paint2_linear_2551_6844)"/>
<path fill-rule="evenodd" clip-rule="evenodd" d="M25.7771 21.588C30.3843 27.3799 31.3057 31.4606 28.8046 33.6983C24.9873 37.1208 15.5096 39.3586 9.71768 35.278C5.76866 32.5136 4.32068 26.5901 5.24212 17.5073C3.66251 20.9298 2.21453 24.2207 1.16146 27.7748C0.108386 31.1973 -0.286515 34.8831 0.240022 38.5688C1.688 41.3331 4.97885 43.3077 10.3759 44.2291C18.4055 45.6771 26.0403 44.8873 31.1741 42.3862C34.5965 40.675 36.1762 38.9637 36.0445 37.2525C36.1762 34.7514 35.3864 32.382 33.6751 30.0126C32.0955 27.6432 29.4628 24.8788 25.7771 21.588Z" fill="url(#paint3_linear_2551_6844)"/>
<path fill-rule="evenodd" clip-rule="evenodd" d="M8.00496 15.7961C8.00496 20.0084 9.05803 23.9575 11.2958 27.7749C14.5867 33.4351 18.4041 39.0954 24.196 43.7026C28.0134 46.8618 31.1726 47.7833 33.4104 46.7302C31.5675 50.1527 29.4613 51.7323 27.3552 51.7323C24.196 51.6007 20.2469 50.2843 14.0601 42.7812C9.84784 37.7791 7.08352 33.0402 5.50391 28.5647C5.76717 26.8534 6.03044 25.0105 6.29371 23.2993C6.68861 21.5881 7.21515 19.087 8.00496 15.7961Z" fill="url(#paint4_linear_2551_6844)"/>
<path fill-rule="evenodd" clip-rule="evenodd" d="M17.8793 21.588C18.2742 25.0105 19.5905 30.5391 17.8793 34.0933C16.1681 37.779 8.40164 44.3608 10.5078 50.1527C12.6139 55.9446 17.8793 54.6282 21.1702 51.9955C24.461 49.3629 26.1723 45.0189 26.5672 41.8597C26.9621 38.8321 25.6457 32.9086 25.2508 27.7748C24.9875 24.3523 25.1192 21.4564 25.7774 18.9553L24.7243 17.639L18.8007 15.9277C18.0109 17.3757 17.616 19.2186 17.8793 21.588Z" fill="url(#paint5_linear_2551_6844)"/>
<path fill-rule="evenodd" clip-rule="evenodd" d="M19.9846 4.60718C18.0101 5.39698 16.2989 6.9766 14.5876 9.47765C11.9549 13.0318 10.6386 15.2696 11.6917 22.3778C12.3498 27.1166 12.7447 31.4606 13.1396 35.5412L21.4326 11.4522C21.1693 10.2675 20.9061 9.08274 20.6428 8.1613C20.2479 6.9766 20.1162 5.92352 19.9846 4.60718Z" fill="url(#paint6_linear_2551_6844)"/>
<path fill-rule="evenodd" clip-rule="evenodd" d="M21.3012 11.3206C19.195 12.5053 17.6154 15.138 16.4307 18.8237C15.246 22.6411 14.1929 27.9065 13.2715 34.7515C14.5878 30.4075 15.3776 27.2483 15.7725 25.2738C16.4307 22.3778 16.5623 18.1655 18.2736 15.4012C19.3267 13.5583 20.3797 12.242 21.3012 11.3206Z" fill="#7D7D7D"/>
<path fill-rule="evenodd" clip-rule="evenodd" d="M11.4277 52.1272C14.8502 52.6537 16.6931 53.0486 16.8247 53.4435C17.088 53.9701 16.4298 54.4966 14.4553 54.2333C13.2706 53.9701 12.2175 53.3119 11.4277 52.1272Z" fill="white"/>
<path fill-rule="evenodd" clip-rule="evenodd" d="M13.2715 4.60718C11.4286 6.84496 9.71735 9.34601 8.26937 11.8471C6.82139 14.3481 5.89995 16.3226 5.24178 17.5073C5.11015 18.4288 4.97852 19.8768 4.97852 21.7196C4.97852 23.5625 5.11015 25.537 5.50505 27.7748C5.76832 23.4309 6.55813 19.087 8.0061 15.0063C9.32244 10.9256 11.1653 7.3715 13.2715 4.60718Z" fill="#EDEDED" fill-opacity="0.6033"/>
<defs>
<linearGradient id="paint0_linear_2551_6844" x1="18.5079" y1="4.19659" x2="16.5752" y2="55.6136" gradientUnits="userSpaceOnUse">
<stop stop-color="#D9D8DC"/>
<stop offset="1" stop-color="white" stop-opacity="0.3853"/>
</linearGradient>
<linearGradient id="paint1_linear_2551_6844" x1="17.8048" y1="3.34124" x2="-2.38717" y2="47.5958" gradientUnits="userSpaceOnUse">
<stop stop-color="#8D67AF" stop-opacity="0.6719"/>
<stop offset="1" stop-color="#9F8DAF"/>
</linearGradient>
<linearGradient id="paint2_linear_2551_6844" x1="20.6442" y1="18.5366" x2="20.6442" y2="54.1342" gradientUnits="userSpaceOnUse">
<stop stop-color="#7D7D7D"/>
<stop offset="1" stop-color="#B7B4B4" stop-opacity="0.2777"/>
</linearGradient>
<linearGradient id="paint3_linear_2551_6844" x1="7.35838" y1="19.5559" x2="16.4208" y2="43.5605" gradientUnits="userSpaceOnUse">
<stop stop-color="#91739F" stop-opacity="0.4595"/>
<stop offset="1" stop-color="#32054F" stop-opacity="0.5399"/>
</linearGradient>
<linearGradient id="paint4_linear_2551_6844" x1="27.84" y1="50.5035" x2="2.92273" y2="29.8657" gradientUnits="userSpaceOnUse">
<stop stop-color="#7D7D7D"/>
<stop offset="1" stop-color="#340A50" stop-opacity="0.8214"/>
</linearGradient>
<linearGradient id="paint5_linear_2551_6844" x1="21.6755" y1="18.1375" x2="4.10253" y2="44.876" gradientUnits="userSpaceOnUse">
<stop stop-color="#715383" stop-opacity="0.1452"/>
<stop offset="1" stop-color="#F4F4F4" stop-opacity="0.2336"/>
</linearGradient>
<linearGradient id="paint6_linear_2551_6844" x1="24.5925" y1="24.7477" x2="12.1478" y2="23.988" gradientUnits="userSpaceOnUse">
<stop stop-color="#A5A1A8" stop-opacity="0.3561"/>
<stop offset="1" stop-color="#370C50" stop-opacity="0.582"/>
</linearGradient>
</defs>
</svg>
