<svg width="56" height="34" viewBox="0 0 56 34" fill="none" xmlns="http://www.w3.org/2000/svg">
<path d="M27.9477 0.115601C20.5401 0.115601 15.9105 3.81837 14.0585 11.2232C16.8366 7.52045 20.0774 6.13243 23.7809 7.05778C25.8942 7.58575 27.4044 9.11896 29.0766 10.8154C31.7998 13.579 34.9517 16.7774 41.8369 16.7774C49.2439 16.7774 53.8741 13.0746 55.7255 5.66906C52.948 9.37183 49.7072 10.7605 46.0031 9.8352C43.8905 9.30723 42.3802 7.77401 40.708 6.07755C37.9848 3.31402 34.8322 0.115601 27.9477 0.115601ZM14.0585 16.7774C6.65152 16.7774 2.02131 20.4801 0.169922 27.8857C2.94735 24.1829 6.18815 22.7942 9.89232 23.7202C12.0049 24.2489 13.5152 25.7814 15.1874 27.4772C17.9106 30.2407 21.0632 33.4398 27.9477 33.4398C35.3553 33.4398 39.9848 29.7371 41.8369 22.3315C39.0588 26.0343 35.818 27.423 32.1145 26.497C30.0012 25.9697 28.491 24.4358 26.8188 22.74C24.0956 19.9765 20.9437 16.7774 14.0585 16.7774Z" fill="#06B6D4"/>
</svg>
